G75*
%MOIN*%
%OFA0B0*%
%FSLAX24Y24*%
%IPPOS*%
%LPD*%
%AMOC8*
5,1,8,0,0,1.08239X$1,22.5*
%
%ADD10C,0.0000*%
%ADD11R,0.0634X0.0634*%
%ADD12C,0.0634*%
%ADD13C,0.0640*%
%ADD14C,0.0745*%
D10*
X000180Y000180D02*
X000180Y039550D01*
X039550Y039550D01*
X039550Y000180D01*
X000180Y000180D01*
D11*
X010436Y009745D03*
X010436Y028745D03*
D12*
X011436Y028745D03*
X011436Y029745D03*
X010436Y029745D03*
X012436Y029745D03*
X013436Y029745D03*
X013436Y028745D03*
X012436Y028745D03*
X014436Y028745D03*
X015436Y028745D03*
X015436Y029745D03*
X014436Y029745D03*
X016436Y029745D03*
X017436Y029745D03*
X017436Y028745D03*
X016436Y028745D03*
X018436Y028745D03*
X019436Y028745D03*
X019436Y029745D03*
X018436Y029745D03*
X020436Y029745D03*
X021436Y029745D03*
X021436Y028745D03*
X020436Y028745D03*
X022436Y028745D03*
X023436Y028745D03*
X023436Y029745D03*
X022436Y029745D03*
X024436Y029745D03*
X024436Y028745D03*
X025436Y028745D03*
X026436Y028745D03*
X026436Y029745D03*
X025436Y029745D03*
X027436Y029745D03*
X028436Y029745D03*
X028436Y028745D03*
X027436Y028745D03*
X029436Y028745D03*
X030436Y028745D03*
X030436Y029745D03*
X029436Y029745D03*
X031436Y029745D03*
X032436Y029745D03*
X032436Y028745D03*
X031436Y028745D03*
X031436Y010745D03*
X032436Y010745D03*
X032436Y009745D03*
X031436Y009745D03*
X030436Y009745D03*
X029436Y009745D03*
X029436Y010745D03*
X030436Y010745D03*
X028436Y010745D03*
X027436Y010745D03*
X027436Y009745D03*
X028436Y009745D03*
X026436Y009745D03*
X025436Y009745D03*
X025436Y010745D03*
X026436Y010745D03*
X024436Y010745D03*
X024436Y009745D03*
X023436Y009745D03*
X022436Y009745D03*
X022436Y010745D03*
X023436Y010745D03*
X021436Y010745D03*
X020436Y010745D03*
X020436Y009745D03*
X021436Y009745D03*
X019436Y009745D03*
X018436Y009745D03*
X018436Y010745D03*
X019436Y010745D03*
X017436Y010745D03*
X016436Y010745D03*
X016436Y009745D03*
X017436Y009745D03*
X015436Y009745D03*
X014436Y009745D03*
X014436Y010745D03*
X015436Y010745D03*
X013436Y010745D03*
X012436Y010745D03*
X012436Y009745D03*
X013436Y009745D03*
X011436Y009745D03*
X011436Y010745D03*
X010436Y010745D03*
D13*
X011570Y013935D02*
X011570Y014535D01*
X012570Y014535D02*
X012570Y013935D01*
X014444Y013935D02*
X014444Y014535D01*
X015444Y014535D02*
X015444Y013935D01*
X013550Y016238D02*
X013550Y016838D01*
X011770Y016838D02*
X011770Y016238D01*
X011770Y018798D02*
X011770Y019398D01*
X013550Y019398D02*
X013550Y018798D01*
X022261Y005716D02*
X022861Y005716D01*
X021149Y004932D02*
X020549Y004932D01*
X020549Y003932D02*
X021149Y003932D01*
X022261Y003936D02*
X022861Y003936D01*
X024821Y003936D02*
X025421Y003936D01*
X025421Y005716D02*
X024821Y005716D01*
X017782Y004299D02*
X017782Y003699D01*
X016782Y003699D02*
X016782Y004299D01*
X015782Y004299D02*
X015782Y003699D01*
X014782Y003699D02*
X014782Y004299D01*
X006743Y001622D02*
X006743Y001022D01*
X005743Y001022D02*
X005743Y001622D01*
X002373Y001622D02*
X002373Y001022D01*
X001373Y001022D02*
X001373Y001622D01*
X007184Y036179D02*
X007184Y036779D01*
X008184Y036779D02*
X008184Y036179D01*
X009184Y036179D02*
X009184Y036779D01*
X010184Y036779D02*
X010184Y036179D01*
X011908Y036179D02*
X011908Y036779D01*
X012908Y036779D02*
X012908Y036179D01*
X013908Y036179D02*
X013908Y036779D01*
X014908Y036779D02*
X014908Y036179D01*
D14*
X004432Y035981D02*
X004432Y036686D01*
X002463Y036686D02*
X002463Y035981D01*
X036768Y036125D02*
X037473Y036125D01*
X037473Y038093D02*
X036768Y038093D01*
X036768Y034156D02*
X037473Y034156D01*
X037473Y032188D02*
X036768Y032188D01*
X036768Y030219D02*
X037473Y030219D01*
X037473Y028251D02*
X036768Y028251D01*
X036729Y025928D02*
X037434Y025928D01*
X037434Y023960D02*
X036729Y023960D01*
X036729Y021991D02*
X037434Y021991D01*
X037434Y020023D02*
X036729Y020023D01*
X036729Y018054D02*
X037434Y018054D01*
X037434Y016086D02*
X036729Y016086D01*
X036768Y013763D02*
X037473Y013763D01*
X037473Y011794D02*
X036768Y011794D01*
X036768Y009826D02*
X037473Y009826D01*
X037473Y007857D02*
X036768Y007857D01*
X036768Y005889D02*
X037473Y005889D01*
X037473Y003920D02*
X036768Y003920D01*
M02*
