%
M48
M72
T01C0.0236
T02C0.0394
T03C0.0400
T04C0.0470
%
T01
X10928Y4904
X9668Y12463
X20416Y15141
X12030Y12621
X21086Y13251
X27739Y12463
X38526Y18960
X24117Y7700
X32778Y7739
X26952Y26558
X33881Y26912
X21322Y27227
X4550Y15849
X9353Y16164
X11243Y33487
X9314Y31834
X38487Y6873
X38487Y12739
X38408Y37109
X38645Y33211
X38566Y23054
X12936Y22582
X4432Y10023
X6164Y37897
X21007Y36755
X24274Y32070
X30731Y32542
X28645Y20534
X14826Y18251
X12542Y2503
X24314Y33605
X29629Y31007
X30849Y23605
X30613Y20534
X9708Y30141
X10810Y1282
X3487Y1715
X19983Y8723
X12030Y6282
X10023Y3054
X20456Y22742
X16416Y22501
X5392Y6663
X8093Y34668
X13015Y34708
X6519Y32188
X13093Y32188
X15810Y5652
X17857Y5652
X10219Y34708
X15141Y34629
X5456Y5298
X20967Y8133
X13605Y30928
X6400Y22424
X17149Y13369
X16322Y18330
X3054Y4117
X5416Y2503
X11952Y8841
X19078Y8605
X29196Y16715
X22286Y16026
X31007Y34511
X1912Y3999
X2345Y6991
X14471Y24235
X18526Y24235
X19432Y31282
X21204Y31282
X10495Y6834
X21834Y6952
X27660Y14235
X23920Y14235
X21282Y2030
X14393Y12503
X14432Y25377
X22660Y25377
X15456Y13093
X4708Y1322
X1361Y2542
X8763Y7621
X24511Y12306
X8723Y4865
X2660Y5849
X2778Y2463
X32660Y31834
X30574Y38093
X27109Y21991
X23369Y21991
X31952Y21991
X30928Y35849
X31676Y18015
X33133Y33841
X19393Y18841
T02
X10436Y28745
X10436Y29745
X11436Y28745
X11436Y29745
X12436Y28745
X12436Y29745
X13436Y28745
X13436Y29745
X14436Y28745
X14436Y29745
X15436Y28745
X15436Y29745
X16436Y28745
X16436Y29745
X17436Y28745
X17436Y29745
X18436Y28745
X18436Y29745
X19436Y28745
X19436Y29745
X20436Y28745
X20436Y29745
X21436Y28745
X21436Y29745
X22436Y28745
X22436Y29745
X23436Y28745
X23436Y29745
X24436Y28745
X24436Y29745
X25436Y28745
X25436Y29745
X26436Y28745
X26436Y29745
X27436Y28745
X27436Y29745
X28436Y28745
X28436Y29745
X29436Y28745
X29436Y29745
X30436Y28745
X30436Y29745
X31436Y28745
X31436Y29745
X32436Y28745
X32436Y29745
X10436Y9745
X10436Y10745
X11436Y9745
X11436Y10745
X12436Y9745
X12436Y10745
X13436Y9745
X13436Y10745
X14436Y9745
X14436Y10745
X15436Y9745
X15436Y10745
X16436Y9745
X16436Y10745
X17436Y9745
X17436Y10745
X18436Y9745
X18436Y10745
X19436Y9745
X19436Y10745
X20436Y9745
X20436Y10745
X21436Y9745
X21436Y10745
X22436Y9745
X22436Y10745
X23436Y9745
X23436Y10745
X24436Y9745
X24436Y10745
X25436Y9745
X25436Y10745
X26436Y9745
X26436Y10745
X27436Y9745
X27436Y10745
X28436Y9745
X28436Y10745
X29436Y9745
X29436Y10745
X30436Y9745
X30436Y10745
X31436Y9745
X31436Y10745
X32436Y9745
X32436Y10745
T03
X25121Y3936
X25121Y5716
X22561Y3936
X22561Y5716
X13550Y19098
X11770Y19098
X13550Y16538
X11770Y16538
X5743Y1322
X6743Y1322
X2373Y1322
X1373Y1322
X10184Y36479
X9184Y36479
X8184Y36479
X7184Y36479
X14908Y36479
X13908Y36479
X12908Y36479
X11908Y36479
X17782Y3999
X16782Y3999
X15782Y3999
X14782Y3999
X20849Y3932
X20849Y4932
X12570Y14235
X11570Y14235
X15444Y14235
X14444Y14235
X5704Y9708
X6704Y9708
T04
X37082Y25928
X37082Y23960
X37082Y21991
X37082Y20023
X37082Y18054
X37082Y16086
X37121Y38093
X37121Y36125
X37121Y34156
X37121Y32188
X37121Y30219
X37121Y28251
X37121Y13763
X37121Y11794
X37121Y9826
X37121Y7857
X37121Y5889
X37121Y3920
X2463Y36334
X4432Y36334
M30
