G75*
%MOIN*%
%OFA0B0*%
%FSLAX24Y24*%
%IPPOS*%
%LPD*%
%AMOC8*
5,1,8,0,0,1.08239X$1,22.5*
%
%ADD10C,0.0000*%
%ADD11R,0.0310X0.0350*%
%ADD12R,0.0472X0.0472*%
%ADD13R,0.0433X0.0394*%
%ADD14R,0.0394X0.0433*%
%ADD15R,0.0800X0.0260*%
%ADD16R,0.0425X0.0413*%
%ADD17R,0.0413X0.0425*%
D10*
X000180Y000180D02*
X000180Y039550D01*
X039550Y039550D01*
X039550Y000180D01*
X000180Y000180D01*
D11*
X003865Y003218D03*
X004625Y003218D03*
X004245Y002418D03*
X004245Y004386D03*
X003865Y005186D03*
X004625Y005186D03*
X006306Y006367D03*
X007066Y006367D03*
X006686Y005567D03*
X001397Y005698D03*
X000637Y005698D03*
X001017Y004898D03*
X001017Y006512D03*
X001397Y007312D03*
X000637Y007312D03*
D12*
X006322Y004845D03*
X006322Y004019D03*
X007483Y003645D03*
X008310Y003645D03*
X009412Y003645D03*
X010239Y003645D03*
X011814Y003645D03*
X012641Y003645D03*
D13*
X012778Y004334D03*
X012778Y005003D03*
X010889Y003389D03*
X010889Y002719D03*
X006322Y002523D03*
X006322Y003192D03*
D14*
X007562Y002463D03*
X008231Y002463D03*
X009334Y002463D03*
X010003Y002463D03*
X015121Y006794D03*
X015790Y006794D03*
X017129Y006834D03*
X017798Y006834D03*
X016105Y012149D03*
X015436Y012149D03*
X020121Y017700D03*
X020790Y017700D03*
X028231Y017582D03*
X028900Y017582D03*
X015160Y033251D03*
X014491Y033251D03*
X013074Y033290D03*
X012404Y033290D03*
X010200Y033330D03*
X009530Y033330D03*
X007995Y033290D03*
X007326Y033290D03*
X004215Y006282D03*
X003546Y006282D03*
X002995Y004983D03*
X002326Y004983D03*
X002444Y003290D03*
X003113Y003290D03*
D15*
X024206Y016593D03*
X024206Y017093D03*
X024206Y017593D03*
X024206Y018093D03*
X024206Y018593D03*
X024206Y019093D03*
X024206Y019593D03*
X026626Y019593D03*
X026626Y019093D03*
X026626Y018593D03*
X026626Y018093D03*
X026626Y017593D03*
X026626Y017093D03*
X026626Y016593D03*
X027238Y031830D03*
X027238Y032330D03*
X027238Y032830D03*
X027238Y033330D03*
X027238Y033830D03*
X027238Y034330D03*
X027238Y034830D03*
X029658Y034830D03*
X029658Y034330D03*
X029658Y033830D03*
X029658Y033330D03*
X029658Y032830D03*
X029658Y032330D03*
X029658Y031830D03*
D16*
X024156Y016036D03*
X024156Y015347D03*
D17*
X031883Y034826D03*
X032572Y034826D03*
M02*
