G75*
%MOIN*%
%OFA0B0*%
%FSLAX24Y24*%
%IPPOS*%
%LPD*%
%AMOC8*
5,1,8,0,0,1.08239X$1,22.5*
%
%ADD10C,0.0000*%
%ADD11R,0.0594X0.0594*%
%ADD12C,0.0594*%
%ADD13R,0.0310X0.0350*%
%ADD14R,0.0472X0.0472*%
%ADD15R,0.0433X0.0394*%
%ADD16R,0.0394X0.0433*%
%ADD17C,0.0600*%
%ADD18R,0.0800X0.0260*%
%ADD19R,0.0425X0.0413*%
%ADD20R,0.0413X0.0425*%
%ADD21C,0.0705*%
%ADD22C,0.0160*%
%ADD23OC8,0.0400*%
%ADD24C,0.0240*%
%ADD25C,0.0320*%
%ADD26C,0.0256*%
%ADD27C,0.0500*%
%ADD28C,0.0400*%
%ADD29C,0.0268*%
D10*
X000180Y000180D02*
X000180Y039550D01*
X039550Y039550D01*
X039550Y000180D01*
X000180Y000180D01*
D11*
X010436Y009745D03*
X010436Y028745D03*
D12*
X011436Y028745D03*
X011436Y029745D03*
X010436Y029745D03*
X012436Y029745D03*
X013436Y029745D03*
X013436Y028745D03*
X012436Y028745D03*
X014436Y028745D03*
X015436Y028745D03*
X015436Y029745D03*
X014436Y029745D03*
X016436Y029745D03*
X017436Y029745D03*
X017436Y028745D03*
X016436Y028745D03*
X018436Y028745D03*
X019436Y028745D03*
X019436Y029745D03*
X018436Y029745D03*
X020436Y029745D03*
X021436Y029745D03*
X021436Y028745D03*
X020436Y028745D03*
X022436Y028745D03*
X023436Y028745D03*
X023436Y029745D03*
X022436Y029745D03*
X024436Y029745D03*
X024436Y028745D03*
X025436Y028745D03*
X026436Y028745D03*
X026436Y029745D03*
X025436Y029745D03*
X027436Y029745D03*
X028436Y029745D03*
X028436Y028745D03*
X027436Y028745D03*
X029436Y028745D03*
X030436Y028745D03*
X030436Y029745D03*
X029436Y029745D03*
X031436Y029745D03*
X032436Y029745D03*
X032436Y028745D03*
X031436Y028745D03*
X031436Y010745D03*
X032436Y010745D03*
X032436Y009745D03*
X031436Y009745D03*
X030436Y009745D03*
X029436Y009745D03*
X029436Y010745D03*
X030436Y010745D03*
X028436Y010745D03*
X027436Y010745D03*
X027436Y009745D03*
X028436Y009745D03*
X026436Y009745D03*
X025436Y009745D03*
X025436Y010745D03*
X026436Y010745D03*
X024436Y010745D03*
X024436Y009745D03*
X023436Y009745D03*
X022436Y009745D03*
X022436Y010745D03*
X023436Y010745D03*
X021436Y010745D03*
X020436Y010745D03*
X020436Y009745D03*
X021436Y009745D03*
X019436Y009745D03*
X018436Y009745D03*
X018436Y010745D03*
X019436Y010745D03*
X017436Y010745D03*
X016436Y010745D03*
X016436Y009745D03*
X017436Y009745D03*
X015436Y009745D03*
X014436Y009745D03*
X014436Y010745D03*
X015436Y010745D03*
X013436Y010745D03*
X012436Y010745D03*
X012436Y009745D03*
X013436Y009745D03*
X011436Y009745D03*
X011436Y010745D03*
X010436Y010745D03*
D13*
X007066Y006367D03*
X006306Y006367D03*
X006686Y005567D03*
X004625Y005186D03*
X003865Y005186D03*
X004245Y004386D03*
X003865Y003218D03*
X004625Y003218D03*
X004245Y002418D03*
X001017Y004898D03*
X001397Y005698D03*
X000637Y005698D03*
X001017Y006512D03*
X001397Y007312D03*
X000637Y007312D03*
D14*
X006322Y004845D03*
X006322Y004019D03*
X007483Y003645D03*
X008310Y003645D03*
X009412Y003645D03*
X010239Y003645D03*
X011814Y003645D03*
X012641Y003645D03*
D15*
X012778Y004334D03*
X012778Y005003D03*
X010889Y003389D03*
X010889Y002719D03*
X006322Y002523D03*
X006322Y003192D03*
D16*
X007562Y002463D03*
X008231Y002463D03*
X009334Y002463D03*
X010003Y002463D03*
X015121Y006794D03*
X015790Y006794D03*
X017129Y006834D03*
X017798Y006834D03*
X016105Y012149D03*
X015436Y012149D03*
X020121Y017700D03*
X020790Y017700D03*
X028231Y017582D03*
X028900Y017582D03*
X015160Y033251D03*
X014491Y033251D03*
X013074Y033290D03*
X012404Y033290D03*
X010200Y033330D03*
X009530Y033330D03*
X007995Y033290D03*
X007326Y033290D03*
X004215Y006282D03*
X003546Y006282D03*
X002995Y004983D03*
X002326Y004983D03*
X002444Y003290D03*
X003113Y003290D03*
D17*
X002373Y001622D02*
X002373Y001022D01*
X001373Y001022D02*
X001373Y001622D01*
X005743Y001622D02*
X005743Y001022D01*
X006743Y001022D02*
X006743Y001622D01*
X014782Y003699D02*
X014782Y004299D01*
X015782Y004299D02*
X015782Y003699D01*
X016782Y003699D02*
X016782Y004299D01*
X017782Y004299D02*
X017782Y003699D01*
X020549Y003932D02*
X021149Y003932D01*
X021149Y004932D02*
X020549Y004932D01*
X022261Y005716D02*
X022861Y005716D01*
X022861Y003936D02*
X022261Y003936D01*
X024821Y003936D02*
X025421Y003936D01*
X025421Y005716D02*
X024821Y005716D01*
X015444Y013935D02*
X015444Y014535D01*
X014444Y014535D02*
X014444Y013935D01*
X012570Y013935D02*
X012570Y014535D01*
X011570Y014535D02*
X011570Y013935D01*
X011770Y016238D02*
X011770Y016838D01*
X013550Y016838D02*
X013550Y016238D01*
X013550Y018798D02*
X013550Y019398D01*
X011770Y019398D02*
X011770Y018798D01*
X011908Y036179D02*
X011908Y036779D01*
X012908Y036779D02*
X012908Y036179D01*
X013908Y036179D02*
X013908Y036779D01*
X014908Y036779D02*
X014908Y036179D01*
X010184Y036179D02*
X010184Y036779D01*
X009184Y036779D02*
X009184Y036179D01*
X008184Y036179D02*
X008184Y036779D01*
X007184Y036779D02*
X007184Y036179D01*
D18*
X024206Y019593D03*
X024206Y019093D03*
X024206Y018593D03*
X024206Y018093D03*
X024206Y017593D03*
X024206Y017093D03*
X024206Y016593D03*
X026626Y016593D03*
X026626Y017093D03*
X026626Y017593D03*
X026626Y018093D03*
X026626Y018593D03*
X026626Y019093D03*
X026626Y019593D03*
X027238Y031830D03*
X027238Y032330D03*
X027238Y032830D03*
X027238Y033330D03*
X027238Y033830D03*
X027238Y034330D03*
X027238Y034830D03*
X029658Y034830D03*
X029658Y034330D03*
X029658Y033830D03*
X029658Y033330D03*
X029658Y032830D03*
X029658Y032330D03*
X029658Y031830D03*
D19*
X024156Y016036D03*
X024156Y015347D03*
D20*
X031883Y034826D03*
X032572Y034826D03*
D21*
X036768Y034156D02*
X037473Y034156D01*
X037473Y032188D02*
X036768Y032188D01*
X036768Y030219D02*
X037473Y030219D01*
X037473Y028251D02*
X036768Y028251D01*
X036729Y025928D02*
X037434Y025928D01*
X037434Y023960D02*
X036729Y023960D01*
X036729Y021991D02*
X037434Y021991D01*
X037434Y020023D02*
X036729Y020023D01*
X036729Y018054D02*
X037434Y018054D01*
X037434Y016086D02*
X036729Y016086D01*
X036768Y013763D02*
X037473Y013763D01*
X037473Y011794D02*
X036768Y011794D01*
X036768Y009826D02*
X037473Y009826D01*
X037473Y007857D02*
X036768Y007857D01*
X036768Y005889D02*
X037473Y005889D01*
X037473Y003920D02*
X036768Y003920D01*
X036768Y036125D02*
X037473Y036125D01*
X037473Y038093D02*
X036768Y038093D01*
X004432Y036686D02*
X004432Y035981D01*
X002463Y035981D02*
X002463Y036686D01*
D22*
X002050Y037111D02*
X000420Y037111D01*
X000420Y037269D02*
X002323Y037269D01*
X002346Y037279D02*
X002128Y037188D01*
X001961Y037022D01*
X001871Y036804D01*
X001871Y035863D01*
X001961Y035645D01*
X002128Y035479D01*
X002346Y035389D01*
X002581Y035389D01*
X002799Y035479D01*
X002966Y035645D01*
X003056Y035863D01*
X003056Y036804D01*
X002966Y037022D01*
X002799Y037188D01*
X002581Y037279D01*
X002346Y037279D01*
X002604Y037269D02*
X007955Y037269D01*
X007878Y037237D02*
X008077Y037319D01*
X008291Y037319D01*
X008490Y037237D01*
X008642Y037085D01*
X008718Y036900D01*
X008739Y036963D01*
X008773Y037031D01*
X008818Y037092D01*
X008871Y037145D01*
X008932Y037190D01*
X009000Y037224D01*
X009072Y037247D01*
X009146Y037259D01*
X009164Y037259D01*
X009164Y036499D01*
X009204Y036499D01*
X009204Y037259D01*
X009222Y037259D01*
X009296Y037247D01*
X009368Y037224D01*
X009436Y037190D01*
X009497Y037145D01*
X009550Y037092D01*
X009594Y037031D01*
X009629Y036963D01*
X009649Y036900D01*
X009726Y037085D01*
X009878Y037237D01*
X010077Y037319D01*
X010291Y037319D01*
X010490Y037237D01*
X010642Y037085D01*
X010724Y036887D01*
X010724Y036072D01*
X010642Y035873D01*
X010623Y035855D01*
X011236Y035855D01*
X011368Y035800D01*
X011469Y035699D01*
X011794Y035374D01*
X012141Y035721D01*
X012274Y035776D01*
X012548Y035776D01*
X012451Y035873D01*
X012374Y036059D01*
X012353Y035995D01*
X012319Y035928D01*
X012274Y035867D01*
X012221Y035813D01*
X012160Y035769D01*
X012093Y035734D01*
X012021Y035711D01*
X011946Y035699D01*
X011928Y035699D01*
X011928Y036459D01*
X011888Y036459D01*
X011428Y036459D01*
X011428Y036141D01*
X011440Y036067D01*
X011464Y035995D01*
X011498Y035928D01*
X011542Y035867D01*
X011596Y035813D01*
X011657Y035769D01*
X011724Y035734D01*
X011796Y035711D01*
X011871Y035699D01*
X011888Y035699D01*
X011888Y036459D01*
X011888Y036499D01*
X011428Y036499D01*
X011428Y036817D01*
X011440Y036892D01*
X011464Y036963D01*
X011498Y037031D01*
X011542Y037092D01*
X011596Y037145D01*
X011657Y037190D01*
X011724Y037224D01*
X011796Y037247D01*
X011871Y037259D01*
X011888Y037259D01*
X011888Y036499D01*
X011928Y036499D01*
X011928Y037259D01*
X011946Y037259D01*
X012021Y037247D01*
X012093Y037224D01*
X012160Y037190D01*
X012221Y037145D01*
X012274Y037092D01*
X012319Y037031D01*
X012353Y036963D01*
X012374Y036900D01*
X012451Y037085D01*
X012602Y037237D01*
X012801Y037319D01*
X013016Y037319D01*
X013214Y037237D01*
X013366Y037085D01*
X013443Y036900D01*
X013464Y036963D01*
X013498Y037031D01*
X013542Y037092D01*
X013596Y037145D01*
X013657Y037190D01*
X013724Y037224D01*
X013796Y037247D01*
X013871Y037259D01*
X013888Y037259D01*
X013888Y036499D01*
X013928Y036499D01*
X013928Y037259D01*
X013946Y037259D01*
X014021Y037247D01*
X014093Y037224D01*
X014160Y037190D01*
X014221Y037145D01*
X014274Y037092D01*
X014319Y037031D01*
X014353Y036963D01*
X014374Y036900D01*
X014451Y037085D01*
X014602Y037237D01*
X014801Y037319D01*
X015016Y037319D01*
X015214Y037237D01*
X015366Y037085D01*
X015448Y036887D01*
X015448Y036072D01*
X015366Y035873D01*
X015214Y035721D01*
X015016Y035639D01*
X014801Y035639D01*
X014602Y035721D01*
X014451Y035873D01*
X014374Y036059D01*
X014353Y035995D01*
X014319Y035928D01*
X014274Y035867D01*
X014221Y035813D01*
X014160Y035769D01*
X014093Y035734D01*
X014047Y035720D01*
X014147Y035620D01*
X014501Y035266D01*
X014556Y035133D01*
X014556Y034305D01*
X014760Y034101D01*
X014760Y034387D01*
X014701Y034447D01*
X014701Y034811D01*
X014958Y035069D01*
X015323Y035069D01*
X015581Y034811D01*
X015581Y034447D01*
X015560Y034426D01*
X015560Y033604D01*
X015561Y033603D01*
X015597Y033515D01*
X015597Y032987D01*
X015561Y032898D01*
X015541Y032878D01*
X015541Y032562D01*
X017614Y034635D01*
X017746Y034690D01*
X026658Y034690D01*
X026658Y034830D01*
X027238Y034830D01*
X027238Y034830D01*
X027238Y035140D01*
X027576Y035140D01*
X027576Y035488D01*
X027631Y035620D01*
X027732Y035721D01*
X030134Y038123D01*
X030134Y038276D01*
X030391Y038533D01*
X030756Y038533D01*
X031014Y038276D01*
X031014Y037911D01*
X030756Y037653D01*
X030682Y037653D01*
X029238Y036209D01*
X030666Y036209D01*
X030746Y036289D01*
X031110Y036289D01*
X031368Y036032D01*
X031368Y035667D01*
X031110Y035409D01*
X030746Y035409D01*
X030666Y035489D01*
X029305Y035489D01*
X028808Y034992D01*
X028808Y034041D01*
X028901Y034135D01*
X029034Y034190D01*
X029078Y034190D01*
X029078Y034330D01*
X029658Y034330D01*
X030238Y034330D01*
X030238Y034470D01*
X030567Y034470D01*
X030567Y034328D01*
X030825Y034071D01*
X031189Y034071D01*
X031447Y034328D01*
X031447Y034470D01*
X031480Y034470D01*
X031540Y034410D01*
X031628Y034373D01*
X032137Y034373D01*
X032225Y034410D01*
X032274Y034458D01*
X032296Y034445D01*
X032341Y034433D01*
X032548Y034433D01*
X032548Y034802D01*
X032595Y034802D01*
X032595Y034433D01*
X032802Y034433D01*
X032848Y034445D01*
X032889Y034469D01*
X032922Y034503D01*
X032946Y034544D01*
X032958Y034589D01*
X032958Y034802D01*
X032595Y034802D01*
X032595Y034849D01*
X032548Y034849D01*
X032548Y035218D01*
X032341Y035218D01*
X032296Y035206D01*
X032274Y035193D01*
X032225Y035242D01*
X032137Y035278D01*
X031628Y035278D01*
X031540Y035242D01*
X031488Y035190D01*
X030130Y035190D01*
X030105Y035200D01*
X029210Y035200D01*
X029122Y035163D01*
X029054Y035096D01*
X029018Y035007D01*
X029018Y034652D01*
X029054Y034564D01*
X029090Y034528D01*
X029078Y034483D01*
X029078Y034330D01*
X029658Y034330D01*
X029658Y034330D01*
X030238Y034330D01*
X030238Y034176D01*
X030226Y034131D01*
X030261Y034096D01*
X030298Y034007D01*
X030298Y033690D01*
X030976Y033690D01*
X031371Y034085D01*
X031472Y034186D01*
X031604Y034241D01*
X032910Y034241D01*
X032951Y034281D01*
X033315Y034281D01*
X033573Y034024D01*
X033573Y033659D01*
X033315Y033401D01*
X032951Y033401D01*
X032831Y033521D01*
X031825Y033521D01*
X031329Y033024D01*
X031196Y032970D01*
X030238Y032970D01*
X030238Y032830D01*
X029658Y032830D01*
X029658Y032830D01*
X030238Y032830D01*
X030238Y032676D01*
X030226Y032631D01*
X030261Y032596D01*
X030298Y032507D01*
X030298Y032194D01*
X032398Y032194D01*
X032478Y032274D01*
X032843Y032274D01*
X033100Y032016D01*
X033100Y031651D01*
X032843Y031394D01*
X032478Y031394D01*
X032398Y031474D01*
X030344Y031474D01*
X030334Y031470D01*
X030130Y031470D01*
X030105Y031460D01*
X029241Y031460D01*
X029241Y031329D01*
X029186Y031197D01*
X028595Y030606D01*
X028494Y030505D01*
X028362Y030450D01*
X021786Y030450D01*
X021604Y030269D01*
X021590Y030262D01*
X021740Y030200D01*
X021891Y030049D01*
X021936Y029941D01*
X021981Y030049D01*
X022132Y030200D01*
X022329Y030282D01*
X022543Y030282D01*
X022740Y030200D01*
X022891Y030049D01*
X022936Y029941D01*
X022981Y030049D01*
X023132Y030200D01*
X023329Y030282D01*
X023543Y030282D01*
X023740Y030200D01*
X023891Y030049D01*
X023936Y029941D01*
X023981Y030049D01*
X024132Y030200D01*
X024329Y030282D01*
X024543Y030282D01*
X024740Y030200D01*
X024891Y030049D01*
X024936Y029941D01*
X024981Y030049D01*
X025132Y030200D01*
X025329Y030282D01*
X025543Y030282D01*
X025740Y030200D01*
X025891Y030049D01*
X025936Y029941D01*
X025981Y030049D01*
X026132Y030200D01*
X026329Y030282D01*
X026543Y030282D01*
X026740Y030200D01*
X026891Y030049D01*
X026936Y029941D01*
X026981Y030049D01*
X027132Y030200D01*
X027329Y030282D01*
X027543Y030282D01*
X027740Y030200D01*
X027891Y030049D01*
X027936Y029941D01*
X027981Y030049D01*
X028132Y030200D01*
X028329Y030282D01*
X028543Y030282D01*
X028740Y030200D01*
X028891Y030049D01*
X028936Y029941D01*
X028981Y030049D01*
X029132Y030200D01*
X029329Y030282D01*
X029543Y030282D01*
X029740Y030200D01*
X029891Y030049D01*
X029936Y029941D01*
X029981Y030049D01*
X030132Y030200D01*
X030329Y030282D01*
X030543Y030282D01*
X030740Y030200D01*
X030891Y030049D01*
X030936Y029941D01*
X030981Y030049D01*
X031132Y030200D01*
X031329Y030282D01*
X031543Y030282D01*
X031740Y030200D01*
X031891Y030049D01*
X031936Y029941D01*
X031981Y030049D01*
X032132Y030200D01*
X032329Y030282D01*
X032543Y030282D01*
X032740Y030200D01*
X032891Y030049D01*
X032973Y029852D01*
X032973Y029638D01*
X032891Y029441D01*
X032740Y029290D01*
X032632Y029245D01*
X032740Y029200D01*
X032891Y029049D01*
X032973Y028852D01*
X032973Y028638D01*
X032891Y028441D01*
X032740Y028290D01*
X032543Y028208D01*
X032329Y028208D01*
X032132Y028290D01*
X031981Y028441D01*
X031936Y028549D01*
X031891Y028441D01*
X031740Y028290D01*
X031543Y028208D01*
X031329Y028208D01*
X031132Y028290D01*
X030981Y028441D01*
X030936Y028549D01*
X030891Y028441D01*
X030740Y028290D01*
X030543Y028208D01*
X030329Y028208D01*
X030132Y028290D01*
X029981Y028441D01*
X029936Y028549D01*
X029891Y028441D01*
X029740Y028290D01*
X029543Y028208D01*
X029329Y028208D01*
X029132Y028290D01*
X028981Y028441D01*
X028936Y028549D01*
X028891Y028441D01*
X028740Y028290D01*
X028543Y028208D01*
X028329Y028208D01*
X028132Y028290D01*
X027981Y028441D01*
X027936Y028549D01*
X027891Y028441D01*
X027740Y028290D01*
X027543Y028208D01*
X027329Y028208D01*
X027132Y028290D01*
X026981Y028441D01*
X026936Y028549D01*
X026891Y028441D01*
X026740Y028290D01*
X026543Y028208D01*
X026329Y028208D01*
X026132Y028290D01*
X025981Y028441D01*
X025936Y028549D01*
X025891Y028441D01*
X025740Y028290D01*
X025543Y028208D01*
X025329Y028208D01*
X025132Y028290D01*
X024981Y028441D01*
X024936Y028549D01*
X024891Y028441D01*
X024740Y028290D01*
X024543Y028208D01*
X024329Y028208D01*
X024132Y028290D01*
X023981Y028441D01*
X023936Y028549D01*
X023891Y028441D01*
X023740Y028290D01*
X023543Y028208D01*
X023329Y028208D01*
X023218Y028254D01*
X023207Y028227D01*
X023117Y028137D01*
X022980Y028000D01*
X022980Y025679D01*
X023100Y025559D01*
X023100Y025195D01*
X022843Y024937D01*
X022478Y024937D01*
X022220Y025195D01*
X022220Y025559D01*
X022340Y025679D01*
X022340Y028196D01*
X022345Y028208D01*
X022329Y028208D01*
X022132Y028290D01*
X021981Y028441D01*
X021936Y028549D01*
X021891Y028441D01*
X021740Y028290D01*
X021543Y028208D01*
X021329Y028208D01*
X021132Y028290D01*
X020981Y028441D01*
X020936Y028549D01*
X020891Y028441D01*
X020740Y028290D01*
X020543Y028208D01*
X020329Y028208D01*
X020132Y028290D01*
X019981Y028441D01*
X019936Y028549D01*
X019891Y028441D01*
X019804Y028354D01*
X019804Y027336D01*
X025467Y021673D01*
X025467Y021673D01*
X025571Y021570D01*
X025627Y021434D01*
X025627Y019348D01*
X025986Y018989D01*
X025986Y019271D01*
X026023Y019359D01*
X026058Y019395D01*
X026046Y019440D01*
X026046Y019593D01*
X026626Y019593D01*
X026626Y019593D01*
X026046Y019593D01*
X026046Y019747D01*
X026058Y019793D01*
X026082Y019834D01*
X026116Y019867D01*
X026157Y019891D01*
X026203Y019903D01*
X026626Y019903D01*
X026626Y019593D01*
X026626Y019593D01*
X027206Y019593D01*
X027206Y019461D01*
X030395Y019461D01*
X030530Y019405D01*
X031487Y018448D01*
X031494Y018455D01*
X031858Y018455D01*
X032116Y018197D01*
X032116Y017832D01*
X031858Y017575D01*
X031494Y017575D01*
X031414Y017655D01*
X031329Y017655D01*
X031197Y017709D01*
X031172Y017734D01*
X031153Y017742D01*
X030169Y018725D01*
X027266Y018725D01*
X027266Y018416D01*
X027230Y018327D01*
X027194Y018292D01*
X027206Y018247D01*
X027206Y018093D01*
X026626Y018093D01*
X026046Y018093D01*
X026046Y017940D01*
X026058Y017895D01*
X026023Y017859D01*
X025986Y017771D01*
X025986Y017416D01*
X026016Y017343D01*
X025986Y017271D01*
X025986Y016916D01*
X026023Y016827D01*
X026058Y016792D01*
X026046Y016747D01*
X026046Y016593D01*
X026046Y016440D01*
X026058Y016394D01*
X026082Y016353D01*
X026116Y016319D01*
X026157Y016296D01*
X026203Y016283D01*
X026626Y016283D01*
X026626Y016593D01*
X026626Y016593D01*
X026046Y016593D01*
X026626Y016593D01*
X026626Y016593D01*
X026626Y016283D01*
X027050Y016283D01*
X027096Y016296D01*
X027137Y016319D01*
X027170Y016353D01*
X027194Y016394D01*
X027206Y016440D01*
X027206Y016593D01*
X026626Y016593D01*
X026626Y016593D01*
X027206Y016593D01*
X027206Y016720D01*
X027286Y016720D01*
X027286Y014484D01*
X027220Y014417D01*
X027220Y014053D01*
X027478Y013795D01*
X027843Y013795D01*
X028100Y014053D01*
X028100Y014417D01*
X028034Y014484D01*
X028034Y015237D01*
X028042Y015234D01*
X029678Y013598D01*
X029779Y013497D01*
X029912Y013442D01*
X033088Y013442D01*
X033088Y010069D01*
X033143Y009937D01*
X033244Y009835D01*
X033254Y009826D01*
X033143Y009715D01*
X033088Y009582D01*
X033088Y006093D01*
X033143Y005960D01*
X033244Y005859D01*
X033519Y005583D01*
X033652Y005529D01*
X036291Y005529D01*
X036433Y005386D01*
X036651Y005296D01*
X037591Y005296D01*
X037809Y005386D01*
X037976Y005553D01*
X038066Y005771D01*
X038066Y006007D01*
X037976Y006224D01*
X037809Y006391D01*
X037591Y006481D01*
X036651Y006481D01*
X036433Y006391D01*
X036291Y006249D01*
X033872Y006249D01*
X033808Y006313D01*
X033808Y009362D01*
X033912Y009466D01*
X036291Y009466D01*
X036433Y009323D01*
X036651Y009233D01*
X037591Y009233D01*
X037809Y009323D01*
X037976Y009490D01*
X038066Y009708D01*
X038066Y009944D01*
X037976Y010161D01*
X037809Y010328D01*
X037591Y010418D01*
X036651Y010418D01*
X036433Y010328D01*
X036291Y010186D01*
X033912Y010186D01*
X033808Y010290D01*
X033808Y013442D01*
X036260Y013442D01*
X036266Y013427D01*
X036433Y013260D01*
X036651Y013170D01*
X037591Y013170D01*
X037809Y013260D01*
X037976Y013427D01*
X038066Y013645D01*
X038066Y013881D01*
X037976Y014098D01*
X037809Y014265D01*
X037591Y014355D01*
X036651Y014355D01*
X036433Y014265D01*
X036330Y014162D01*
X030132Y014162D01*
X028599Y015695D01*
X028599Y016803D01*
X028756Y016646D01*
X028756Y016533D01*
X029013Y016275D01*
X029378Y016275D01*
X029636Y016533D01*
X029636Y016898D01*
X029378Y017155D01*
X029265Y017155D01*
X029260Y017160D01*
X029260Y017189D01*
X029301Y017229D01*
X029337Y017317D01*
X029337Y017846D01*
X029301Y017934D01*
X029233Y018002D01*
X029145Y018038D01*
X028656Y018038D01*
X028568Y018002D01*
X028566Y018000D01*
X028564Y018002D01*
X028476Y018038D01*
X027987Y018038D01*
X027898Y018002D01*
X027858Y017961D01*
X027206Y017961D01*
X027206Y018093D01*
X026626Y018093D01*
X026626Y018093D01*
X026046Y018093D01*
X026046Y018225D01*
X025788Y018225D01*
X025754Y018239D01*
X025784Y018167D01*
X025784Y014717D01*
X025790Y014703D01*
X025790Y013137D01*
X025733Y013000D01*
X024951Y012217D01*
X024951Y012124D01*
X024693Y011866D01*
X024328Y011866D01*
X024071Y012124D01*
X024071Y012488D01*
X024328Y012746D01*
X024422Y012746D01*
X025042Y013366D01*
X025042Y014703D01*
X025048Y014717D01*
X025048Y017941D01*
X024846Y018143D01*
X024846Y017916D01*
X024816Y017843D01*
X024846Y017771D01*
X024846Y017416D01*
X024810Y017327D01*
X024774Y017292D01*
X024786Y017247D01*
X024786Y017093D01*
X024206Y017093D01*
X023626Y017093D01*
X023626Y016965D01*
X022784Y016965D01*
X022649Y016909D01*
X022206Y016466D01*
X022104Y016466D01*
X022004Y016367D01*
X014518Y016367D01*
X014386Y016312D01*
X014010Y015936D01*
X014090Y016130D01*
X014090Y016945D01*
X014008Y017144D01*
X013856Y017296D01*
X013658Y017378D01*
X013443Y017378D01*
X013244Y017296D01*
X013093Y017144D01*
X013010Y016945D01*
X013010Y016130D01*
X013093Y015932D01*
X013244Y015780D01*
X013443Y015698D01*
X013658Y015698D01*
X013852Y015778D01*
X013143Y015069D01*
X013088Y014937D01*
X013088Y014696D01*
X013028Y014841D01*
X012876Y014993D01*
X012677Y015075D01*
X012462Y015075D01*
X012264Y014993D01*
X012112Y014841D01*
X012035Y014656D01*
X012015Y014719D01*
X011980Y014787D01*
X011936Y014848D01*
X011882Y014901D01*
X011821Y014946D01*
X011754Y014980D01*
X011682Y015003D01*
X011608Y015015D01*
X011590Y015015D01*
X011590Y014255D01*
X011550Y014255D01*
X011550Y015015D01*
X011532Y015015D01*
X011457Y015003D01*
X011386Y014980D01*
X011318Y014946D01*
X011257Y014901D01*
X011204Y014848D01*
X011159Y014787D01*
X011125Y014719D01*
X011102Y014648D01*
X011090Y014573D01*
X011090Y014255D01*
X011550Y014255D01*
X011550Y014215D01*
X011590Y014215D01*
X011590Y013455D01*
X011608Y013455D01*
X011682Y013467D01*
X011754Y013490D01*
X011821Y013525D01*
X011882Y013569D01*
X011936Y013622D01*
X011980Y013684D01*
X012015Y013751D01*
X012035Y013814D01*
X012112Y013629D01*
X012264Y013477D01*
X012462Y013395D01*
X012677Y013395D01*
X012876Y013477D01*
X013028Y013629D01*
X013088Y013774D01*
X013088Y011156D01*
X012981Y011049D01*
X012936Y010941D01*
X012891Y011049D01*
X012740Y011200D01*
X012543Y011282D01*
X012329Y011282D01*
X012132Y011200D01*
X011981Y011049D01*
X011936Y010941D01*
X011891Y011049D01*
X011800Y011140D01*
X011800Y011905D01*
X011745Y012037D01*
X011644Y012139D01*
X006760Y017022D01*
X006760Y019977D01*
X014204Y019977D01*
X015882Y018300D01*
X015882Y018147D01*
X016139Y017890D01*
X016504Y017890D01*
X016762Y018147D01*
X016762Y018512D01*
X016504Y018770D01*
X016430Y018770D01*
X014726Y020474D01*
X014698Y020541D01*
X014597Y020643D01*
X014464Y020697D01*
X006943Y020697D01*
X006760Y020880D01*
X006760Y022162D01*
X006840Y022242D01*
X006840Y022606D01*
X006583Y022864D01*
X006218Y022864D01*
X005960Y022606D01*
X005960Y022242D01*
X006040Y022162D01*
X006040Y016801D01*
X006095Y016669D01*
X011080Y011684D01*
X011080Y011148D01*
X010981Y011049D01*
X010901Y010857D01*
X010878Y010928D01*
X010844Y010995D01*
X010800Y011056D01*
X010747Y011109D01*
X010686Y011153D01*
X010619Y011187D01*
X010548Y011210D01*
X010473Y011222D01*
X010454Y011222D01*
X010454Y010763D01*
X010417Y010763D01*
X010417Y010727D01*
X009959Y010727D01*
X009959Y010707D01*
X009971Y010633D01*
X009994Y010562D01*
X010028Y010495D01*
X010072Y010434D01*
X010125Y010381D01*
X010186Y010337D01*
X010253Y010303D01*
X010324Y010280D01*
X010398Y010268D01*
X010417Y010268D01*
X010417Y010727D01*
X010454Y010727D01*
X010454Y010268D01*
X010473Y010268D01*
X010548Y010280D01*
X010619Y010303D01*
X010686Y010337D01*
X010747Y010381D01*
X010800Y010434D01*
X010844Y010495D01*
X010878Y010562D01*
X010901Y010633D01*
X010901Y010633D01*
X010981Y010441D01*
X011036Y010386D01*
X011036Y010104D01*
X010981Y010049D01*
X010913Y009885D01*
X010913Y010066D01*
X010900Y010111D01*
X010877Y010152D01*
X010843Y010186D01*
X010802Y010210D01*
X010756Y010222D01*
X010454Y010222D01*
X010454Y009763D01*
X010417Y009763D01*
X010417Y009727D01*
X009959Y009727D01*
X009959Y009424D01*
X009971Y009379D01*
X009995Y009338D01*
X010029Y009304D01*
X010070Y009280D01*
X010115Y009268D01*
X010417Y009268D01*
X010417Y009727D01*
X010454Y009727D01*
X010454Y009268D01*
X010756Y009268D01*
X010802Y009280D01*
X010843Y009304D01*
X010877Y009338D01*
X010900Y009379D01*
X010913Y009424D01*
X010913Y009605D01*
X010981Y009441D01*
X010996Y009426D01*
X010996Y009270D01*
X011063Y009108D01*
X011639Y008532D01*
X004754Y008532D01*
X004622Y008477D01*
X003416Y007272D01*
X003397Y007264D01*
X003293Y007160D01*
X003237Y007025D01*
X003237Y006712D01*
X003213Y006702D01*
X003146Y006635D01*
X003109Y006547D01*
X003109Y006020D01*
X003100Y006020D01*
X003100Y006032D01*
X003087Y006045D01*
X003084Y006053D01*
X002982Y006154D01*
X002974Y006158D01*
X002843Y006289D01*
X002478Y006289D01*
X002220Y006032D01*
X002220Y005667D01*
X002448Y005440D01*
X002164Y005440D01*
X001792Y005812D01*
X001792Y005921D01*
X001757Y006005D01*
X001757Y006204D01*
X001702Y006336D01*
X001412Y006626D01*
X001412Y006735D01*
X001375Y006823D01*
X001308Y006891D01*
X001292Y006897D01*
X001600Y006897D01*
X001688Y006934D01*
X001755Y007001D01*
X001792Y007090D01*
X001792Y007535D01*
X001757Y007620D01*
X001757Y023610D01*
X003164Y025017D01*
X014148Y025017D01*
X014166Y024998D01*
X014204Y024983D01*
X014250Y024937D01*
X014614Y024937D01*
X014872Y025195D01*
X014872Y025559D01*
X014614Y025817D01*
X014250Y025817D01*
X014170Y025737D01*
X002943Y025737D01*
X002811Y025682D01*
X002709Y025581D01*
X001092Y023963D01*
X001037Y023831D01*
X001037Y007620D01*
X001002Y007535D01*
X001002Y007090D01*
X001038Y007001D01*
X001106Y006934D01*
X001122Y006927D01*
X000814Y006927D01*
X000726Y006891D01*
X000658Y006823D01*
X000622Y006735D01*
X000622Y006290D01*
X000658Y006201D01*
X000726Y006134D01*
X000814Y006097D01*
X000923Y006097D01*
X001030Y005990D01*
X001002Y005921D01*
X001002Y005475D01*
X001038Y005387D01*
X001106Y005320D01*
X001122Y005313D01*
X000814Y005313D01*
X000726Y005277D01*
X000658Y005209D01*
X000622Y005121D01*
X000622Y004675D01*
X000657Y004591D01*
X000657Y002815D01*
X000712Y002683D01*
X000921Y002473D01*
X000921Y002360D01*
X001162Y002119D01*
X001067Y002080D01*
X000915Y001928D01*
X000833Y001729D01*
X000833Y000914D01*
X000915Y000716D01*
X001067Y000564D01*
X001265Y000482D01*
X001480Y000482D01*
X001679Y000564D01*
X001831Y000716D01*
X001873Y000818D01*
X001915Y000716D01*
X002067Y000564D01*
X002265Y000482D01*
X002480Y000482D01*
X002679Y000564D01*
X002831Y000716D01*
X002913Y000914D01*
X002913Y001729D01*
X002831Y001928D01*
X002735Y002023D01*
X002961Y002023D01*
X003218Y002281D01*
X003218Y002394D01*
X003418Y002594D01*
X003473Y002727D01*
X003473Y002897D01*
X003500Y002924D01*
X003507Y002907D01*
X003574Y002839D01*
X003662Y002803D01*
X003970Y002803D01*
X003954Y002796D01*
X003887Y002729D01*
X003850Y002641D01*
X003850Y002195D01*
X003885Y002111D01*
X003885Y001713D01*
X003940Y001580D01*
X004041Y001479D01*
X004041Y001479D01*
X004268Y001253D01*
X004268Y001139D01*
X004525Y000882D01*
X004890Y000882D01*
X005148Y001139D01*
X005148Y001504D01*
X004890Y001762D01*
X004777Y001762D01*
X004605Y001933D01*
X004605Y002111D01*
X004640Y002195D01*
X004640Y002641D01*
X004604Y002729D01*
X004536Y002796D01*
X004520Y002803D01*
X004828Y002803D01*
X004916Y002839D01*
X004984Y002907D01*
X005020Y002995D01*
X005020Y003092D01*
X005098Y003171D01*
X005154Y003306D01*
X005154Y004746D01*
X005270Y004862D01*
X005273Y004858D01*
X005638Y004858D01*
X005846Y005066D01*
X005846Y004561D01*
X005882Y004473D01*
X005923Y004432D01*
X005882Y004391D01*
X005846Y004303D01*
X005846Y003735D01*
X005882Y003646D01*
X005950Y003579D01*
X005954Y003577D01*
X005954Y003577D01*
X005902Y003525D01*
X005865Y003436D01*
X005865Y002947D01*
X005897Y002871D01*
X005671Y002871D01*
X005598Y002943D01*
X005234Y002943D01*
X004976Y002685D01*
X004976Y002321D01*
X005234Y002063D01*
X005420Y002063D01*
X005285Y001928D01*
X005203Y001729D01*
X005203Y000914D01*
X005285Y000716D01*
X005437Y000564D01*
X005636Y000482D01*
X005850Y000482D01*
X006049Y000564D01*
X006201Y000716D01*
X006277Y000901D01*
X006298Y000837D01*
X006332Y000770D01*
X006377Y000709D01*
X006430Y000656D01*
X006491Y000611D01*
X006559Y000577D01*
X006631Y000554D01*
X006705Y000542D01*
X006723Y000542D01*
X006723Y001302D01*
X006763Y001302D01*
X006763Y001342D01*
X006723Y001342D01*
X006723Y002102D01*
X006705Y002102D01*
X006631Y002090D01*
X006559Y002067D01*
X006491Y002032D01*
X006430Y001988D01*
X006377Y001934D01*
X006332Y001873D01*
X006298Y001806D01*
X006277Y001742D01*
X006201Y001928D01*
X006049Y002080D01*
X005915Y002135D01*
X005957Y002135D01*
X005969Y002122D01*
X006057Y002086D01*
X006586Y002086D01*
X006674Y002122D01*
X006675Y002123D01*
X007157Y002123D01*
X007162Y002111D01*
X007182Y002091D01*
X007182Y001951D01*
X007242Y001804D01*
X007355Y001691D01*
X007631Y001416D01*
X007778Y001355D01*
X009866Y001355D01*
X010013Y001416D01*
X010125Y001528D01*
X010342Y001745D01*
X010403Y001892D01*
X010403Y002103D01*
X010704Y002103D01*
X010837Y002158D01*
X010839Y002161D01*
X012456Y000544D01*
X012589Y000489D01*
X021826Y000489D01*
X021959Y000544D01*
X022549Y001135D01*
X022651Y001236D01*
X022705Y001368D01*
X022705Y002299D01*
X022651Y002431D01*
X022021Y003061D01*
X021919Y003162D01*
X021787Y003217D01*
X020526Y003217D01*
X020287Y003456D01*
X020442Y003392D01*
X021257Y003392D01*
X021455Y003474D01*
X021607Y003626D01*
X021689Y003825D01*
X021689Y004039D01*
X021607Y004238D01*
X021455Y004390D01*
X021270Y004466D01*
X021334Y004487D01*
X021401Y004521D01*
X021462Y004566D01*
X021515Y004619D01*
X021560Y004680D01*
X021594Y004748D01*
X021617Y004820D01*
X021629Y004894D01*
X021629Y004912D01*
X020869Y004912D01*
X020869Y004952D01*
X020829Y004952D01*
X020829Y004912D01*
X020069Y004912D01*
X020069Y004894D01*
X020081Y004820D01*
X020104Y004748D01*
X020139Y004680D01*
X020183Y004619D01*
X020237Y004566D01*
X020298Y004521D01*
X020365Y004487D01*
X020429Y004466D01*
X020243Y004390D01*
X020092Y004238D01*
X020068Y004180D01*
X020068Y004740D01*
X020013Y004872D01*
X019580Y005305D01*
X019438Y005447D01*
X019438Y008343D01*
X019518Y008423D01*
X019518Y008787D01*
X019260Y009045D01*
X018895Y009045D01*
X018638Y008787D01*
X018638Y008423D01*
X018718Y008343D01*
X018718Y005461D01*
X018288Y005461D01*
X018297Y005470D01*
X018297Y005835D01*
X018222Y005910D01*
X018222Y006537D01*
X018235Y006569D01*
X018235Y007098D01*
X018198Y007186D01*
X018198Y007838D01*
X018137Y007985D01*
X016840Y009283D01*
X016840Y009390D01*
X016891Y009441D01*
X016936Y009549D01*
X016981Y009441D01*
X017132Y009290D01*
X017329Y009208D01*
X017543Y009208D01*
X017740Y009290D01*
X017891Y009441D01*
X017936Y009549D01*
X017981Y009441D01*
X018132Y009290D01*
X018329Y009208D01*
X018543Y009208D01*
X018740Y009290D01*
X018891Y009441D01*
X018936Y009549D01*
X018981Y009441D01*
X019132Y009290D01*
X019329Y009208D01*
X019543Y009208D01*
X019740Y009290D01*
X019891Y009441D01*
X019936Y009549D01*
X019981Y009441D01*
X020132Y009290D01*
X020329Y009208D01*
X020543Y009208D01*
X020740Y009290D01*
X020891Y009441D01*
X020936Y009549D01*
X020981Y009441D01*
X021036Y009386D01*
X021036Y008767D01*
X020842Y008573D01*
X020785Y008573D01*
X020527Y008315D01*
X020527Y007951D01*
X020785Y007693D01*
X021150Y007693D01*
X021407Y007951D01*
X021407Y008007D01*
X021662Y008262D01*
X021775Y008375D01*
X021836Y008522D01*
X021836Y009386D01*
X021891Y009441D01*
X021936Y009549D01*
X021981Y009441D01*
X022036Y009386D01*
X022036Y007720D01*
X021708Y007392D01*
X021651Y007392D01*
X021394Y007134D01*
X021394Y006769D01*
X021651Y006512D01*
X022016Y006512D01*
X022274Y006769D01*
X022274Y006826D01*
X022775Y007327D01*
X022836Y007474D01*
X022836Y009386D01*
X022891Y009441D01*
X022936Y009549D01*
X022981Y009441D01*
X023132Y009290D01*
X023329Y009208D01*
X023543Y009208D01*
X023740Y009290D01*
X023891Y009441D01*
X023936Y009549D01*
X023981Y009441D01*
X024132Y009290D01*
X024329Y009208D01*
X024543Y009208D01*
X024740Y009290D01*
X024891Y009441D01*
X024936Y009549D01*
X024981Y009441D01*
X025132Y009290D01*
X025329Y009208D01*
X025543Y009208D01*
X025740Y009290D01*
X025891Y009441D01*
X025936Y009549D01*
X025981Y009441D01*
X026132Y009290D01*
X026329Y009208D01*
X026543Y009208D01*
X026740Y009290D01*
X026891Y009441D01*
X026936Y009549D01*
X026981Y009441D01*
X027132Y009290D01*
X027329Y009208D01*
X027543Y009208D01*
X027740Y009290D01*
X027891Y009441D01*
X027936Y009549D01*
X027981Y009441D01*
X028132Y009290D01*
X028329Y009208D01*
X028543Y009208D01*
X028740Y009290D01*
X028891Y009441D01*
X028936Y009549D01*
X028981Y009441D01*
X029132Y009290D01*
X029329Y009208D01*
X029543Y009208D01*
X029740Y009290D01*
X029891Y009441D01*
X029936Y009549D01*
X029981Y009441D01*
X030132Y009290D01*
X030329Y009208D01*
X030543Y009208D01*
X030740Y009290D01*
X030891Y009441D01*
X030971Y009633D01*
X030994Y009562D01*
X031028Y009495D01*
X031072Y009434D01*
X031125Y009381D01*
X031186Y009337D01*
X031253Y009303D01*
X031324Y009280D01*
X031398Y009268D01*
X031417Y009268D01*
X031417Y009727D01*
X031454Y009727D01*
X031454Y009763D01*
X031913Y009763D01*
X031913Y009782D01*
X031901Y009857D01*
X031878Y009928D01*
X031844Y009995D01*
X031800Y010056D01*
X031747Y010109D01*
X031686Y010153D01*
X031619Y010187D01*
X031548Y010210D01*
X031473Y010222D01*
X031454Y010222D01*
X031454Y009763D01*
X031417Y009763D01*
X031417Y010222D01*
X031398Y010222D01*
X031324Y010210D01*
X031253Y010187D01*
X031186Y010153D01*
X031125Y010109D01*
X031072Y010056D01*
X031028Y009995D01*
X030994Y009928D01*
X030971Y009857D01*
X030971Y009857D01*
X030891Y010049D01*
X030740Y010200D01*
X030632Y010245D01*
X030740Y010290D01*
X030891Y010441D01*
X030971Y010633D01*
X030994Y010562D01*
X031028Y010495D01*
X031072Y010434D01*
X031125Y010381D01*
X031186Y010337D01*
X031253Y010303D01*
X031324Y010280D01*
X031398Y010268D01*
X031417Y010268D01*
X031417Y010727D01*
X031454Y010727D01*
X031454Y010763D01*
X031913Y010763D01*
X031913Y010782D01*
X031901Y010857D01*
X031878Y010928D01*
X031844Y010995D01*
X031800Y011056D01*
X031747Y011109D01*
X031686Y011153D01*
X031619Y011187D01*
X031548Y011210D01*
X031473Y011222D01*
X031454Y011222D01*
X031454Y010763D01*
X031417Y010763D01*
X031417Y011222D01*
X031398Y011222D01*
X031324Y011210D01*
X031253Y011187D01*
X031186Y011153D01*
X031125Y011109D01*
X031072Y011056D01*
X031028Y010995D01*
X030994Y010928D01*
X030971Y010857D01*
X030971Y010857D01*
X030891Y011049D01*
X030740Y011200D01*
X030543Y011282D01*
X030329Y011282D01*
X030132Y011200D01*
X029981Y011049D01*
X029936Y010941D01*
X029891Y011049D01*
X029740Y011200D01*
X029543Y011282D01*
X029329Y011282D01*
X029132Y011200D01*
X028981Y011049D01*
X028936Y010941D01*
X028891Y011049D01*
X028740Y011200D01*
X028543Y011282D01*
X028329Y011282D01*
X028132Y011200D01*
X027981Y011049D01*
X027936Y010941D01*
X027891Y011049D01*
X027740Y011200D01*
X027543Y011282D01*
X027329Y011282D01*
X027132Y011200D01*
X026981Y011049D01*
X026936Y010941D01*
X026891Y011049D01*
X026740Y011200D01*
X026543Y011282D01*
X026329Y011282D01*
X026132Y011200D01*
X025981Y011049D01*
X025936Y010941D01*
X025891Y011049D01*
X025740Y011200D01*
X025543Y011282D01*
X025329Y011282D01*
X025132Y011200D01*
X024981Y011049D01*
X024936Y010941D01*
X024891Y011049D01*
X024740Y011200D01*
X024543Y011282D01*
X024329Y011282D01*
X024132Y011200D01*
X023981Y011049D01*
X023936Y010941D01*
X023891Y011049D01*
X023740Y011200D01*
X023543Y011282D01*
X023329Y011282D01*
X023132Y011200D01*
X022981Y011049D01*
X022936Y010941D01*
X022891Y011049D01*
X022740Y011200D01*
X022543Y011282D01*
X022329Y011282D01*
X022132Y011200D01*
X021981Y011049D01*
X021936Y010941D01*
X021891Y011049D01*
X021740Y011200D01*
X021543Y011282D01*
X021329Y011282D01*
X021132Y011200D01*
X020981Y011049D01*
X020936Y010941D01*
X020891Y011049D01*
X020740Y011200D01*
X020543Y011282D01*
X020329Y011282D01*
X020132Y011200D01*
X019981Y011049D01*
X019936Y010941D01*
X019891Y011049D01*
X019740Y011200D01*
X019543Y011282D01*
X019329Y011282D01*
X019132Y011200D01*
X018981Y011049D01*
X018936Y010941D01*
X018891Y011049D01*
X018740Y011200D01*
X018543Y011282D01*
X018329Y011282D01*
X018132Y011200D01*
X017981Y011049D01*
X017936Y010941D01*
X017891Y011049D01*
X017740Y011200D01*
X017543Y011282D01*
X017329Y011282D01*
X017132Y011200D01*
X016981Y011049D01*
X016936Y010941D01*
X016891Y011049D01*
X016814Y011126D01*
X016814Y011128D01*
X019547Y013861D01*
X023672Y013861D01*
X023738Y013795D01*
X024102Y013795D01*
X024360Y014053D01*
X024360Y014417D01*
X024102Y014675D01*
X023738Y014675D01*
X023672Y014609D01*
X019318Y014609D01*
X019181Y014552D01*
X016542Y011913D01*
X016542Y012253D01*
X017218Y012929D01*
X017331Y012929D01*
X017589Y013187D01*
X017589Y013551D01*
X017331Y013809D01*
X016966Y013809D01*
X016709Y013551D01*
X016709Y013438D01*
X015875Y012605D01*
X015861Y012605D01*
X015842Y012597D01*
X015850Y012865D01*
X015896Y012911D01*
X015896Y013276D01*
X015710Y013461D01*
X015750Y013477D01*
X015902Y013629D01*
X015984Y013828D01*
X015984Y014643D01*
X015902Y014841D01*
X015750Y014993D01*
X015551Y015075D01*
X015336Y015075D01*
X015138Y014993D01*
X014986Y014841D01*
X014909Y014656D01*
X014889Y014719D01*
X014854Y014787D01*
X014810Y014848D01*
X014756Y014901D01*
X014695Y014946D01*
X014628Y014980D01*
X014556Y015003D01*
X014482Y015015D01*
X014464Y015015D01*
X014464Y014255D01*
X014424Y014255D01*
X014424Y015015D01*
X014406Y015015D01*
X014331Y015003D01*
X014260Y014980D01*
X014192Y014946D01*
X014131Y014901D01*
X014078Y014848D01*
X014033Y014787D01*
X013999Y014719D01*
X013976Y014648D01*
X013964Y014573D01*
X013964Y014255D01*
X014424Y014255D01*
X014424Y014215D01*
X014464Y014215D01*
X014464Y013455D01*
X014482Y013455D01*
X014556Y013467D01*
X014628Y013490D01*
X014695Y013525D01*
X014756Y013569D01*
X014810Y013622D01*
X014854Y013684D01*
X014889Y013751D01*
X014909Y013814D01*
X014986Y013629D01*
X015138Y013477D01*
X015194Y013454D01*
X015016Y013276D01*
X015016Y012911D01*
X015050Y012877D01*
X015040Y012505D01*
X015036Y012501D01*
X014999Y012413D01*
X014999Y011884D01*
X015036Y011796D01*
X015036Y011104D01*
X014981Y011049D01*
X014936Y010941D01*
X014891Y011049D01*
X014836Y011104D01*
X014836Y012539D01*
X014833Y012547D01*
X014833Y012685D01*
X014575Y012943D01*
X014210Y012943D01*
X013953Y012685D01*
X013953Y012321D01*
X014036Y012237D01*
X014036Y011104D01*
X013981Y011049D01*
X013936Y010941D01*
X013891Y011049D01*
X013808Y011132D01*
X013808Y014716D01*
X014739Y015647D01*
X022044Y015647D01*
X022104Y015586D01*
X022469Y015586D01*
X022726Y015844D01*
X022726Y015946D01*
X023010Y016229D01*
X023704Y016229D01*
X023704Y015782D01*
X023740Y015694D01*
X023789Y015645D01*
X023776Y015623D01*
X023764Y015578D01*
X023764Y015371D01*
X024133Y015371D01*
X024133Y015324D01*
X023764Y015324D01*
X023764Y015117D01*
X023776Y015071D01*
X023800Y015030D01*
X023833Y014997D01*
X023874Y014973D01*
X023920Y014961D01*
X024133Y014961D01*
X024133Y015324D01*
X024180Y015324D01*
X024180Y015371D01*
X024549Y015371D01*
X024549Y015578D01*
X024537Y015623D01*
X024524Y015645D01*
X024572Y015694D01*
X024609Y015782D01*
X024609Y016223D01*
X024654Y016223D01*
X024742Y016260D01*
X024810Y016327D01*
X024846Y016416D01*
X024846Y016771D01*
X024810Y016859D01*
X024774Y016895D01*
X024786Y016940D01*
X024786Y017093D01*
X024206Y017093D01*
X024206Y017093D01*
X023626Y017093D01*
X023626Y017225D01*
X022341Y017225D01*
X021841Y016725D01*
X021708Y016670D01*
X019754Y016670D01*
X019622Y016725D01*
X019520Y016826D01*
X015131Y021216D01*
X015076Y021349D01*
X015076Y028346D01*
X014981Y028441D01*
X014936Y028549D01*
X014891Y028441D01*
X014836Y028386D01*
X014836Y027427D01*
X014775Y027280D01*
X013944Y026449D01*
X013832Y026337D01*
X013685Y026276D01*
X009471Y026276D01*
X009323Y026337D01*
X007670Y027991D01*
X007557Y028103D01*
X007497Y028250D01*
X007497Y030644D01*
X006393Y031748D01*
X006336Y031748D01*
X006079Y032006D01*
X006079Y032370D01*
X006336Y032628D01*
X006701Y032628D01*
X006959Y032370D01*
X006959Y032314D01*
X008236Y031037D01*
X008297Y030889D01*
X008297Y028495D01*
X009716Y027076D01*
X013440Y027076D01*
X014036Y027672D01*
X014036Y028386D01*
X013981Y028441D01*
X013936Y028549D01*
X013891Y028441D01*
X013836Y028386D01*
X013836Y027687D01*
X013775Y027540D01*
X013590Y027355D01*
X013477Y027242D01*
X013330Y027182D01*
X009864Y027182D01*
X009717Y027242D01*
X008615Y028345D01*
X008502Y028457D01*
X008441Y028604D01*
X008441Y030920D01*
X007715Y031646D01*
X007654Y031793D01*
X007654Y032868D01*
X007570Y032834D01*
X007081Y032834D01*
X006993Y032870D01*
X006925Y032938D01*
X006889Y033026D01*
X006889Y033356D01*
X006630Y033615D01*
X006528Y033716D01*
X006474Y033849D01*
X006474Y034897D01*
X006528Y035030D01*
X006630Y035131D01*
X006630Y035131D01*
X007198Y035699D01*
X007198Y035699D01*
X007204Y035705D01*
X007204Y036459D01*
X007164Y036459D01*
X007164Y035699D01*
X007146Y035699D01*
X007072Y035711D01*
X007000Y035734D01*
X006932Y035769D01*
X006871Y035813D01*
X006818Y035867D01*
X006773Y035928D01*
X006739Y035995D01*
X006716Y036067D01*
X006704Y036141D01*
X006704Y036459D01*
X007164Y036459D01*
X007164Y036499D01*
X006704Y036499D01*
X006704Y036817D01*
X006716Y036892D01*
X006739Y036963D01*
X006773Y037031D01*
X006818Y037092D01*
X006871Y037145D01*
X006932Y037190D01*
X007000Y037224D01*
X007072Y037247D01*
X007146Y037259D01*
X007164Y037259D01*
X007164Y036499D01*
X007204Y036499D01*
X007204Y037259D01*
X007222Y037259D01*
X007296Y037247D01*
X007368Y037224D01*
X007436Y037190D01*
X007497Y037145D01*
X007550Y037092D01*
X007594Y037031D01*
X007629Y036963D01*
X007649Y036900D01*
X007726Y037085D01*
X007878Y037237D01*
X007752Y037111D02*
X007531Y037111D01*
X007632Y036952D02*
X007671Y036952D01*
X007204Y036952D02*
X007164Y036952D01*
X007164Y036794D02*
X007204Y036794D01*
X007204Y036635D02*
X007164Y036635D01*
X007164Y036477D02*
X004964Y036477D01*
X004964Y036371D02*
X004964Y036728D01*
X004951Y036811D01*
X004925Y036890D01*
X004887Y036965D01*
X004838Y037033D01*
X004779Y037092D01*
X004711Y037141D01*
X004636Y037180D01*
X004557Y037205D01*
X004474Y037219D01*
X004469Y037219D01*
X004469Y036371D01*
X004394Y036371D01*
X004394Y036296D01*
X003899Y036296D01*
X003899Y035939D01*
X003913Y035856D01*
X003938Y035777D01*
X003977Y035702D01*
X004026Y035634D01*
X004085Y035575D01*
X004153Y035526D01*
X004228Y035488D01*
X004307Y035462D01*
X004390Y035449D01*
X004394Y035449D01*
X004394Y036296D01*
X004469Y036296D01*
X004469Y035449D01*
X004474Y035449D01*
X004557Y035462D01*
X004636Y035488D01*
X004711Y035526D01*
X004779Y035575D01*
X004838Y035634D01*
X004887Y035702D01*
X004925Y035777D01*
X004951Y035856D01*
X004964Y035939D01*
X004964Y036296D01*
X004469Y036296D01*
X004469Y036371D01*
X004964Y036371D01*
X004964Y036160D02*
X006704Y036160D01*
X006704Y036318D02*
X004469Y036318D01*
X004394Y036318D02*
X003056Y036318D01*
X003056Y036160D02*
X003899Y036160D01*
X003899Y036001D02*
X003056Y036001D01*
X003047Y035843D02*
X003917Y035843D01*
X003990Y035684D02*
X002982Y035684D01*
X002846Y035526D02*
X004153Y035526D01*
X004394Y035526D02*
X004469Y035526D01*
X004469Y035684D02*
X004394Y035684D01*
X004394Y035843D02*
X004469Y035843D01*
X004469Y036001D02*
X004394Y036001D01*
X004394Y036160D02*
X004469Y036160D01*
X004394Y036371D02*
X003899Y036371D01*
X003899Y036728D01*
X003913Y036811D01*
X003938Y036890D01*
X003977Y036965D01*
X004026Y037033D01*
X004085Y037092D01*
X004153Y037141D01*
X004228Y037180D01*
X004307Y037205D01*
X004390Y037219D01*
X004394Y037219D01*
X004394Y036371D01*
X004394Y036477D02*
X004469Y036477D01*
X004469Y036635D02*
X004394Y036635D01*
X004394Y036794D02*
X004469Y036794D01*
X004469Y036952D02*
X004394Y036952D01*
X004394Y037111D02*
X004469Y037111D01*
X004754Y037111D02*
X006836Y037111D01*
X006735Y036952D02*
X004894Y036952D01*
X004954Y036794D02*
X006704Y036794D01*
X006704Y036635D02*
X004964Y036635D01*
X004964Y036001D02*
X006737Y036001D01*
X006842Y035843D02*
X004947Y035843D01*
X004874Y035684D02*
X007183Y035684D01*
X007164Y035843D02*
X007204Y035843D01*
X007204Y036001D02*
X007164Y036001D01*
X007164Y036160D02*
X007204Y036160D01*
X007204Y036318D02*
X007164Y036318D01*
X007164Y037111D02*
X007204Y037111D01*
X008412Y037269D02*
X009955Y037269D01*
X009752Y037111D02*
X009531Y037111D01*
X009632Y036952D02*
X009671Y036952D01*
X009204Y036952D02*
X009164Y036952D01*
X009164Y036794D02*
X009204Y036794D01*
X009204Y036635D02*
X009164Y036635D01*
X009164Y036459D02*
X009204Y036459D01*
X009204Y035699D01*
X009222Y035699D01*
X009250Y035704D01*
X009078Y035532D01*
X008809Y035800D01*
X008677Y035855D01*
X008623Y035855D01*
X008642Y035873D01*
X008718Y036059D01*
X008739Y035995D01*
X008773Y035928D01*
X008818Y035867D01*
X008871Y035813D01*
X008932Y035769D01*
X009000Y035734D01*
X009072Y035711D01*
X009146Y035699D01*
X009164Y035699D01*
X009164Y036459D01*
X009164Y036318D02*
X009204Y036318D01*
X009204Y036160D02*
X009164Y036160D01*
X009164Y036001D02*
X009204Y036001D01*
X009204Y035843D02*
X009164Y035843D01*
X009230Y035684D02*
X008925Y035684D01*
X008842Y035843D02*
X008707Y035843D01*
X008695Y036001D02*
X008737Y036001D01*
X008456Y035135D02*
X007652Y035135D01*
X007194Y034677D01*
X007194Y034069D01*
X007516Y033747D01*
X007570Y033747D01*
X007595Y033737D01*
X007595Y034649D01*
X007653Y034790D01*
X007653Y034850D01*
X007911Y035108D01*
X008276Y035108D01*
X008533Y034850D01*
X008533Y034486D01*
X008395Y034348D01*
X008395Y033643D01*
X008395Y033643D01*
X008432Y033555D01*
X008432Y033364D01*
X008454Y033311D01*
X008454Y032039D01*
X009181Y031312D01*
X009241Y031165D01*
X009241Y028850D01*
X010109Y027982D01*
X013036Y027982D01*
X013036Y028386D01*
X012981Y028441D01*
X012936Y028549D01*
X012891Y028441D01*
X012740Y028290D01*
X012543Y028208D01*
X012329Y028208D01*
X012132Y028290D01*
X011981Y028441D01*
X011936Y028549D01*
X011891Y028441D01*
X011740Y028290D01*
X011543Y028208D01*
X011329Y028208D01*
X011132Y028290D01*
X010981Y028441D01*
X010913Y028605D01*
X010913Y028424D01*
X010900Y028379D01*
X010877Y028338D01*
X010843Y028304D01*
X010802Y028280D01*
X010756Y028268D01*
X010454Y028268D01*
X010454Y028727D01*
X010417Y028727D01*
X009959Y028727D01*
X009959Y028424D01*
X009971Y028379D01*
X009995Y028338D01*
X010029Y028304D01*
X010070Y028280D01*
X010115Y028268D01*
X010417Y028268D01*
X010417Y028727D01*
X010417Y028763D01*
X009959Y028763D01*
X009959Y029066D01*
X009971Y029111D01*
X009995Y029152D01*
X010029Y029186D01*
X010070Y029210D01*
X010115Y029222D01*
X010417Y029222D01*
X010417Y028763D01*
X010454Y028763D01*
X010454Y029222D01*
X010756Y029222D01*
X010802Y029210D01*
X010843Y029186D01*
X010877Y029152D01*
X010900Y029111D01*
X010913Y029066D01*
X010913Y028885D01*
X010981Y029049D01*
X011132Y029200D01*
X011240Y029245D01*
X011132Y029290D01*
X010981Y029441D01*
X010901Y029633D01*
X010901Y029633D01*
X010878Y029562D01*
X010844Y029495D01*
X010800Y029434D01*
X010747Y029381D01*
X010686Y029337D01*
X010619Y029303D01*
X010548Y029280D01*
X010473Y029268D01*
X010454Y029268D01*
X010454Y029727D01*
X010417Y029727D01*
X009959Y029727D01*
X009959Y029707D01*
X009971Y029633D01*
X009994Y029562D01*
X010028Y029495D01*
X010072Y029434D01*
X010125Y029381D01*
X010186Y029337D01*
X010253Y029303D01*
X010324Y029280D01*
X010398Y029268D01*
X010417Y029268D01*
X010417Y029727D01*
X010417Y029763D01*
X009959Y029763D01*
X009959Y029782D01*
X009971Y029857D01*
X009994Y029928D01*
X010028Y029995D01*
X010072Y030056D01*
X010125Y030109D01*
X010186Y030153D01*
X010253Y030187D01*
X010324Y030210D01*
X010398Y030222D01*
X010417Y030222D01*
X010417Y029763D01*
X010454Y029763D01*
X010454Y030222D01*
X010473Y030222D01*
X010548Y030210D01*
X010619Y030187D01*
X010686Y030153D01*
X010747Y030109D01*
X010800Y030056D01*
X010844Y029995D01*
X010878Y029928D01*
X010901Y029857D01*
X010901Y029857D01*
X010981Y030049D01*
X011132Y030200D01*
X011329Y030282D01*
X011543Y030282D01*
X011740Y030200D01*
X011891Y030049D01*
X011936Y029941D01*
X011981Y030049D01*
X012132Y030200D01*
X012329Y030282D01*
X012543Y030282D01*
X012612Y030253D01*
X012337Y030528D01*
X010848Y030528D01*
X010701Y030589D01*
X009841Y031449D01*
X009780Y031596D01*
X009780Y032875D01*
X009775Y032873D01*
X009286Y032873D01*
X009198Y032910D01*
X009130Y032977D01*
X009094Y033065D01*
X009094Y033257D01*
X008930Y033421D01*
X008875Y033553D01*
X008875Y034716D01*
X008874Y034717D01*
X008874Y034717D01*
X008772Y034819D01*
X008772Y034819D01*
X008456Y035135D01*
X008541Y035050D02*
X008334Y035050D01*
X008492Y034892D02*
X008699Y034892D01*
X008858Y034733D02*
X008533Y034733D01*
X008533Y034575D02*
X008875Y034575D01*
X008875Y034416D02*
X008464Y034416D01*
X008395Y034258D02*
X008875Y034258D01*
X008875Y034099D02*
X008395Y034099D01*
X008395Y033941D02*
X008875Y033941D01*
X008875Y033782D02*
X008395Y033782D01*
X008403Y033624D02*
X008875Y033624D01*
X008912Y033465D02*
X008432Y033465D01*
X008454Y033307D02*
X009044Y033307D01*
X009094Y033148D02*
X008454Y033148D01*
X008454Y032990D02*
X009125Y032990D01*
X009780Y032831D02*
X008454Y032831D01*
X008454Y032673D02*
X009780Y032673D01*
X009780Y032514D02*
X008454Y032514D01*
X008454Y032356D02*
X009780Y032356D01*
X009780Y032197D02*
X008454Y032197D01*
X008454Y032039D02*
X009780Y032039D01*
X009780Y031880D02*
X008613Y031880D01*
X008771Y031722D02*
X009780Y031722D01*
X009794Y031563D02*
X008930Y031563D01*
X009088Y031405D02*
X009886Y031405D01*
X010044Y031246D02*
X009208Y031246D01*
X009241Y031088D02*
X010203Y031088D01*
X010361Y030929D02*
X009241Y030929D01*
X009241Y030771D02*
X010520Y030771D01*
X010678Y030612D02*
X009241Y030612D01*
X009241Y030454D02*
X012412Y030454D01*
X012570Y030295D02*
X009241Y030295D01*
X009241Y030137D02*
X010164Y030137D01*
X010019Y029978D02*
X009241Y029978D01*
X009241Y029820D02*
X009965Y029820D01*
X009966Y029661D02*
X009241Y029661D01*
X009241Y029503D02*
X010024Y029503D01*
X010176Y029344D02*
X009241Y029344D01*
X009241Y029186D02*
X010028Y029186D01*
X009959Y029027D02*
X009241Y029027D01*
X009241Y028869D02*
X009959Y028869D01*
X009959Y028710D02*
X009381Y028710D01*
X009539Y028552D02*
X009959Y028552D01*
X009967Y028393D02*
X009698Y028393D01*
X009856Y028235D02*
X011265Y028235D01*
X011029Y028393D02*
X010904Y028393D01*
X010913Y028552D02*
X010935Y028552D01*
X010454Y028552D02*
X010417Y028552D01*
X010417Y028710D02*
X010454Y028710D01*
X010454Y028869D02*
X010417Y028869D01*
X010417Y029027D02*
X010454Y029027D01*
X010454Y029186D02*
X010417Y029186D01*
X010417Y029344D02*
X010454Y029344D01*
X010454Y029503D02*
X010417Y029503D01*
X010417Y029661D02*
X010454Y029661D01*
X010454Y029820D02*
X010417Y029820D01*
X010417Y029978D02*
X010454Y029978D01*
X010454Y030137D02*
X010417Y030137D01*
X010708Y030137D02*
X011068Y030137D01*
X010951Y029978D02*
X010852Y029978D01*
X010848Y029503D02*
X010955Y029503D01*
X011078Y029344D02*
X010695Y029344D01*
X010844Y029186D02*
X011117Y029186D01*
X010972Y029027D02*
X010913Y029027D01*
X010454Y028393D02*
X010417Y028393D01*
X010015Y028076D02*
X013036Y028076D01*
X013036Y028235D02*
X012607Y028235D01*
X012843Y028393D02*
X013029Y028393D01*
X012265Y028235D02*
X011607Y028235D01*
X011843Y028393D02*
X012029Y028393D01*
X013488Y027125D02*
X009667Y027125D01*
X009676Y027284D02*
X009508Y027284D01*
X009518Y027442D02*
X009350Y027442D01*
X009359Y027601D02*
X009191Y027601D01*
X009201Y027759D02*
X009033Y027759D01*
X009042Y027918D02*
X008874Y027918D01*
X008884Y028076D02*
X008716Y028076D01*
X008725Y028235D02*
X008557Y028235D01*
X008567Y028393D02*
X008399Y028393D01*
X008463Y028552D02*
X008297Y028552D01*
X008297Y028710D02*
X008441Y028710D01*
X008441Y028869D02*
X008297Y028869D01*
X008297Y029027D02*
X008441Y029027D01*
X008441Y029186D02*
X008297Y029186D01*
X008297Y029344D02*
X008441Y029344D01*
X008441Y029503D02*
X008297Y029503D01*
X008297Y029661D02*
X008441Y029661D01*
X008441Y029820D02*
X008297Y029820D01*
X008297Y029978D02*
X008441Y029978D01*
X008441Y030137D02*
X008297Y030137D01*
X008297Y030295D02*
X008441Y030295D01*
X008441Y030454D02*
X008297Y030454D01*
X008297Y030612D02*
X008441Y030612D01*
X008441Y030771D02*
X008297Y030771D01*
X008280Y030929D02*
X008432Y030929D01*
X008274Y031088D02*
X008185Y031088D01*
X008115Y031246D02*
X008026Y031246D01*
X007957Y031405D02*
X007868Y031405D01*
X007798Y031563D02*
X007709Y031563D01*
X007684Y031722D02*
X007551Y031722D01*
X007654Y031880D02*
X007392Y031880D01*
X007234Y032039D02*
X007654Y032039D01*
X007654Y032197D02*
X007075Y032197D01*
X006959Y032356D02*
X007654Y032356D01*
X007654Y032514D02*
X006815Y032514D01*
X006904Y032990D02*
X000420Y032990D01*
X000420Y033148D02*
X006889Y033148D01*
X006889Y033307D02*
X000420Y033307D01*
X000420Y033465D02*
X006780Y033465D01*
X006621Y033624D02*
X000420Y033624D01*
X000420Y033782D02*
X006501Y033782D01*
X006474Y033941D02*
X000420Y033941D01*
X000420Y034099D02*
X006474Y034099D01*
X006474Y034258D02*
X000420Y034258D01*
X000420Y034416D02*
X006474Y034416D01*
X006474Y034575D02*
X000420Y034575D01*
X000420Y034733D02*
X006474Y034733D01*
X006474Y034892D02*
X000420Y034892D01*
X000420Y035050D02*
X006549Y035050D01*
X006707Y035209D02*
X000420Y035209D01*
X000420Y035367D02*
X006866Y035367D01*
X007024Y035526D02*
X004711Y035526D01*
X003899Y036477D02*
X003056Y036477D01*
X003056Y036635D02*
X003899Y036635D01*
X003910Y036794D02*
X003056Y036794D01*
X002995Y036952D02*
X003970Y036952D01*
X004110Y037111D02*
X002877Y037111D01*
X001932Y036952D02*
X000420Y036952D01*
X000420Y036794D02*
X001871Y036794D01*
X001871Y036635D02*
X000420Y036635D01*
X000420Y036477D02*
X001871Y036477D01*
X001871Y036318D02*
X000420Y036318D01*
X000420Y036160D02*
X001871Y036160D01*
X001871Y036001D02*
X000420Y036001D01*
X000420Y035843D02*
X001880Y035843D01*
X001945Y035684D02*
X000420Y035684D01*
X000420Y035526D02*
X002081Y035526D01*
X000420Y037428D02*
X029438Y037428D01*
X029597Y037586D02*
X000420Y037586D01*
X000420Y037745D02*
X029755Y037745D01*
X029914Y037903D02*
X000420Y037903D01*
X000420Y038062D02*
X030072Y038062D01*
X030134Y038220D02*
X000420Y038220D01*
X000420Y038379D02*
X030237Y038379D01*
X030574Y038093D02*
X030613Y038093D01*
X031014Y038062D02*
X036176Y038062D01*
X036176Y037976D02*
X036266Y037758D01*
X036433Y037591D01*
X036651Y037501D01*
X037591Y037501D01*
X037809Y037591D01*
X037976Y037758D01*
X038066Y037976D01*
X038066Y038211D01*
X037976Y038429D01*
X037809Y038596D01*
X037591Y038686D01*
X036651Y038686D01*
X036433Y038596D01*
X036266Y038429D01*
X036176Y038211D01*
X036176Y037976D01*
X036206Y037903D02*
X031006Y037903D01*
X030847Y037745D02*
X036279Y037745D01*
X036445Y037586D02*
X030615Y037586D01*
X030456Y037428D02*
X039310Y037428D01*
X039310Y037586D02*
X037797Y037586D01*
X037963Y037745D02*
X039310Y037745D01*
X039310Y037903D02*
X038036Y037903D01*
X038066Y038062D02*
X039310Y038062D01*
X039310Y038220D02*
X038062Y038220D01*
X037997Y038379D02*
X039310Y038379D01*
X039310Y038537D02*
X037868Y038537D01*
X039310Y038696D02*
X000420Y038696D01*
X000420Y038854D02*
X039310Y038854D01*
X039310Y039013D02*
X000420Y039013D01*
X000420Y039171D02*
X039310Y039171D01*
X039310Y039310D02*
X039310Y000420D01*
X000420Y000420D01*
X000420Y005353D01*
X000458Y005343D01*
X000637Y005343D01*
X000815Y005343D01*
X000861Y005355D01*
X000902Y005379D01*
X000936Y005413D01*
X000960Y005454D01*
X000972Y005499D01*
X000972Y005698D01*
X000637Y005698D01*
X000637Y005698D01*
X000637Y005343D01*
X000637Y005698D01*
X000637Y005698D01*
X000972Y005698D01*
X000972Y005897D01*
X000960Y005943D01*
X000936Y005984D01*
X000902Y006017D01*
X000861Y006041D01*
X000815Y006053D01*
X000637Y006053D01*
X000637Y005698D01*
X000637Y005698D01*
X000637Y006053D01*
X000458Y006053D01*
X000420Y006043D01*
X000420Y006967D01*
X000458Y006957D01*
X000637Y006957D01*
X000815Y006957D01*
X000861Y006970D01*
X000902Y006993D01*
X000936Y007027D01*
X000960Y007068D01*
X000972Y007114D01*
X000972Y007312D01*
X000637Y007312D01*
X000637Y007312D01*
X000637Y006957D01*
X000637Y007312D01*
X000637Y007312D01*
X000972Y007312D01*
X000972Y007511D01*
X000960Y007557D01*
X000936Y007598D01*
X000902Y007631D01*
X000861Y007655D01*
X000815Y007667D01*
X000637Y007667D01*
X000637Y007312D01*
X000637Y007312D01*
X000637Y007667D01*
X000458Y007667D01*
X000420Y007657D01*
X000420Y039310D01*
X039310Y039310D01*
X039310Y037269D02*
X030298Y037269D01*
X030139Y037111D02*
X039310Y037111D01*
X039310Y036952D02*
X029981Y036952D01*
X029822Y036794D02*
X039310Y036794D01*
X039310Y036635D02*
X037626Y036635D01*
X037598Y036644D02*
X037515Y036657D01*
X037158Y036657D01*
X037158Y036162D01*
X037083Y036162D01*
X037083Y036087D01*
X036236Y036087D01*
X036236Y036083D01*
X036249Y036000D01*
X036275Y035920D01*
X036313Y035846D01*
X036362Y035778D01*
X036422Y035719D01*
X036489Y035669D01*
X036564Y035631D01*
X036644Y035605D01*
X036727Y035592D01*
X037083Y035592D01*
X037083Y036087D01*
X037158Y036087D01*
X037158Y035592D01*
X037515Y035592D01*
X037598Y035605D01*
X037678Y035631D01*
X037753Y035669D01*
X037820Y035719D01*
X037880Y035778D01*
X037929Y035846D01*
X037967Y035920D01*
X037993Y036000D01*
X038006Y036083D01*
X038006Y036087D01*
X037158Y036087D01*
X037158Y036162D01*
X038006Y036162D01*
X038006Y036167D01*
X037993Y036250D01*
X037967Y036329D01*
X037929Y036404D01*
X037880Y036472D01*
X037820Y036531D01*
X037753Y036580D01*
X037678Y036618D01*
X037598Y036644D01*
X037875Y036477D02*
X039310Y036477D01*
X039310Y036318D02*
X037971Y036318D01*
X037993Y036001D02*
X039310Y036001D01*
X039310Y035843D02*
X037927Y035843D01*
X037773Y035684D02*
X039310Y035684D01*
X039310Y035526D02*
X031227Y035526D01*
X031368Y035684D02*
X036469Y035684D01*
X036315Y035843D02*
X031368Y035843D01*
X031368Y036001D02*
X036249Y036001D01*
X036236Y036162D02*
X037083Y036162D01*
X037083Y036657D01*
X036727Y036657D01*
X036644Y036644D01*
X036564Y036618D01*
X036489Y036580D01*
X036422Y036531D01*
X036362Y036472D01*
X036313Y036404D01*
X036275Y036329D01*
X036249Y036250D01*
X036236Y036167D01*
X036236Y036162D01*
X036271Y036318D02*
X029347Y036318D01*
X029505Y036477D02*
X036367Y036477D01*
X036615Y036635D02*
X029664Y036635D01*
X029121Y037111D02*
X015341Y037111D01*
X015421Y036952D02*
X028963Y036952D01*
X028804Y036794D02*
X015448Y036794D01*
X015448Y036635D02*
X028646Y036635D01*
X028487Y036477D02*
X015448Y036477D01*
X015448Y036318D02*
X028329Y036318D01*
X028170Y036160D02*
X015448Y036160D01*
X015419Y036001D02*
X028012Y036001D01*
X027853Y035843D02*
X015335Y035843D01*
X015124Y035684D02*
X027695Y035684D01*
X027592Y035526D02*
X014241Y035526D01*
X014083Y035684D02*
X014693Y035684D01*
X014481Y035843D02*
X014251Y035843D01*
X014355Y036001D02*
X014398Y036001D01*
X014400Y035367D02*
X027576Y035367D01*
X027576Y035209D02*
X014525Y035209D01*
X014556Y035050D02*
X014940Y035050D01*
X014781Y034892D02*
X014556Y034892D01*
X014556Y034733D02*
X014701Y034733D01*
X014701Y034575D02*
X014556Y034575D01*
X014556Y034416D02*
X014731Y034416D01*
X014760Y034258D02*
X014604Y034258D01*
X014061Y033782D02*
X013474Y033782D01*
X013474Y033643D02*
X013474Y034728D01*
X013455Y034774D01*
X013455Y034890D01*
X013288Y035056D01*
X013692Y035056D01*
X013836Y034913D01*
X013836Y034085D01*
X013891Y033952D01*
X013992Y033851D01*
X014131Y033712D01*
X014131Y033644D01*
X014091Y033603D01*
X014054Y033515D01*
X014054Y032988D01*
X013756Y032690D01*
X013654Y032589D01*
X013600Y032456D01*
X013600Y031431D01*
X013536Y031368D01*
X013423Y031368D01*
X013165Y031110D01*
X013165Y030831D01*
X012729Y031267D01*
X012582Y031328D01*
X011094Y031328D01*
X010580Y031842D01*
X010580Y032957D01*
X010600Y032977D01*
X010637Y033065D01*
X010637Y033594D01*
X010600Y033682D01*
X010600Y033682D01*
X010600Y034466D01*
X010659Y034525D01*
X010659Y034890D01*
X010414Y035135D01*
X011015Y035135D01*
X011434Y034716D01*
X011434Y034242D01*
X011489Y034110D01*
X011590Y034009D01*
X011990Y033609D01*
X011968Y033555D01*
X011968Y033026D01*
X012004Y032938D01*
X012072Y032870D01*
X012160Y032834D01*
X012649Y032834D01*
X012693Y032852D01*
X012693Y032410D01*
X012653Y032370D01*
X012653Y032006D01*
X012911Y031748D01*
X013276Y031748D01*
X013533Y032006D01*
X013533Y032370D01*
X013493Y032410D01*
X013493Y032985D01*
X013511Y033026D01*
X013511Y033555D01*
X013474Y033643D01*
X013474Y033643D01*
X013482Y033624D02*
X014111Y033624D01*
X014054Y033465D02*
X013511Y033465D01*
X013511Y033307D02*
X014054Y033307D01*
X014054Y033148D02*
X013511Y033148D01*
X013495Y032990D02*
X014054Y032990D01*
X013897Y032831D02*
X013493Y032831D01*
X013493Y032673D02*
X013738Y032673D01*
X013623Y032514D02*
X013493Y032514D01*
X013533Y032356D02*
X013600Y032356D01*
X013600Y032197D02*
X013533Y032197D01*
X013533Y032039D02*
X013600Y032039D01*
X013600Y031880D02*
X013408Y031880D01*
X013600Y031722D02*
X010700Y031722D01*
X010580Y031880D02*
X012779Y031880D01*
X012653Y032039D02*
X010580Y032039D01*
X010580Y032197D02*
X012653Y032197D01*
X012653Y032356D02*
X010580Y032356D01*
X010580Y032514D02*
X012693Y032514D01*
X012693Y032673D02*
X010580Y032673D01*
X010580Y032831D02*
X012693Y032831D01*
X011983Y032990D02*
X010605Y032990D01*
X010637Y033148D02*
X011968Y033148D01*
X011968Y033307D02*
X010637Y033307D01*
X010637Y033465D02*
X011968Y033465D01*
X011975Y033624D02*
X010624Y033624D01*
X010600Y033782D02*
X011817Y033782D01*
X011658Y033941D02*
X010600Y033941D01*
X010600Y034099D02*
X011500Y034099D01*
X011434Y034258D02*
X010600Y034258D01*
X010600Y034416D02*
X011434Y034416D01*
X011434Y034575D02*
X010659Y034575D01*
X010659Y034733D02*
X011417Y034733D01*
X011259Y034892D02*
X010658Y034892D01*
X010499Y035050D02*
X011100Y035050D01*
X011484Y035684D02*
X012104Y035684D01*
X012251Y035843D02*
X012481Y035843D01*
X012398Y036001D02*
X012355Y036001D01*
X011928Y036001D02*
X011888Y036001D01*
X011888Y035843D02*
X011928Y035843D01*
X011928Y036160D02*
X011888Y036160D01*
X011888Y036318D02*
X011928Y036318D01*
X011888Y036477D02*
X010724Y036477D01*
X010724Y036635D02*
X011428Y036635D01*
X011428Y036794D02*
X010724Y036794D01*
X010697Y036952D02*
X011460Y036952D01*
X011561Y037111D02*
X010616Y037111D01*
X010412Y037269D02*
X012680Y037269D01*
X012476Y037111D02*
X012256Y037111D01*
X012357Y036952D02*
X012395Y036952D01*
X011928Y036952D02*
X011888Y036952D01*
X011888Y036794D02*
X011928Y036794D01*
X011928Y036635D02*
X011888Y036635D01*
X011888Y037111D02*
X011928Y037111D01*
X011428Y036318D02*
X010724Y036318D01*
X010724Y036160D02*
X011428Y036160D01*
X011462Y036001D02*
X010695Y036001D01*
X011266Y035843D02*
X011566Y035843D01*
X011643Y035526D02*
X011946Y035526D01*
X013294Y035050D02*
X013698Y035050D01*
X013836Y034892D02*
X013453Y034892D01*
X013472Y034733D02*
X013836Y034733D01*
X013836Y034575D02*
X013474Y034575D01*
X013474Y034416D02*
X013836Y034416D01*
X013836Y034258D02*
X013474Y034258D01*
X013474Y034099D02*
X013836Y034099D01*
X013902Y033941D02*
X013474Y033941D01*
X015342Y035050D02*
X026682Y035050D01*
X026694Y035070D02*
X026670Y035029D01*
X026658Y034983D01*
X026658Y034830D01*
X027238Y034830D01*
X027238Y035140D01*
X026814Y035140D01*
X026768Y035127D01*
X026727Y035104D01*
X026694Y035070D01*
X026658Y034892D02*
X015500Y034892D01*
X015581Y034733D02*
X026658Y034733D01*
X027238Y034830D02*
X027238Y034830D01*
X027238Y034892D02*
X027238Y034892D01*
X027238Y035050D02*
X027238Y035050D01*
X026598Y033970D02*
X026598Y033652D01*
X026634Y033564D01*
X026670Y033528D01*
X026658Y033483D01*
X026658Y033330D01*
X027238Y033330D01*
X027818Y033330D01*
X027818Y033470D01*
X027917Y033470D01*
X027991Y033500D01*
X027867Y033376D01*
X027818Y033257D01*
X027818Y033330D01*
X027238Y033330D01*
X027238Y033330D01*
X027238Y033330D01*
X026658Y033330D01*
X026658Y033190D01*
X017246Y033190D01*
X017145Y033148D01*
X017967Y033970D01*
X026598Y033970D01*
X026598Y033941D02*
X017938Y033941D01*
X017779Y033782D02*
X026598Y033782D01*
X026609Y033624D02*
X017621Y033624D01*
X017462Y033465D02*
X026658Y033465D01*
X026658Y033307D02*
X017304Y033307D01*
X017145Y033148D02*
X017146Y033148D01*
X016603Y033624D02*
X015560Y033624D01*
X015560Y033782D02*
X016761Y033782D01*
X016920Y033941D02*
X015560Y033941D01*
X015560Y034099D02*
X017078Y034099D01*
X017237Y034258D02*
X015560Y034258D01*
X015560Y034416D02*
X017395Y034416D01*
X017554Y034575D02*
X015581Y034575D01*
X015597Y033465D02*
X016444Y033465D01*
X016286Y033307D02*
X015597Y033307D01*
X015597Y033148D02*
X016127Y033148D01*
X015969Y032990D02*
X015597Y032990D01*
X015541Y032831D02*
X015810Y032831D01*
X015652Y032673D02*
X015541Y032673D01*
X016800Y031803D02*
X016800Y031718D01*
X017378Y032296D01*
X017510Y032351D01*
X020094Y032351D01*
X020226Y032296D01*
X020423Y032099D01*
X020423Y032099D01*
X020525Y031998D01*
X020579Y031866D01*
X020579Y031077D01*
X020723Y030934D01*
X020930Y030934D01*
X020764Y031100D01*
X020764Y031465D01*
X021021Y031722D01*
X021386Y031722D01*
X021466Y031642D01*
X026667Y031642D01*
X026658Y031676D01*
X026658Y031830D01*
X027238Y031830D01*
X027238Y031830D01*
X026658Y031830D01*
X026658Y031983D01*
X026670Y032028D01*
X026634Y032064D01*
X026598Y032152D01*
X026598Y032470D01*
X017467Y032470D01*
X016841Y031843D01*
X016800Y031803D01*
X016800Y031722D02*
X016803Y031722D01*
X016877Y031880D02*
X016961Y031880D01*
X017036Y032039D02*
X017120Y032039D01*
X017194Y032197D02*
X017278Y032197D01*
X017353Y032356D02*
X026598Y032356D01*
X026598Y032197D02*
X020326Y032197D01*
X020484Y032039D02*
X026659Y032039D01*
X026658Y031880D02*
X020573Y031880D01*
X020579Y031722D02*
X021021Y031722D01*
X020862Y031563D02*
X020579Y031563D01*
X020579Y031405D02*
X020764Y031405D01*
X020764Y031246D02*
X020579Y031246D01*
X020579Y031088D02*
X020776Y031088D01*
X021387Y031722D02*
X026658Y031722D01*
X026804Y030137D02*
X027068Y030137D01*
X026951Y029978D02*
X026920Y029978D01*
X026068Y030137D02*
X025804Y030137D01*
X025920Y029978D02*
X025951Y029978D01*
X025068Y030137D02*
X024804Y030137D01*
X024920Y029978D02*
X024951Y029978D01*
X024068Y030137D02*
X023804Y030137D01*
X023920Y029978D02*
X023951Y029978D01*
X023068Y030137D02*
X022804Y030137D01*
X022920Y029978D02*
X022951Y029978D01*
X022436Y029745D02*
X022936Y029245D01*
X022936Y028408D01*
X022660Y028133D01*
X022660Y025377D01*
X022350Y025065D02*
X022076Y025065D01*
X022220Y025223D02*
X021917Y025223D01*
X021759Y025382D02*
X022220Y025382D01*
X022220Y025540D02*
X021600Y025540D01*
X021442Y025699D02*
X022340Y025699D01*
X022340Y025857D02*
X021283Y025857D01*
X021125Y026016D02*
X022340Y026016D01*
X022340Y026174D02*
X020966Y026174D01*
X020808Y026333D02*
X022340Y026333D01*
X022340Y026491D02*
X020649Y026491D01*
X020491Y026650D02*
X022340Y026650D01*
X022340Y026808D02*
X020332Y026808D01*
X020174Y026967D02*
X022340Y026967D01*
X022340Y027125D02*
X020015Y027125D01*
X019857Y027284D02*
X022340Y027284D01*
X022340Y027442D02*
X019804Y027442D01*
X019804Y027601D02*
X022340Y027601D01*
X022340Y027759D02*
X019804Y027759D01*
X019804Y027918D02*
X022340Y027918D01*
X022340Y028076D02*
X019804Y028076D01*
X019804Y028235D02*
X020265Y028235D01*
X020029Y028393D02*
X019843Y028393D01*
X019068Y028354D02*
X019068Y027111D01*
X019124Y026976D01*
X019227Y026872D01*
X019227Y026872D01*
X024891Y021209D01*
X024891Y019123D01*
X024947Y018987D01*
X024973Y018961D01*
X024846Y018961D01*
X024846Y019271D01*
X024816Y019343D01*
X024846Y019416D01*
X024846Y019771D01*
X024810Y019859D01*
X024742Y019927D01*
X024654Y019963D01*
X023758Y019963D01*
X023744Y019957D01*
X023737Y019957D01*
X023737Y021737D01*
X023809Y021809D01*
X023809Y022173D01*
X023551Y022431D01*
X023187Y022431D01*
X022929Y022173D01*
X022929Y021809D01*
X023001Y021737D01*
X023001Y019674D01*
X023057Y019539D01*
X023134Y019461D01*
X021183Y019461D01*
X018149Y022495D01*
X017854Y022790D01*
X017804Y022840D01*
X017804Y028354D01*
X017891Y028441D01*
X017936Y028549D01*
X017981Y028441D01*
X018126Y028295D01*
X018126Y024457D01*
X018086Y024417D01*
X018086Y024053D01*
X018344Y023795D01*
X018709Y023795D01*
X018966Y024053D01*
X018966Y024417D01*
X018926Y024457D01*
X018926Y028526D01*
X018936Y028549D01*
X018981Y028441D01*
X019068Y028354D01*
X019029Y028393D02*
X018926Y028393D01*
X018926Y028235D02*
X019068Y028235D01*
X019068Y028076D02*
X018926Y028076D01*
X018926Y027918D02*
X019068Y027918D01*
X019068Y027759D02*
X018926Y027759D01*
X018926Y027601D02*
X019068Y027601D01*
X019068Y027442D02*
X018926Y027442D01*
X018926Y027284D02*
X019068Y027284D01*
X019068Y027125D02*
X018926Y027125D01*
X018926Y026967D02*
X019133Y026967D01*
X019291Y026808D02*
X018926Y026808D01*
X018926Y026650D02*
X019450Y026650D01*
X019608Y026491D02*
X018926Y026491D01*
X018926Y026333D02*
X019767Y026333D01*
X019925Y026174D02*
X018926Y026174D01*
X018926Y026016D02*
X020084Y026016D01*
X020242Y025857D02*
X018926Y025857D01*
X018926Y025699D02*
X020401Y025699D01*
X020559Y025540D02*
X018926Y025540D01*
X018926Y025382D02*
X020718Y025382D01*
X020876Y025223D02*
X018926Y025223D01*
X018926Y025065D02*
X021035Y025065D01*
X021193Y024906D02*
X018926Y024906D01*
X018926Y024748D02*
X021352Y024748D01*
X021510Y024589D02*
X018926Y024589D01*
X018953Y024431D02*
X021669Y024431D01*
X021827Y024272D02*
X018966Y024272D01*
X018966Y024114D02*
X021986Y024114D01*
X022144Y023955D02*
X018869Y023955D01*
X018710Y023797D02*
X022303Y023797D01*
X022461Y023638D02*
X017804Y023638D01*
X017804Y023480D02*
X022620Y023480D01*
X022778Y023321D02*
X017804Y023321D01*
X017804Y023163D02*
X022937Y023163D01*
X023095Y023004D02*
X017804Y023004D01*
X017804Y022846D02*
X023254Y022846D01*
X023412Y022687D02*
X017957Y022687D01*
X018116Y022529D02*
X023571Y022529D01*
X023612Y022370D02*
X023729Y022370D01*
X023771Y022212D02*
X023888Y022212D01*
X023809Y022053D02*
X024046Y022053D01*
X024205Y021895D02*
X023809Y021895D01*
X023737Y021736D02*
X024363Y021736D01*
X024522Y021578D02*
X023737Y021578D01*
X023737Y021419D02*
X024680Y021419D01*
X024839Y021261D02*
X023737Y021261D01*
X023737Y021102D02*
X024891Y021102D01*
X024891Y020944D02*
X023737Y020944D01*
X023737Y020785D02*
X024891Y020785D01*
X024891Y020627D02*
X023737Y020627D01*
X023737Y020468D02*
X024891Y020468D01*
X024891Y020310D02*
X023737Y020310D01*
X023737Y020151D02*
X024891Y020151D01*
X024891Y019993D02*
X023737Y019993D01*
X023079Y019517D02*
X021127Y019517D01*
X020969Y019676D02*
X023001Y019676D01*
X023001Y019834D02*
X020810Y019834D01*
X020652Y019993D02*
X023001Y019993D01*
X023001Y020151D02*
X020493Y020151D01*
X020335Y020310D02*
X023001Y020310D01*
X023001Y020468D02*
X020176Y020468D01*
X020018Y020627D02*
X023001Y020627D01*
X023001Y020785D02*
X019859Y020785D01*
X019701Y020944D02*
X023001Y020944D01*
X023001Y021102D02*
X019542Y021102D01*
X019384Y021261D02*
X023001Y021261D01*
X023001Y021419D02*
X019225Y021419D01*
X019067Y021578D02*
X023001Y021578D01*
X023001Y021736D02*
X018908Y021736D01*
X018750Y021895D02*
X022929Y021895D01*
X022929Y022053D02*
X018591Y022053D01*
X018433Y022212D02*
X022967Y022212D01*
X023126Y022370D02*
X018274Y022370D01*
X017709Y021895D02*
X015796Y021895D01*
X015796Y022053D02*
X017550Y022053D01*
X017629Y021974D02*
X020822Y018781D01*
X020957Y018725D01*
X023566Y018725D01*
X023566Y018453D01*
X021801Y018453D01*
X021669Y018399D01*
X021330Y018060D01*
X021183Y018060D01*
X021150Y018092D01*
X021150Y018224D01*
X021095Y018356D01*
X020994Y018458D01*
X020432Y019020D01*
X020418Y019053D01*
X020313Y019158D01*
X020176Y019215D01*
X019641Y019215D01*
X019575Y019281D01*
X019210Y019281D01*
X018953Y019024D01*
X018953Y018659D01*
X019210Y018401D01*
X019575Y018401D01*
X019641Y018468D01*
X019966Y018468D01*
X020337Y018096D01*
X020139Y018096D01*
X020139Y017718D01*
X020103Y017718D01*
X020103Y018096D01*
X019900Y018096D01*
X019855Y018084D01*
X019814Y018060D01*
X019780Y018027D01*
X019756Y017986D01*
X019744Y017940D01*
X019744Y017718D01*
X020103Y017718D01*
X020103Y017681D01*
X019744Y017681D01*
X019744Y017621D01*
X015796Y021569D01*
X015796Y028346D01*
X015891Y028441D01*
X015936Y028549D01*
X015981Y028441D01*
X016132Y028290D01*
X016329Y028208D01*
X016543Y028208D01*
X016740Y028290D01*
X016891Y028441D01*
X016936Y028549D01*
X016981Y028441D01*
X017068Y028354D01*
X017068Y022615D01*
X017124Y022479D01*
X017334Y022270D01*
X017629Y021974D01*
X017392Y022212D02*
X015796Y022212D01*
X015796Y022370D02*
X017233Y022370D01*
X017104Y022529D02*
X015796Y022529D01*
X015796Y022687D02*
X017068Y022687D01*
X017068Y022846D02*
X015796Y022846D01*
X015796Y023004D02*
X017068Y023004D01*
X017068Y023163D02*
X015796Y023163D01*
X015796Y023321D02*
X017068Y023321D01*
X017068Y023480D02*
X015796Y023480D01*
X015796Y023638D02*
X017068Y023638D01*
X017068Y023797D02*
X015796Y023797D01*
X015796Y023955D02*
X017068Y023955D01*
X017068Y024114D02*
X015796Y024114D01*
X015796Y024272D02*
X017068Y024272D01*
X017068Y024431D02*
X015796Y024431D01*
X015796Y024589D02*
X017068Y024589D01*
X017068Y024748D02*
X015796Y024748D01*
X015796Y024906D02*
X017068Y024906D01*
X017068Y025065D02*
X015796Y025065D01*
X015796Y025223D02*
X017068Y025223D01*
X017068Y025382D02*
X015796Y025382D01*
X015796Y025540D02*
X017068Y025540D01*
X017068Y025699D02*
X015796Y025699D01*
X015796Y025857D02*
X017068Y025857D01*
X017068Y026016D02*
X015796Y026016D01*
X015796Y026174D02*
X017068Y026174D01*
X017068Y026333D02*
X015796Y026333D01*
X015796Y026491D02*
X017068Y026491D01*
X017068Y026650D02*
X015796Y026650D01*
X015796Y026808D02*
X017068Y026808D01*
X017068Y026967D02*
X015796Y026967D01*
X015796Y027125D02*
X017068Y027125D01*
X017068Y027284D02*
X015796Y027284D01*
X015796Y027442D02*
X017068Y027442D01*
X017068Y027601D02*
X015796Y027601D01*
X015796Y027759D02*
X017068Y027759D01*
X017068Y027918D02*
X015796Y027918D01*
X015796Y028076D02*
X017068Y028076D01*
X017068Y028235D02*
X016607Y028235D01*
X016843Y028393D02*
X017029Y028393D01*
X016436Y028745D02*
X016952Y029261D01*
X016952Y030652D01*
X017843Y028393D02*
X018029Y028393D01*
X018126Y028235D02*
X017804Y028235D01*
X017804Y028076D02*
X018126Y028076D01*
X018126Y027918D02*
X017804Y027918D01*
X017804Y027759D02*
X018126Y027759D01*
X018126Y027601D02*
X017804Y027601D01*
X017804Y027442D02*
X018126Y027442D01*
X018126Y027284D02*
X017804Y027284D01*
X017804Y027125D02*
X018126Y027125D01*
X018126Y026967D02*
X017804Y026967D01*
X017804Y026808D02*
X018126Y026808D01*
X018126Y026650D02*
X017804Y026650D01*
X017804Y026491D02*
X018126Y026491D01*
X018126Y026333D02*
X017804Y026333D01*
X017804Y026174D02*
X018126Y026174D01*
X018126Y026016D02*
X017804Y026016D01*
X017804Y025857D02*
X018126Y025857D01*
X018126Y025699D02*
X017804Y025699D01*
X017804Y025540D02*
X018126Y025540D01*
X018126Y025382D02*
X017804Y025382D01*
X017804Y025223D02*
X018126Y025223D01*
X018126Y025065D02*
X017804Y025065D01*
X017804Y024906D02*
X018126Y024906D01*
X018126Y024748D02*
X017804Y024748D01*
X017804Y024589D02*
X018126Y024589D01*
X018100Y024431D02*
X017804Y024431D01*
X017804Y024272D02*
X018086Y024272D01*
X018086Y024114D02*
X017804Y024114D01*
X017804Y023955D02*
X018184Y023955D01*
X018343Y023797D02*
X017804Y023797D01*
X017867Y021736D02*
X015796Y021736D01*
X015796Y021578D02*
X018026Y021578D01*
X018184Y021419D02*
X015946Y021419D01*
X016105Y021261D02*
X018343Y021261D01*
X018501Y021102D02*
X016263Y021102D01*
X016422Y020944D02*
X018660Y020944D01*
X018818Y020785D02*
X016580Y020785D01*
X016739Y020627D02*
X018977Y020627D01*
X019135Y020468D02*
X016897Y020468D01*
X017056Y020310D02*
X019294Y020310D01*
X019452Y020151D02*
X017214Y020151D01*
X017373Y019993D02*
X019611Y019993D01*
X019769Y019834D02*
X017531Y019834D01*
X017690Y019676D02*
X019928Y019676D01*
X020086Y019517D02*
X017848Y019517D01*
X018007Y019359D02*
X020245Y019359D01*
X020212Y019200D02*
X020403Y019200D01*
X020423Y019042D02*
X020562Y019042D01*
X020569Y018883D02*
X020720Y018883D01*
X020727Y018725D02*
X023566Y018725D01*
X023566Y018566D02*
X020886Y018566D01*
X020994Y018458D02*
X020994Y018458D01*
X021044Y018408D02*
X021691Y018408D01*
X021519Y018249D02*
X021140Y018249D01*
X021152Y018091D02*
X021361Y018091D01*
X020185Y018249D02*
X019116Y018249D01*
X019204Y018408D02*
X018958Y018408D01*
X019046Y018566D02*
X018799Y018566D01*
X018953Y018725D02*
X018641Y018725D01*
X018482Y018883D02*
X018953Y018883D01*
X018970Y019042D02*
X018324Y019042D01*
X018165Y019200D02*
X019129Y019200D01*
X019581Y018408D02*
X020026Y018408D01*
X020103Y018091D02*
X020139Y018091D01*
X020139Y017932D02*
X020103Y017932D01*
X020103Y017774D02*
X020139Y017774D01*
X019744Y017774D02*
X019592Y017774D01*
X019744Y017932D02*
X019433Y017932D01*
X019275Y018091D02*
X019879Y018091D01*
X019207Y017140D02*
X014010Y017140D01*
X014075Y016981D02*
X019366Y016981D01*
X019524Y016823D02*
X014090Y016823D01*
X014090Y016664D02*
X022404Y016664D01*
X022562Y016823D02*
X021938Y016823D01*
X022096Y016981D02*
X023626Y016981D01*
X023626Y017140D02*
X022255Y017140D01*
X022245Y016506D02*
X014090Y016506D01*
X014090Y016347D02*
X014470Y016347D01*
X014262Y016189D02*
X014090Y016189D01*
X014104Y016030D02*
X014049Y016030D01*
X013787Y015713D02*
X013694Y015713D01*
X013628Y015555D02*
X008228Y015555D01*
X008069Y015713D02*
X013406Y015713D01*
X013153Y015872D02*
X012083Y015872D01*
X012136Y015925D01*
X012181Y015986D01*
X012215Y016054D01*
X012238Y016125D01*
X012250Y016200D01*
X012250Y016518D01*
X011790Y016518D01*
X011790Y015758D01*
X011808Y015758D01*
X011883Y015770D01*
X011955Y015793D01*
X012022Y015827D01*
X012083Y015872D01*
X012203Y016030D02*
X013052Y016030D01*
X013010Y016189D02*
X012248Y016189D01*
X012250Y016347D02*
X013010Y016347D01*
X013010Y016506D02*
X012250Y016506D01*
X012250Y016558D02*
X012250Y016876D01*
X012238Y016950D01*
X012215Y017022D01*
X012181Y017089D01*
X012136Y017150D01*
X012083Y017204D01*
X012022Y017248D01*
X011955Y017283D01*
X011883Y017306D01*
X011808Y017318D01*
X011790Y017318D01*
X011790Y016558D01*
X011750Y016558D01*
X011750Y016518D01*
X011290Y016518D01*
X011290Y016200D01*
X011302Y016125D01*
X011325Y016054D01*
X011360Y015986D01*
X011404Y015925D01*
X011458Y015872D01*
X011519Y015827D01*
X011586Y015793D01*
X011658Y015770D01*
X011733Y015758D01*
X011750Y015758D01*
X011750Y016518D01*
X011790Y016518D01*
X011790Y016558D01*
X012250Y016558D01*
X012250Y016664D02*
X013010Y016664D01*
X013010Y016823D02*
X012250Y016823D01*
X012228Y016981D02*
X013025Y016981D01*
X013091Y017140D02*
X012144Y017140D01*
X011907Y017298D02*
X013250Y017298D01*
X013850Y017298D02*
X019049Y017298D01*
X018890Y017457D02*
X006760Y017457D01*
X006760Y017615D02*
X018732Y017615D01*
X018573Y017774D02*
X006760Y017774D01*
X006760Y017932D02*
X016097Y017932D01*
X015939Y018091D02*
X006760Y018091D01*
X006760Y018249D02*
X015882Y018249D01*
X015774Y018408D02*
X013924Y018408D01*
X013856Y018340D02*
X014008Y018492D01*
X014090Y018690D01*
X014090Y019505D01*
X014008Y019704D01*
X013856Y019856D01*
X013658Y019938D01*
X013443Y019938D01*
X013244Y019856D01*
X013093Y019704D01*
X013010Y019505D01*
X013010Y018690D01*
X013093Y018492D01*
X013244Y018340D01*
X013443Y018258D01*
X013658Y018258D01*
X013856Y018340D01*
X014039Y018566D02*
X015616Y018566D01*
X015457Y018725D02*
X014090Y018725D01*
X014090Y018883D02*
X015299Y018883D01*
X015140Y019042D02*
X014090Y019042D01*
X014090Y019200D02*
X014982Y019200D01*
X014823Y019359D02*
X014090Y019359D01*
X014085Y019517D02*
X014665Y019517D01*
X014506Y019676D02*
X014020Y019676D01*
X013878Y019834D02*
X014348Y019834D01*
X015049Y020151D02*
X016196Y020151D01*
X016354Y019993D02*
X015207Y019993D01*
X015366Y019834D02*
X016513Y019834D01*
X016671Y019676D02*
X015524Y019676D01*
X015683Y019517D02*
X016830Y019517D01*
X016988Y019359D02*
X015841Y019359D01*
X016000Y019200D02*
X017147Y019200D01*
X017305Y019042D02*
X016158Y019042D01*
X016317Y018883D02*
X017464Y018883D01*
X017622Y018725D02*
X016549Y018725D01*
X016708Y018566D02*
X017781Y018566D01*
X017939Y018408D02*
X016762Y018408D01*
X016762Y018249D02*
X018098Y018249D01*
X018256Y018091D02*
X016705Y018091D01*
X016546Y017932D02*
X018415Y017932D01*
X016037Y020310D02*
X014890Y020310D01*
X014732Y020468D02*
X015879Y020468D01*
X015720Y020627D02*
X014613Y020627D01*
X015245Y021102D02*
X006760Y021102D01*
X006760Y020944D02*
X015403Y020944D01*
X015562Y020785D02*
X006856Y020785D01*
X006760Y021261D02*
X015112Y021261D01*
X015076Y021419D02*
X006760Y021419D01*
X006760Y021578D02*
X015076Y021578D01*
X015076Y021736D02*
X006760Y021736D01*
X006760Y021895D02*
X015076Y021895D01*
X015076Y022053D02*
X006760Y022053D01*
X006810Y022212D02*
X015076Y022212D01*
X015076Y022370D02*
X006840Y022370D01*
X006840Y022529D02*
X015076Y022529D01*
X015076Y022687D02*
X006760Y022687D01*
X006601Y022846D02*
X015076Y022846D01*
X015076Y023004D02*
X003688Y023004D01*
X003846Y023163D02*
X015076Y023163D01*
X015076Y023321D02*
X004005Y023321D01*
X004163Y023480D02*
X015076Y023480D01*
X015076Y023638D02*
X004322Y023638D01*
X004480Y023797D02*
X014288Y023797D01*
X014289Y023795D02*
X014654Y023795D01*
X014911Y024053D01*
X014911Y024417D01*
X014654Y024675D01*
X014289Y024675D01*
X014249Y024635D01*
X004274Y024635D01*
X004127Y024574D01*
X004014Y024462D01*
X002006Y022454D01*
X001945Y022307D01*
X001945Y007213D01*
X001905Y007173D01*
X001905Y006809D01*
X002163Y006551D01*
X002528Y006551D01*
X002785Y006809D01*
X002785Y007173D01*
X002745Y007213D01*
X002745Y022062D01*
X004519Y023835D01*
X014249Y023835D01*
X014289Y023795D01*
X014655Y023797D02*
X015076Y023797D01*
X015076Y023955D02*
X014814Y023955D01*
X014911Y024114D02*
X015076Y024114D01*
X015076Y024272D02*
X014911Y024272D01*
X014898Y024431D02*
X015076Y024431D01*
X015076Y024589D02*
X014740Y024589D01*
X015076Y024748D02*
X002894Y024748D01*
X003053Y024906D02*
X015076Y024906D01*
X015076Y025065D02*
X014742Y025065D01*
X014872Y025223D02*
X015076Y025223D01*
X015076Y025382D02*
X014872Y025382D01*
X014872Y025540D02*
X015076Y025540D01*
X015076Y025699D02*
X014733Y025699D01*
X015076Y025857D02*
X000420Y025857D01*
X000420Y025699D02*
X002851Y025699D01*
X002669Y025540D02*
X000420Y025540D01*
X000420Y025382D02*
X002510Y025382D01*
X002352Y025223D02*
X000420Y025223D01*
X000420Y025065D02*
X002193Y025065D01*
X002035Y024906D02*
X000420Y024906D01*
X000420Y024748D02*
X001876Y024748D01*
X001718Y024589D02*
X000420Y024589D01*
X000420Y024431D02*
X001559Y024431D01*
X001401Y024272D02*
X000420Y024272D01*
X000420Y024114D02*
X001242Y024114D01*
X001088Y023955D02*
X000420Y023955D01*
X000420Y023797D02*
X001037Y023797D01*
X001037Y023638D02*
X000420Y023638D01*
X000420Y023480D02*
X001037Y023480D01*
X001037Y023321D02*
X000420Y023321D01*
X000420Y023163D02*
X001037Y023163D01*
X001037Y023004D02*
X000420Y023004D01*
X000420Y022846D02*
X001037Y022846D01*
X001037Y022687D02*
X000420Y022687D01*
X000420Y022529D02*
X001037Y022529D01*
X001037Y022370D02*
X000420Y022370D01*
X000420Y022212D02*
X001037Y022212D01*
X001037Y022053D02*
X000420Y022053D01*
X000420Y021895D02*
X001037Y021895D01*
X001037Y021736D02*
X000420Y021736D01*
X000420Y021578D02*
X001037Y021578D01*
X001037Y021419D02*
X000420Y021419D01*
X000420Y021261D02*
X001037Y021261D01*
X001037Y021102D02*
X000420Y021102D01*
X000420Y020944D02*
X001037Y020944D01*
X001037Y020785D02*
X000420Y020785D01*
X000420Y020627D02*
X001037Y020627D01*
X001037Y020468D02*
X000420Y020468D01*
X000420Y020310D02*
X001037Y020310D01*
X001037Y020151D02*
X000420Y020151D01*
X000420Y019993D02*
X001037Y019993D01*
X001037Y019834D02*
X000420Y019834D01*
X000420Y019676D02*
X001037Y019676D01*
X001037Y019517D02*
X000420Y019517D01*
X000420Y019359D02*
X001037Y019359D01*
X001037Y019200D02*
X000420Y019200D01*
X000420Y019042D02*
X001037Y019042D01*
X001037Y018883D02*
X000420Y018883D01*
X000420Y018725D02*
X001037Y018725D01*
X001037Y018566D02*
X000420Y018566D01*
X000420Y018408D02*
X001037Y018408D01*
X001037Y018249D02*
X000420Y018249D01*
X000420Y018091D02*
X001037Y018091D01*
X001037Y017932D02*
X000420Y017932D01*
X000420Y017774D02*
X001037Y017774D01*
X001037Y017615D02*
X000420Y017615D01*
X000420Y017457D02*
X001037Y017457D01*
X001037Y017298D02*
X000420Y017298D01*
X000420Y017140D02*
X001037Y017140D01*
X001037Y016981D02*
X000420Y016981D01*
X000420Y016823D02*
X001037Y016823D01*
X001037Y016664D02*
X000420Y016664D01*
X000420Y016506D02*
X001037Y016506D01*
X001037Y016347D02*
X000420Y016347D01*
X000420Y016189D02*
X001037Y016189D01*
X001037Y016030D02*
X000420Y016030D01*
X000420Y015872D02*
X001037Y015872D01*
X001037Y015713D02*
X000420Y015713D01*
X000420Y015555D02*
X001037Y015555D01*
X001037Y015396D02*
X000420Y015396D01*
X000420Y015238D02*
X001037Y015238D01*
X001037Y015079D02*
X000420Y015079D01*
X000420Y014921D02*
X001037Y014921D01*
X001037Y014762D02*
X000420Y014762D01*
X000420Y014604D02*
X001037Y014604D01*
X001037Y014445D02*
X000420Y014445D01*
X000420Y014287D02*
X001037Y014287D01*
X001037Y014128D02*
X000420Y014128D01*
X000420Y013970D02*
X001037Y013970D01*
X001037Y013811D02*
X000420Y013811D01*
X000420Y013653D02*
X001037Y013653D01*
X001037Y013494D02*
X000420Y013494D01*
X000420Y013336D02*
X001037Y013336D01*
X001037Y013177D02*
X000420Y013177D01*
X000420Y013019D02*
X001037Y013019D01*
X001037Y012860D02*
X000420Y012860D01*
X000420Y012702D02*
X001037Y012702D01*
X001037Y012543D02*
X000420Y012543D01*
X000420Y012385D02*
X001037Y012385D01*
X001037Y012226D02*
X000420Y012226D01*
X000420Y012068D02*
X001037Y012068D01*
X001037Y011909D02*
X000420Y011909D01*
X000420Y011751D02*
X001037Y011751D01*
X001037Y011592D02*
X000420Y011592D01*
X000420Y011434D02*
X001037Y011434D01*
X001037Y011275D02*
X000420Y011275D01*
X000420Y011117D02*
X001037Y011117D01*
X001037Y010958D02*
X000420Y010958D01*
X000420Y010800D02*
X001037Y010800D01*
X001037Y010641D02*
X000420Y010641D01*
X000420Y010483D02*
X001037Y010483D01*
X001037Y010324D02*
X000420Y010324D01*
X000420Y010166D02*
X001037Y010166D01*
X001037Y010007D02*
X000420Y010007D01*
X000420Y009849D02*
X001037Y009849D01*
X001037Y009690D02*
X000420Y009690D01*
X000420Y009532D02*
X001037Y009532D01*
X001037Y009373D02*
X000420Y009373D01*
X000420Y009215D02*
X001037Y009215D01*
X001037Y009056D02*
X000420Y009056D01*
X000420Y008898D02*
X001037Y008898D01*
X001037Y008739D02*
X000420Y008739D01*
X000420Y008581D02*
X001037Y008581D01*
X001037Y008422D02*
X000420Y008422D01*
X000420Y008264D02*
X001037Y008264D01*
X001037Y008105D02*
X000420Y008105D01*
X000420Y007947D02*
X001037Y007947D01*
X001037Y007788D02*
X000420Y007788D01*
X000637Y007630D02*
X000637Y007630D01*
X000637Y007471D02*
X000637Y007471D01*
X000637Y007313D02*
X000637Y007313D01*
X000637Y007154D02*
X000637Y007154D01*
X000637Y006996D02*
X000637Y006996D01*
X000672Y006837D02*
X000420Y006837D01*
X000420Y006679D02*
X000622Y006679D01*
X000622Y006520D02*
X000420Y006520D01*
X000420Y006362D02*
X000622Y006362D01*
X000658Y006203D02*
X000420Y006203D01*
X000420Y006045D02*
X000426Y006045D01*
X000637Y006045D02*
X000637Y006045D01*
X000637Y005886D02*
X000637Y005886D01*
X000637Y005728D02*
X000637Y005728D01*
X000637Y005569D02*
X000637Y005569D01*
X000637Y005411D02*
X000637Y005411D01*
X000701Y005252D02*
X000420Y005252D01*
X000420Y005094D02*
X000622Y005094D01*
X000622Y004935D02*
X000420Y004935D01*
X000420Y004777D02*
X000622Y004777D01*
X000646Y004618D02*
X000420Y004618D01*
X000420Y004460D02*
X000657Y004460D01*
X000657Y004301D02*
X000420Y004301D01*
X000420Y004143D02*
X000657Y004143D01*
X000657Y003984D02*
X000420Y003984D01*
X000420Y003826D02*
X000657Y003826D01*
X000657Y003667D02*
X000420Y003667D01*
X000420Y003509D02*
X000657Y003509D01*
X000657Y003350D02*
X000420Y003350D01*
X000420Y003192D02*
X000657Y003192D01*
X000657Y003033D02*
X000420Y003033D01*
X000420Y002875D02*
X000657Y002875D01*
X000698Y002716D02*
X000420Y002716D01*
X000420Y002558D02*
X000837Y002558D01*
X000921Y002399D02*
X000420Y002399D01*
X000420Y002241D02*
X001041Y002241D01*
X001073Y002082D02*
X000420Y002082D01*
X000420Y001924D02*
X000913Y001924D01*
X000848Y001765D02*
X000420Y001765D01*
X000420Y001607D02*
X000833Y001607D01*
X000833Y001448D02*
X000420Y001448D01*
X000420Y001290D02*
X000833Y001290D01*
X000833Y001131D02*
X000420Y001131D01*
X000420Y000973D02*
X000833Y000973D01*
X000874Y000814D02*
X000420Y000814D01*
X000420Y000656D02*
X000975Y000656D01*
X001229Y000497D02*
X000420Y000497D01*
X001517Y000497D02*
X002229Y000497D01*
X002517Y000497D02*
X005599Y000497D01*
X005887Y000497D02*
X012570Y000497D01*
X012345Y000656D02*
X007056Y000656D01*
X007109Y000709D01*
X007154Y000770D01*
X007188Y000837D01*
X007211Y000909D01*
X007223Y000984D01*
X007223Y001302D01*
X006763Y001302D01*
X006763Y000542D01*
X006781Y000542D01*
X006855Y000554D01*
X006927Y000577D01*
X006995Y000611D01*
X007056Y000656D01*
X007176Y000814D02*
X012186Y000814D01*
X012028Y000973D02*
X007221Y000973D01*
X007223Y001131D02*
X011869Y001131D01*
X011711Y001290D02*
X007223Y001290D01*
X007223Y001342D02*
X007223Y001660D01*
X007211Y001734D01*
X007188Y001806D01*
X007154Y001873D01*
X007109Y001934D01*
X007056Y001988D01*
X006995Y002032D01*
X006927Y002067D01*
X006855Y002090D01*
X006781Y002102D01*
X006763Y002102D01*
X006763Y001342D01*
X007223Y001342D01*
X007223Y001448D02*
X007598Y001448D01*
X007440Y001607D02*
X007223Y001607D01*
X007201Y001765D02*
X007281Y001765D01*
X007193Y001924D02*
X007117Y001924D01*
X007182Y002082D02*
X006880Y002082D01*
X006763Y002082D02*
X006723Y002082D01*
X006606Y002082D02*
X006043Y002082D01*
X006202Y001924D02*
X006369Y001924D01*
X006285Y001765D02*
X006268Y001765D01*
X006723Y001765D02*
X006763Y001765D01*
X006763Y001607D02*
X006723Y001607D01*
X006723Y001448D02*
X006763Y001448D01*
X006763Y001290D02*
X006723Y001290D01*
X006723Y001131D02*
X006763Y001131D01*
X006763Y000973D02*
X006723Y000973D01*
X006723Y000814D02*
X006763Y000814D01*
X006763Y000656D02*
X006723Y000656D01*
X006430Y000656D02*
X006140Y000656D01*
X006241Y000814D02*
X006310Y000814D01*
X005346Y000656D02*
X002770Y000656D01*
X002871Y000814D02*
X005245Y000814D01*
X005203Y000973D02*
X004981Y000973D01*
X005139Y001131D02*
X005203Y001131D01*
X005203Y001290D02*
X005148Y001290D01*
X005148Y001448D02*
X005203Y001448D01*
X005203Y001607D02*
X005045Y001607D01*
X005218Y001765D02*
X004773Y001765D01*
X004615Y001924D02*
X005283Y001924D01*
X005215Y002082D02*
X004605Y002082D01*
X004640Y002241D02*
X005056Y002241D01*
X004976Y002399D02*
X004640Y002399D01*
X004640Y002558D02*
X004976Y002558D01*
X005007Y002716D02*
X004609Y002716D01*
X004951Y002875D02*
X005166Y002875D01*
X005020Y003033D02*
X005865Y003033D01*
X005865Y003192D02*
X005107Y003192D01*
X005154Y003350D02*
X005865Y003350D01*
X005895Y003509D02*
X005154Y003509D01*
X005154Y003667D02*
X005874Y003667D01*
X005846Y003826D02*
X005154Y003826D01*
X005154Y003984D02*
X005846Y003984D01*
X005846Y004143D02*
X005154Y004143D01*
X005154Y004301D02*
X005846Y004301D01*
X005896Y004460D02*
X005154Y004460D01*
X005154Y004618D02*
X005846Y004618D01*
X005846Y004777D02*
X005185Y004777D01*
X005715Y004935D02*
X005846Y004935D01*
X005896Y005231D02*
X005896Y005480D01*
X005638Y005738D01*
X005273Y005738D01*
X005233Y005698D01*
X005061Y005698D01*
X004914Y005637D01*
X004863Y005587D01*
X004828Y005601D01*
X004565Y005601D01*
X004565Y005879D01*
X004616Y005930D01*
X004652Y006018D01*
X004652Y006547D01*
X004616Y006635D01*
X004600Y006650D01*
X005211Y007261D01*
X008500Y007261D01*
X008580Y007181D01*
X008945Y007181D01*
X009025Y007261D01*
X010300Y007261D01*
X010055Y007016D01*
X010055Y006922D01*
X009874Y006741D01*
X007362Y006741D01*
X007357Y006746D01*
X007269Y006782D01*
X006863Y006782D01*
X006775Y006746D01*
X006708Y006678D01*
X006671Y006590D01*
X006671Y006145D01*
X006708Y006056D01*
X006775Y005989D01*
X006791Y005982D01*
X006483Y005982D01*
X006395Y005946D01*
X006328Y005878D01*
X006291Y005790D01*
X006291Y005693D01*
X006010Y005411D01*
X005959Y005289D01*
X005950Y005285D01*
X005896Y005231D01*
X005896Y005252D02*
X005917Y005252D01*
X005896Y005411D02*
X006009Y005411D01*
X006167Y005569D02*
X005807Y005569D01*
X005648Y005728D02*
X006291Y005728D01*
X006335Y005886D02*
X004572Y005886D01*
X004565Y005728D02*
X005263Y005728D01*
X004652Y006045D02*
X006047Y006045D01*
X006041Y006048D02*
X006082Y006025D01*
X006127Y006012D01*
X006306Y006012D01*
X006306Y006367D01*
X006306Y006367D01*
X006306Y006012D01*
X006485Y006012D01*
X006531Y006025D01*
X006572Y006048D01*
X006605Y006082D01*
X006629Y006123D01*
X006641Y006169D01*
X006641Y006367D01*
X006306Y006367D01*
X005971Y006367D01*
X005971Y006169D01*
X005983Y006123D01*
X006007Y006082D01*
X006041Y006048D01*
X005971Y006203D02*
X004652Y006203D01*
X004652Y006362D02*
X005971Y006362D01*
X005971Y006367D02*
X006306Y006367D01*
X006306Y006367D01*
X006306Y006367D01*
X006641Y006367D01*
X006641Y006566D01*
X006629Y006612D01*
X006605Y006653D01*
X006572Y006686D01*
X006531Y006710D01*
X006485Y006722D01*
X006306Y006722D01*
X006127Y006722D01*
X006082Y006710D01*
X006041Y006686D01*
X006007Y006653D01*
X005983Y006612D01*
X005971Y006566D01*
X005971Y006367D01*
X005971Y006520D02*
X004652Y006520D01*
X004629Y006679D02*
X006033Y006679D01*
X006306Y006679D02*
X006306Y006679D01*
X006306Y006722D02*
X006306Y006367D01*
X006306Y006722D01*
X006306Y006520D02*
X006306Y006520D01*
X006306Y006367D02*
X006306Y006367D01*
X006306Y006362D02*
X006306Y006362D01*
X006306Y006203D02*
X006306Y006203D01*
X006306Y006045D02*
X006306Y006045D01*
X006565Y006045D02*
X006720Y006045D01*
X006671Y006203D02*
X006641Y006203D01*
X006641Y006362D02*
X006671Y006362D01*
X006671Y006520D02*
X006641Y006520D01*
X006580Y006679D02*
X006708Y006679D01*
X006961Y005952D02*
X007269Y005952D01*
X007357Y005989D01*
X007362Y005994D01*
X010103Y005994D01*
X010241Y006050D01*
X010584Y006394D01*
X010677Y006394D01*
X010922Y006639D01*
X010922Y005463D01*
X010977Y005330D01*
X011078Y005229D01*
X011454Y004854D01*
X011454Y004089D01*
X011442Y004084D01*
X011374Y004017D01*
X011338Y003929D01*
X011338Y003651D01*
X011309Y003721D01*
X011241Y003789D01*
X011153Y003826D01*
X010961Y003826D01*
X010837Y003950D01*
X010704Y004005D01*
X010684Y004005D01*
X010679Y004017D01*
X010611Y004084D01*
X010523Y004121D01*
X009955Y004121D01*
X009867Y004084D01*
X009826Y004043D01*
X009784Y004084D01*
X009772Y004089D01*
X009772Y004248D01*
X009717Y004380D01*
X009163Y004934D01*
X009163Y005047D01*
X008906Y005305D01*
X008541Y005305D01*
X008283Y005047D01*
X008283Y004683D01*
X008541Y004425D01*
X008654Y004425D01*
X009018Y004062D01*
X008973Y004017D01*
X008936Y003929D01*
X008936Y003361D01*
X008973Y003272D01*
X008974Y003271D01*
X008974Y002856D01*
X008933Y002816D01*
X008897Y002728D01*
X008897Y002199D01*
X008915Y002155D01*
X008650Y002155D01*
X008668Y002199D01*
X008668Y002445D01*
X008678Y002469D01*
X008678Y003203D01*
X008682Y003205D01*
X008750Y003272D01*
X008786Y003361D01*
X008786Y003929D01*
X008750Y004017D01*
X008682Y004084D01*
X008594Y004121D01*
X008026Y004121D01*
X007938Y004084D01*
X007870Y004017D01*
X007861Y003994D01*
X007830Y004025D01*
X007789Y004049D01*
X007743Y004061D01*
X007521Y004061D01*
X007521Y003683D01*
X007445Y003683D01*
X007445Y004061D01*
X007223Y004061D01*
X007177Y004049D01*
X007136Y004025D01*
X007103Y003991D01*
X007079Y003950D01*
X007067Y003904D01*
X007067Y003683D01*
X007445Y003683D01*
X007445Y003606D01*
X007521Y003606D01*
X007521Y003228D01*
X007743Y003228D01*
X007789Y003241D01*
X007830Y003264D01*
X007861Y003295D01*
X007870Y003272D01*
X007938Y003205D01*
X007942Y003203D01*
X007942Y002902D01*
X007898Y002883D01*
X007897Y002882D01*
X007895Y002883D01*
X007806Y002920D01*
X007588Y002920D01*
X007582Y002923D01*
X006768Y002923D01*
X006778Y002947D01*
X006778Y003436D01*
X006742Y003525D01*
X006690Y003577D01*
X006694Y003579D01*
X006761Y003646D01*
X006798Y003735D01*
X006798Y004303D01*
X006761Y004391D01*
X006720Y004432D01*
X006761Y004473D01*
X006798Y004561D01*
X006798Y005129D01*
X006789Y005150D01*
X006791Y005152D01*
X006889Y005152D01*
X006977Y005189D01*
X007045Y005256D01*
X007081Y005345D01*
X007081Y005790D01*
X007045Y005878D01*
X006977Y005946D01*
X006961Y005952D01*
X007037Y005886D02*
X010922Y005886D01*
X010922Y005728D02*
X007081Y005728D01*
X007081Y005569D02*
X010922Y005569D01*
X010944Y005411D02*
X007081Y005411D01*
X007040Y005252D02*
X008488Y005252D01*
X008330Y005094D02*
X006798Y005094D01*
X006798Y004935D02*
X008283Y004935D01*
X008283Y004777D02*
X006798Y004777D01*
X006798Y004618D02*
X008348Y004618D01*
X008507Y004460D02*
X006748Y004460D01*
X006798Y004301D02*
X008778Y004301D01*
X008937Y004143D02*
X006798Y004143D01*
X006798Y003984D02*
X007099Y003984D01*
X007067Y003826D02*
X006798Y003826D01*
X006770Y003667D02*
X007445Y003667D01*
X007445Y003606D02*
X007067Y003606D01*
X007067Y003385D01*
X007079Y003339D01*
X007103Y003298D01*
X007136Y003264D01*
X007177Y003241D01*
X007223Y003228D01*
X007445Y003228D01*
X007445Y003606D01*
X007445Y003509D02*
X007521Y003509D01*
X007521Y003350D02*
X007445Y003350D01*
X007076Y003350D02*
X006778Y003350D01*
X006778Y003192D02*
X007942Y003192D01*
X007942Y003033D02*
X006778Y003033D01*
X006748Y003509D02*
X007067Y003509D01*
X006690Y003577D02*
X006690Y003577D01*
X007445Y003826D02*
X007521Y003826D01*
X007521Y003984D02*
X007445Y003984D01*
X008678Y003192D02*
X008974Y003192D01*
X008974Y003033D02*
X008678Y003033D01*
X008678Y002875D02*
X008974Y002875D01*
X008897Y002716D02*
X008678Y002716D01*
X008678Y002558D02*
X008897Y002558D01*
X008897Y002399D02*
X008668Y002399D01*
X008668Y002241D02*
X008897Y002241D01*
X009694Y002893D02*
X009694Y003168D01*
X009696Y003168D01*
X009784Y003205D01*
X009826Y003246D01*
X009867Y003205D01*
X009955Y003168D01*
X010432Y003168D01*
X010432Y003144D01*
X010469Y003056D01*
X010471Y003054D01*
X010469Y003052D01*
X010432Y002964D01*
X010432Y002823D01*
X010396Y002823D01*
X010336Y002883D01*
X010247Y002920D01*
X009758Y002920D01*
X009694Y002893D01*
X009694Y003033D02*
X010461Y003033D01*
X010432Y002875D02*
X010345Y002875D01*
X009899Y003192D02*
X009752Y003192D01*
X008940Y003350D02*
X008782Y003350D01*
X008786Y003509D02*
X008936Y003509D01*
X008936Y003667D02*
X008786Y003667D01*
X008786Y003826D02*
X008936Y003826D01*
X008959Y003984D02*
X008763Y003984D01*
X009479Y004618D02*
X011454Y004618D01*
X011454Y004460D02*
X009638Y004460D01*
X009750Y004301D02*
X011454Y004301D01*
X011454Y004143D02*
X009772Y004143D01*
X009321Y004777D02*
X011454Y004777D01*
X011373Y004935D02*
X009163Y004935D01*
X009117Y005094D02*
X011214Y005094D01*
X011056Y005252D02*
X008959Y005252D01*
X010226Y006045D02*
X010922Y006045D01*
X010922Y006203D02*
X010393Y006203D01*
X010552Y006362D02*
X010922Y006362D01*
X010922Y006520D02*
X010804Y006520D01*
X011642Y006520D02*
X012378Y006520D01*
X012378Y006362D02*
X011642Y006362D01*
X011642Y006203D02*
X012378Y006203D01*
X012378Y006045D02*
X011642Y006045D01*
X011642Y005886D02*
X012378Y005886D01*
X012378Y005728D02*
X011642Y005728D01*
X011642Y005683D02*
X011642Y007417D01*
X011588Y007549D01*
X011325Y007812D01*
X012236Y007812D01*
X012378Y007669D01*
X012378Y005356D01*
X012358Y005336D01*
X012322Y005247D01*
X012322Y004758D01*
X012358Y004670D01*
X012360Y004668D01*
X012358Y004666D01*
X012322Y004578D01*
X012322Y004106D01*
X012268Y004084D01*
X012227Y004043D01*
X012186Y004084D01*
X012174Y004089D01*
X012174Y005074D01*
X012119Y005207D01*
X011642Y005683D01*
X011757Y005569D02*
X012378Y005569D01*
X012378Y005411D02*
X011915Y005411D01*
X012074Y005252D02*
X012324Y005252D01*
X012322Y005094D02*
X012166Y005094D01*
X012174Y004935D02*
X012322Y004935D01*
X012322Y004777D02*
X012174Y004777D01*
X012174Y004618D02*
X012338Y004618D01*
X012322Y004460D02*
X012174Y004460D01*
X012174Y004301D02*
X012322Y004301D01*
X012322Y004143D02*
X012174Y004143D01*
X011361Y003984D02*
X010754Y003984D01*
X011153Y003826D02*
X011338Y003826D01*
X011331Y003667D02*
X011338Y003667D01*
X011345Y003342D02*
X011374Y003272D01*
X011442Y003205D01*
X011530Y003168D01*
X012098Y003168D01*
X012186Y003205D01*
X012227Y003246D01*
X012268Y003205D01*
X012357Y003168D01*
X012925Y003168D01*
X012969Y003187D01*
X012969Y002030D01*
X013030Y001883D01*
X013542Y001371D01*
X013654Y001258D01*
X013772Y001209D01*
X012809Y001209D01*
X011345Y002674D01*
X011345Y002964D01*
X011309Y003052D01*
X011307Y003054D01*
X011309Y003056D01*
X011345Y003144D01*
X011345Y003342D01*
X011345Y003192D02*
X011474Y003192D01*
X011317Y003033D02*
X012969Y003033D01*
X012969Y002875D02*
X011345Y002875D01*
X011345Y002716D02*
X012969Y002716D01*
X012969Y002558D02*
X011461Y002558D01*
X011620Y002399D02*
X012969Y002399D01*
X012969Y002241D02*
X011778Y002241D01*
X011937Y002082D02*
X012969Y002082D01*
X013013Y001924D02*
X012095Y001924D01*
X012254Y001765D02*
X013147Y001765D01*
X013306Y001607D02*
X012412Y001607D01*
X012571Y001448D02*
X013464Y001448D01*
X013623Y001290D02*
X012729Y001290D01*
X013769Y002275D02*
X013769Y005644D01*
X014684Y006559D01*
X014684Y006530D01*
X014721Y006442D01*
X014761Y006401D01*
X014761Y005325D01*
X014816Y005193D01*
X015111Y004897D01*
X015212Y004796D01*
X015345Y004741D01*
X015461Y004741D01*
X015325Y004605D01*
X015248Y004420D01*
X015227Y004483D01*
X015193Y004550D01*
X015148Y004612D01*
X015095Y004665D01*
X015034Y004709D01*
X014967Y004744D01*
X014895Y004767D01*
X014820Y004779D01*
X014802Y004779D01*
X014802Y004019D01*
X014762Y004019D01*
X014762Y003979D01*
X014302Y003979D01*
X014302Y003661D01*
X014314Y003586D01*
X014338Y003515D01*
X014372Y003447D01*
X014416Y003386D01*
X014470Y003333D01*
X014531Y003288D01*
X014598Y003254D01*
X014670Y003231D01*
X014745Y003219D01*
X014762Y003219D01*
X014762Y003979D01*
X014802Y003979D01*
X014802Y003219D01*
X014820Y003219D01*
X014895Y003231D01*
X014967Y003254D01*
X015034Y003288D01*
X015095Y003333D01*
X015148Y003386D01*
X015193Y003447D01*
X015227Y003515D01*
X015248Y003578D01*
X015325Y003393D01*
X015476Y003241D01*
X015675Y003159D01*
X015890Y003159D01*
X016088Y003241D01*
X016240Y003393D01*
X016317Y003578D01*
X016338Y003515D01*
X016372Y003447D01*
X016416Y003386D01*
X016470Y003333D01*
X016531Y003288D01*
X016598Y003254D01*
X016670Y003231D01*
X016745Y003219D01*
X016762Y003219D01*
X016762Y003979D01*
X016802Y003979D01*
X016802Y003219D01*
X016820Y003219D01*
X016895Y003231D01*
X016967Y003254D01*
X017034Y003288D01*
X017095Y003333D01*
X017148Y003386D01*
X017193Y003447D01*
X017227Y003515D01*
X017248Y003578D01*
X017325Y003393D01*
X017476Y003241D01*
X017675Y003159D01*
X017890Y003159D01*
X018088Y003241D01*
X018240Y003393D01*
X018322Y003591D01*
X018322Y004406D01*
X018240Y004605D01*
X018104Y004741D01*
X019125Y004741D01*
X019348Y004519D01*
X019348Y003455D01*
X019402Y003323D01*
X019504Y003221D01*
X020173Y002552D01*
X020305Y002497D01*
X021566Y002497D01*
X021985Y002078D01*
X021985Y001589D01*
X021606Y001209D01*
X020958Y001209D01*
X021076Y001258D01*
X021408Y001590D01*
X021465Y001590D01*
X021722Y001848D01*
X021722Y002213D01*
X021465Y002470D01*
X021100Y002470D01*
X020842Y002213D01*
X020842Y002156D01*
X020684Y001997D01*
X014046Y001997D01*
X013769Y002275D01*
X013803Y002241D02*
X020870Y002241D01*
X020768Y002082D02*
X013962Y002082D01*
X013769Y002399D02*
X021029Y002399D01*
X021536Y002399D02*
X021664Y002399D01*
X021695Y002241D02*
X021823Y002241D01*
X021722Y002082D02*
X021981Y002082D01*
X021985Y001924D02*
X021722Y001924D01*
X021639Y001765D02*
X021985Y001765D01*
X021985Y001607D02*
X021481Y001607D01*
X021266Y001448D02*
X021844Y001448D01*
X021686Y001290D02*
X021107Y001290D01*
X021845Y000497D02*
X039310Y000497D01*
X039310Y000656D02*
X022070Y000656D01*
X022229Y000814D02*
X039310Y000814D01*
X039310Y000973D02*
X022387Y000973D01*
X022546Y001131D02*
X039310Y001131D01*
X039310Y001290D02*
X022673Y001290D01*
X022705Y001448D02*
X039310Y001448D01*
X039310Y001607D02*
X022705Y001607D01*
X022705Y001765D02*
X039310Y001765D01*
X039310Y001924D02*
X022705Y001924D01*
X022705Y002082D02*
X039310Y002082D01*
X039310Y002241D02*
X022705Y002241D01*
X022664Y002399D02*
X039310Y002399D01*
X039310Y002558D02*
X022524Y002558D01*
X022366Y002716D02*
X039310Y002716D01*
X039310Y002875D02*
X022207Y002875D01*
X022049Y003033D02*
X039310Y003033D01*
X039310Y003192D02*
X021849Y003192D01*
X021956Y003478D02*
X021804Y003630D01*
X021721Y003828D01*
X021721Y004043D01*
X021804Y004242D01*
X021956Y004393D01*
X022154Y004476D01*
X022969Y004476D01*
X023167Y004393D01*
X023319Y004242D01*
X023401Y004043D01*
X023401Y003828D01*
X023319Y003630D01*
X023167Y003478D01*
X022969Y003396D01*
X022154Y003396D01*
X021956Y003478D01*
X021925Y003509D02*
X021490Y003509D01*
X021624Y003667D02*
X021788Y003667D01*
X021723Y003826D02*
X021689Y003826D01*
X021689Y003984D02*
X021721Y003984D01*
X021763Y004143D02*
X021647Y004143D01*
X021544Y004301D02*
X021863Y004301D01*
X022115Y004460D02*
X021287Y004460D01*
X021514Y004618D02*
X039310Y004618D01*
X039310Y004460D02*
X025568Y004460D01*
X025529Y004476D02*
X024714Y004476D01*
X024516Y004393D01*
X024364Y004242D01*
X024281Y004043D01*
X024281Y003828D01*
X024364Y003630D01*
X024516Y003478D01*
X024714Y003396D01*
X025529Y003396D01*
X025727Y003478D01*
X025879Y003630D01*
X025961Y003828D01*
X025961Y004043D01*
X025879Y004242D01*
X025727Y004393D01*
X025529Y004476D01*
X025820Y004301D02*
X036396Y004301D01*
X036422Y004326D02*
X036362Y004267D01*
X036313Y004199D01*
X036275Y004125D01*
X036249Y004045D01*
X036236Y003962D01*
X036236Y003958D01*
X037083Y003958D01*
X037083Y003883D01*
X036236Y003883D01*
X036236Y003878D01*
X036249Y003795D01*
X036275Y003716D01*
X036313Y003641D01*
X036362Y003573D01*
X036422Y003514D01*
X036489Y003465D01*
X036564Y003427D01*
X036644Y003401D01*
X036727Y003388D01*
X037083Y003388D01*
X037083Y003883D01*
X037158Y003883D01*
X037158Y003388D01*
X037515Y003388D01*
X037598Y003401D01*
X037678Y003427D01*
X037753Y003465D01*
X037820Y003514D01*
X037880Y003573D01*
X037929Y003641D01*
X037967Y003716D01*
X037993Y003795D01*
X038006Y003878D01*
X038006Y003883D01*
X037158Y003883D01*
X037158Y003958D01*
X037083Y003958D01*
X037083Y004453D01*
X036727Y004453D01*
X036644Y004440D01*
X036564Y004414D01*
X036489Y004376D01*
X036422Y004326D01*
X036284Y004143D02*
X025920Y004143D01*
X025961Y003984D02*
X036239Y003984D01*
X036244Y003826D02*
X025960Y003826D01*
X025895Y003667D02*
X036300Y003667D01*
X036429Y003509D02*
X025758Y003509D01*
X024485Y003509D02*
X023198Y003509D01*
X023335Y003667D02*
X024348Y003667D01*
X024283Y003826D02*
X023400Y003826D01*
X023401Y003984D02*
X024281Y003984D01*
X024323Y004143D02*
X023360Y004143D01*
X023260Y004301D02*
X024423Y004301D01*
X024675Y004460D02*
X023008Y004460D01*
X022899Y005236D02*
X022581Y005236D01*
X022581Y005696D01*
X022541Y005696D01*
X021781Y005696D01*
X021781Y005678D01*
X021793Y005603D01*
X021817Y005531D01*
X021851Y005464D01*
X021895Y005403D01*
X021949Y005350D01*
X022010Y005305D01*
X022077Y005271D01*
X022149Y005247D01*
X022224Y005236D01*
X022541Y005236D01*
X022541Y005696D01*
X022541Y005736D01*
X022541Y006196D01*
X022224Y006196D01*
X022149Y006184D01*
X022077Y006161D01*
X022010Y006126D01*
X021949Y006082D01*
X021895Y006028D01*
X021851Y005967D01*
X021817Y005900D01*
X021793Y005828D01*
X021781Y005753D01*
X021781Y005736D01*
X022541Y005736D01*
X022581Y005736D01*
X022581Y006196D01*
X022899Y006196D01*
X022974Y006184D01*
X023046Y006161D01*
X023113Y006126D01*
X023174Y006082D01*
X023228Y006028D01*
X023272Y005967D01*
X023306Y005900D01*
X023330Y005828D01*
X023341Y005753D01*
X023341Y005736D01*
X022581Y005736D01*
X022581Y005696D01*
X023341Y005696D01*
X023341Y005678D01*
X023330Y005603D01*
X023306Y005531D01*
X023272Y005464D01*
X023228Y005403D01*
X023174Y005350D01*
X023113Y005305D01*
X023046Y005271D01*
X022974Y005247D01*
X022899Y005236D01*
X022988Y005252D02*
X024695Y005252D01*
X024709Y005247D02*
X024784Y005236D01*
X025101Y005236D01*
X025101Y005696D01*
X024341Y005696D01*
X024341Y005678D01*
X024353Y005603D01*
X024377Y005531D01*
X024411Y005464D01*
X024455Y005403D01*
X024509Y005350D01*
X024570Y005305D01*
X024637Y005271D01*
X024709Y005247D01*
X024450Y005411D02*
X023233Y005411D01*
X023318Y005569D02*
X024364Y005569D01*
X024341Y005736D02*
X025101Y005736D01*
X025101Y006196D01*
X024784Y006196D01*
X024709Y006184D01*
X024637Y006161D01*
X024570Y006126D01*
X024509Y006082D01*
X024455Y006028D01*
X024411Y005967D01*
X024377Y005900D01*
X024353Y005828D01*
X024341Y005753D01*
X024341Y005736D01*
X024372Y005886D02*
X023311Y005886D01*
X023211Y006045D02*
X024471Y006045D01*
X025101Y006045D02*
X025141Y006045D01*
X025141Y006196D02*
X025141Y005736D01*
X025101Y005736D01*
X025101Y005696D01*
X025141Y005696D01*
X025141Y005236D01*
X025459Y005236D01*
X025534Y005247D01*
X025606Y005271D01*
X025673Y005305D01*
X025734Y005350D01*
X025788Y005403D01*
X025832Y005464D01*
X025866Y005531D01*
X025890Y005603D01*
X025901Y005678D01*
X025901Y005696D01*
X025141Y005696D01*
X025141Y005736D01*
X025901Y005736D01*
X025901Y005753D01*
X025890Y005828D01*
X025866Y005900D01*
X025832Y005967D01*
X025788Y006028D01*
X025734Y006082D01*
X025673Y006126D01*
X025606Y006161D01*
X025534Y006184D01*
X025459Y006196D01*
X025141Y006196D01*
X025141Y005886D02*
X025101Y005886D01*
X025101Y005728D02*
X022581Y005728D01*
X022541Y005728D02*
X019438Y005728D01*
X019438Y005886D02*
X021812Y005886D01*
X021911Y006045D02*
X019438Y006045D01*
X019438Y006203D02*
X033088Y006203D01*
X033088Y006362D02*
X019438Y006362D01*
X019438Y006520D02*
X021643Y006520D01*
X021484Y006679D02*
X019438Y006679D01*
X019438Y006837D02*
X021394Y006837D01*
X021394Y006996D02*
X019438Y006996D01*
X019438Y007154D02*
X021414Y007154D01*
X021572Y007313D02*
X019438Y007313D01*
X019438Y007471D02*
X021787Y007471D01*
X021946Y007630D02*
X019438Y007630D01*
X019438Y007788D02*
X020690Y007788D01*
X020531Y007947D02*
X019438Y007947D01*
X019438Y008105D02*
X020527Y008105D01*
X020527Y008264D02*
X019438Y008264D01*
X019517Y008422D02*
X020634Y008422D01*
X020849Y008581D02*
X019518Y008581D01*
X019518Y008739D02*
X021008Y008739D01*
X021036Y008898D02*
X019408Y008898D01*
X019314Y009215D02*
X018558Y009215D01*
X018314Y009215D02*
X017558Y009215D01*
X017314Y009215D02*
X016908Y009215D01*
X016840Y009373D02*
X017049Y009373D01*
X016943Y009532D02*
X016929Y009532D01*
X017067Y009056D02*
X021036Y009056D01*
X021036Y009215D02*
X020558Y009215D01*
X020314Y009215D02*
X019558Y009215D01*
X019823Y009373D02*
X020049Y009373D01*
X019943Y009532D02*
X019929Y009532D01*
X020823Y009373D02*
X021036Y009373D01*
X020943Y009532D02*
X020929Y009532D01*
X021836Y009373D02*
X022036Y009373D01*
X022036Y009215D02*
X021836Y009215D01*
X021836Y009056D02*
X022036Y009056D01*
X022036Y008898D02*
X021836Y008898D01*
X021836Y008739D02*
X022036Y008739D01*
X022036Y008581D02*
X021836Y008581D01*
X021795Y008422D02*
X022036Y008422D01*
X022036Y008264D02*
X021664Y008264D01*
X021505Y008105D02*
X022036Y008105D01*
X022036Y007947D02*
X021403Y007947D01*
X021245Y007788D02*
X022036Y007788D01*
X022602Y007154D02*
X033088Y007154D01*
X033088Y006996D02*
X022443Y006996D01*
X022285Y006837D02*
X033088Y006837D01*
X033088Y006679D02*
X022183Y006679D01*
X022024Y006520D02*
X033088Y006520D01*
X033108Y006045D02*
X025771Y006045D01*
X025871Y005886D02*
X033217Y005886D01*
X033375Y005728D02*
X025141Y005728D01*
X025141Y005569D02*
X025101Y005569D01*
X025101Y005411D02*
X025141Y005411D01*
X025141Y005252D02*
X025101Y005252D01*
X025548Y005252D02*
X039310Y005252D01*
X039310Y005094D02*
X021602Y005094D01*
X021594Y005116D02*
X021560Y005184D01*
X021515Y005245D01*
X021462Y005298D01*
X021401Y005343D01*
X021334Y005377D01*
X021262Y005400D01*
X021187Y005412D01*
X020869Y005412D01*
X020869Y004952D01*
X021629Y004952D01*
X021629Y004970D01*
X021617Y005044D01*
X021594Y005116D01*
X021508Y005252D02*
X022135Y005252D01*
X021890Y005411D02*
X021196Y005411D01*
X020869Y005411D02*
X020829Y005411D01*
X020829Y005412D02*
X020512Y005412D01*
X020437Y005400D01*
X020365Y005377D01*
X020298Y005343D01*
X020237Y005298D01*
X020183Y005245D01*
X020139Y005184D01*
X020104Y005116D01*
X020081Y005044D01*
X020069Y004970D01*
X020069Y004952D01*
X020829Y004952D01*
X020829Y005412D01*
X020829Y005252D02*
X020869Y005252D01*
X020869Y005094D02*
X020829Y005094D01*
X020829Y004935D02*
X019950Y004935D01*
X020052Y004777D02*
X020095Y004777D01*
X020068Y004618D02*
X020184Y004618D01*
X020068Y004460D02*
X020412Y004460D01*
X020155Y004301D02*
X020068Y004301D01*
X019348Y004301D02*
X018322Y004301D01*
X018322Y004143D02*
X019348Y004143D01*
X019348Y003984D02*
X018322Y003984D01*
X018322Y003826D02*
X019348Y003826D01*
X019348Y003667D02*
X018322Y003667D01*
X018288Y003509D02*
X019348Y003509D01*
X019391Y003350D02*
X018197Y003350D01*
X017968Y003192D02*
X019533Y003192D01*
X019692Y003033D02*
X013769Y003033D01*
X013769Y002875D02*
X019850Y002875D01*
X020009Y002716D02*
X013769Y002716D01*
X013769Y002558D02*
X020167Y002558D01*
X020393Y003350D02*
X039310Y003350D01*
X039310Y003509D02*
X037813Y003509D01*
X037942Y003667D02*
X039310Y003667D01*
X039310Y003826D02*
X037998Y003826D01*
X038006Y003958D02*
X038006Y003962D01*
X037993Y004045D01*
X037967Y004125D01*
X037929Y004199D01*
X037880Y004267D01*
X037820Y004326D01*
X037753Y004376D01*
X037678Y004414D01*
X037598Y004440D01*
X037515Y004453D01*
X037158Y004453D01*
X037158Y003958D01*
X038006Y003958D01*
X038002Y003984D02*
X039310Y003984D01*
X039310Y004143D02*
X037958Y004143D01*
X037846Y004301D02*
X039310Y004301D01*
X039310Y004777D02*
X021603Y004777D01*
X020869Y004935D02*
X039310Y004935D01*
X039310Y005411D02*
X037833Y005411D01*
X037982Y005569D02*
X039310Y005569D01*
X039310Y005728D02*
X038048Y005728D01*
X038066Y005886D02*
X039310Y005886D01*
X039310Y006045D02*
X038050Y006045D01*
X037985Y006203D02*
X039310Y006203D01*
X039310Y006362D02*
X037839Y006362D01*
X037598Y007338D02*
X037678Y007364D01*
X037753Y007402D01*
X037820Y007451D01*
X037880Y007510D01*
X037929Y007578D01*
X037967Y007653D01*
X037993Y007732D01*
X038006Y007815D01*
X038006Y007820D01*
X037158Y007820D01*
X037158Y007325D01*
X037515Y007325D01*
X037598Y007338D01*
X037840Y007471D02*
X039310Y007471D01*
X039310Y007313D02*
X033808Y007313D01*
X033808Y007471D02*
X036402Y007471D01*
X036422Y007451D02*
X036489Y007402D01*
X036564Y007364D01*
X036644Y007338D01*
X036727Y007325D01*
X037083Y007325D01*
X037083Y007820D01*
X036236Y007820D01*
X036236Y007815D01*
X036249Y007732D01*
X036275Y007653D01*
X036313Y007578D01*
X036362Y007510D01*
X036422Y007451D01*
X036287Y007630D02*
X033808Y007630D01*
X033808Y007788D02*
X036240Y007788D01*
X036236Y007895D02*
X037083Y007895D01*
X037083Y007820D01*
X037158Y007820D01*
X037158Y007895D01*
X037083Y007895D01*
X037083Y008390D01*
X036727Y008390D01*
X036644Y008377D01*
X036564Y008351D01*
X036489Y008313D01*
X036422Y008263D01*
X036422Y008264D02*
X033808Y008264D01*
X033808Y008422D02*
X039310Y008422D01*
X039310Y008264D02*
X037820Y008264D01*
X037820Y008263D02*
X037753Y008313D01*
X037678Y008351D01*
X037598Y008377D01*
X037515Y008390D01*
X037158Y008390D01*
X037158Y007895D01*
X038006Y007895D01*
X038006Y007899D01*
X037993Y007982D01*
X037967Y008062D01*
X037929Y008136D01*
X037880Y008204D01*
X037820Y008263D01*
X037945Y008105D02*
X039310Y008105D01*
X039310Y007947D02*
X037998Y007947D01*
X038002Y007788D02*
X039310Y007788D01*
X039310Y007630D02*
X037955Y007630D01*
X037158Y007630D02*
X037083Y007630D01*
X037083Y007788D02*
X037158Y007788D01*
X037158Y007947D02*
X037083Y007947D01*
X037083Y008105D02*
X037158Y008105D01*
X037158Y008264D02*
X037083Y008264D01*
X036422Y008263D02*
X036362Y008204D01*
X036313Y008136D01*
X036275Y008062D01*
X036249Y007982D01*
X036236Y007899D01*
X036236Y007895D01*
X036243Y007947D02*
X033808Y007947D01*
X033808Y008105D02*
X036297Y008105D01*
X037083Y007471D02*
X037158Y007471D01*
X036403Y006362D02*
X033808Y006362D01*
X033808Y006520D02*
X039310Y006520D01*
X039310Y006679D02*
X033808Y006679D01*
X033808Y006837D02*
X039310Y006837D01*
X039310Y006996D02*
X033808Y006996D01*
X033808Y007154D02*
X039310Y007154D01*
X039310Y008581D02*
X033808Y008581D01*
X033808Y008739D02*
X039310Y008739D01*
X039310Y008898D02*
X033808Y008898D01*
X033808Y009056D02*
X039310Y009056D01*
X039310Y009215D02*
X033808Y009215D01*
X033819Y009373D02*
X036383Y009373D01*
X036429Y010324D02*
X033808Y010324D01*
X033808Y010483D02*
X039310Y010483D01*
X039310Y010641D02*
X033808Y010641D01*
X033808Y010800D02*
X039310Y010800D01*
X039310Y010958D02*
X033808Y010958D01*
X033808Y011117D02*
X039310Y011117D01*
X039310Y011275D02*
X037599Y011275D01*
X037598Y011275D02*
X037678Y011301D01*
X037753Y011339D01*
X037820Y011388D01*
X037880Y011447D01*
X037929Y011515D01*
X037967Y011590D01*
X037993Y011669D01*
X038006Y011752D01*
X038006Y011757D01*
X037158Y011757D01*
X037158Y011262D01*
X037515Y011262D01*
X037598Y011275D01*
X037866Y011434D02*
X039310Y011434D01*
X039310Y011592D02*
X037968Y011592D01*
X038006Y011751D02*
X039310Y011751D01*
X039310Y011909D02*
X037994Y011909D01*
X037993Y011919D02*
X037967Y011999D01*
X037929Y012073D01*
X037880Y012141D01*
X037820Y012200D01*
X037753Y012250D01*
X037678Y012288D01*
X037598Y012314D01*
X037515Y012327D01*
X037158Y012327D01*
X037158Y011832D01*
X037083Y011832D01*
X037083Y011757D01*
X036236Y011757D01*
X036236Y011752D01*
X036249Y011669D01*
X036275Y011590D01*
X036313Y011515D01*
X036362Y011447D01*
X036422Y011388D01*
X036489Y011339D01*
X036564Y011301D01*
X036644Y011275D01*
X036727Y011262D01*
X037083Y011262D01*
X037083Y011757D01*
X037158Y011757D01*
X037158Y011832D01*
X038006Y011832D01*
X038006Y011836D01*
X037993Y011919D01*
X037932Y012068D02*
X039310Y012068D01*
X039310Y012226D02*
X037785Y012226D01*
X037158Y012226D02*
X037083Y012226D01*
X037083Y012327D02*
X036727Y012327D01*
X036644Y012314D01*
X036564Y012288D01*
X036489Y012250D01*
X036422Y012200D01*
X036362Y012141D01*
X036313Y012073D01*
X036275Y011999D01*
X036249Y011919D01*
X036236Y011836D01*
X036236Y011832D01*
X037083Y011832D01*
X037083Y012327D01*
X037083Y012068D02*
X037158Y012068D01*
X037158Y011909D02*
X037083Y011909D01*
X037083Y011751D02*
X037158Y011751D01*
X037158Y011592D02*
X037083Y011592D01*
X037083Y011434D02*
X037158Y011434D01*
X037158Y011275D02*
X037083Y011275D01*
X036643Y011275D02*
X033808Y011275D01*
X033808Y011434D02*
X036376Y011434D01*
X036274Y011592D02*
X033808Y011592D01*
X033808Y011751D02*
X036236Y011751D01*
X036247Y011909D02*
X033808Y011909D01*
X033808Y012068D02*
X036310Y012068D01*
X036457Y012226D02*
X033808Y012226D01*
X033808Y012385D02*
X039310Y012385D01*
X039310Y012543D02*
X033808Y012543D01*
X033808Y012702D02*
X039310Y012702D01*
X039310Y012860D02*
X033808Y012860D01*
X033808Y013019D02*
X039310Y013019D01*
X039310Y013177D02*
X037608Y013177D01*
X037884Y013336D02*
X039310Y013336D01*
X039310Y013494D02*
X038003Y013494D01*
X038066Y013653D02*
X039310Y013653D01*
X039310Y013811D02*
X038066Y013811D01*
X038029Y013970D02*
X039310Y013970D01*
X039310Y014128D02*
X037946Y014128D01*
X037757Y014287D02*
X039310Y014287D01*
X039310Y014445D02*
X029849Y014445D01*
X029691Y014604D02*
X039310Y014604D01*
X039310Y014762D02*
X029532Y014762D01*
X029374Y014921D02*
X039310Y014921D01*
X039310Y015079D02*
X029215Y015079D01*
X029057Y015238D02*
X039310Y015238D01*
X039310Y015396D02*
X028898Y015396D01*
X028740Y015555D02*
X036678Y015555D01*
X036687Y015553D02*
X037044Y015553D01*
X037044Y016048D01*
X036197Y016048D01*
X036197Y016044D01*
X036210Y015961D01*
X036236Y015881D01*
X036274Y015806D01*
X036323Y015739D01*
X036382Y015679D01*
X036450Y015630D01*
X036525Y015592D01*
X036604Y015566D01*
X036687Y015553D01*
X037044Y015555D02*
X037119Y015555D01*
X037119Y015553D02*
X037476Y015553D01*
X037559Y015566D01*
X037638Y015592D01*
X037713Y015630D01*
X037781Y015679D01*
X037840Y015739D01*
X037890Y015806D01*
X037928Y015881D01*
X037953Y015961D01*
X037967Y016044D01*
X037967Y016048D01*
X037119Y016048D01*
X037119Y015553D01*
X037119Y015713D02*
X037044Y015713D01*
X037044Y015872D02*
X037119Y015872D01*
X037119Y016030D02*
X037044Y016030D01*
X037044Y016048D02*
X037119Y016048D01*
X037119Y016123D01*
X037044Y016123D01*
X037044Y016048D01*
X037044Y016123D02*
X036197Y016123D01*
X036197Y016127D01*
X036210Y016210D01*
X036236Y016290D01*
X036274Y016365D01*
X036323Y016432D01*
X036382Y016492D01*
X036450Y016541D01*
X036525Y016579D01*
X036604Y016605D01*
X036687Y016618D01*
X037044Y016618D01*
X037044Y016123D01*
X037044Y016189D02*
X037119Y016189D01*
X037119Y016123D02*
X037119Y016618D01*
X037476Y016618D01*
X037559Y016605D01*
X037638Y016579D01*
X037713Y016541D01*
X037781Y016492D01*
X037840Y016432D01*
X037890Y016365D01*
X037928Y016290D01*
X037953Y016210D01*
X037967Y016127D01*
X037967Y016123D01*
X037119Y016123D01*
X037119Y016347D02*
X037044Y016347D01*
X037044Y016506D02*
X037119Y016506D01*
X037762Y016506D02*
X039310Y016506D01*
X039310Y016664D02*
X029636Y016664D01*
X029636Y016823D02*
X039310Y016823D01*
X039310Y016981D02*
X029552Y016981D01*
X029394Y017140D02*
X039310Y017140D01*
X039310Y017298D02*
X029329Y017298D01*
X029337Y017457D02*
X039310Y017457D01*
X039310Y017615D02*
X037833Y017615D01*
X037770Y017552D02*
X037936Y017718D01*
X038027Y017936D01*
X038027Y018172D01*
X037936Y018390D01*
X037770Y018556D01*
X037552Y018647D01*
X036611Y018647D01*
X036393Y018556D01*
X036227Y018390D01*
X036137Y018172D01*
X036137Y017936D01*
X036227Y017718D01*
X036393Y017552D01*
X036611Y017462D01*
X037552Y017462D01*
X037770Y017552D01*
X037959Y017774D02*
X039310Y017774D01*
X039310Y017932D02*
X038025Y017932D01*
X038027Y018091D02*
X039310Y018091D01*
X039310Y018249D02*
X037995Y018249D01*
X037918Y018408D02*
X039310Y018408D01*
X039310Y018566D02*
X037746Y018566D01*
X037559Y019503D02*
X037638Y019529D01*
X037713Y019567D01*
X037781Y019616D01*
X037840Y019676D01*
X037890Y019743D01*
X037928Y019818D01*
X037953Y019898D01*
X037967Y019981D01*
X037967Y019985D01*
X037119Y019985D01*
X037119Y019490D01*
X037476Y019490D01*
X037559Y019503D01*
X037602Y019517D02*
X039310Y019517D01*
X039310Y019359D02*
X030577Y019359D01*
X030735Y019200D02*
X039310Y019200D01*
X039310Y019042D02*
X030894Y019042D01*
X031052Y018883D02*
X039310Y018883D01*
X039310Y018725D02*
X031211Y018725D01*
X031369Y018566D02*
X036417Y018566D01*
X036245Y018408D02*
X031905Y018408D01*
X032064Y018249D02*
X036169Y018249D01*
X036137Y018091D02*
X032116Y018091D01*
X032116Y017932D02*
X036138Y017932D01*
X036204Y017774D02*
X032057Y017774D01*
X031899Y017615D02*
X036330Y017615D01*
X036401Y016506D02*
X029608Y016506D01*
X029450Y016347D02*
X036265Y016347D01*
X036206Y016189D02*
X028599Y016189D01*
X028599Y016347D02*
X028942Y016347D01*
X028783Y016506D02*
X028599Y016506D01*
X028599Y016664D02*
X028738Y016664D01*
X028599Y016030D02*
X036199Y016030D01*
X036240Y015872D02*
X028599Y015872D01*
X028599Y015713D02*
X036348Y015713D01*
X037486Y015555D02*
X039310Y015555D01*
X039310Y015713D02*
X037815Y015713D01*
X037923Y015872D02*
X039310Y015872D01*
X039310Y016030D02*
X037964Y016030D01*
X037957Y016189D02*
X039310Y016189D01*
X039310Y016347D02*
X037898Y016347D01*
X036485Y014287D02*
X030008Y014287D01*
X029465Y013811D02*
X027858Y013811D01*
X028017Y013970D02*
X029307Y013970D01*
X029148Y014128D02*
X028100Y014128D01*
X028100Y014287D02*
X028990Y014287D01*
X028831Y014445D02*
X028073Y014445D01*
X028034Y014604D02*
X028673Y014604D01*
X028514Y014762D02*
X028034Y014762D01*
X028034Y014921D02*
X028356Y014921D01*
X028197Y015079D02*
X028034Y015079D01*
X027286Y015079D02*
X025784Y015079D01*
X025784Y014921D02*
X027286Y014921D01*
X027286Y014762D02*
X025784Y014762D01*
X025790Y014604D02*
X027286Y014604D01*
X027248Y014445D02*
X025790Y014445D01*
X025790Y014287D02*
X027220Y014287D01*
X027220Y014128D02*
X025790Y014128D01*
X025790Y013970D02*
X027304Y013970D01*
X027462Y013811D02*
X025790Y013811D01*
X025790Y013653D02*
X029624Y013653D01*
X029786Y013494D02*
X025790Y013494D01*
X025790Y013336D02*
X033088Y013336D01*
X033088Y013177D02*
X025790Y013177D01*
X025741Y013019D02*
X033088Y013019D01*
X033088Y012860D02*
X025593Y012860D01*
X025435Y012702D02*
X033088Y012702D01*
X033088Y012543D02*
X025276Y012543D01*
X025118Y012385D02*
X033088Y012385D01*
X033088Y012226D02*
X024959Y012226D01*
X024894Y012068D02*
X033088Y012068D01*
X033088Y011909D02*
X024736Y011909D01*
X024285Y011909D02*
X017595Y011909D01*
X017437Y011751D02*
X033088Y011751D01*
X033088Y011592D02*
X017278Y011592D01*
X017120Y011434D02*
X033088Y011434D01*
X033088Y011275D02*
X030559Y011275D01*
X030313Y011275D02*
X029559Y011275D01*
X029313Y011275D02*
X028559Y011275D01*
X028313Y011275D02*
X027559Y011275D01*
X027313Y011275D02*
X026559Y011275D01*
X026313Y011275D02*
X025559Y011275D01*
X025313Y011275D02*
X024559Y011275D01*
X024313Y011275D02*
X023559Y011275D01*
X023313Y011275D02*
X022559Y011275D01*
X022313Y011275D02*
X021559Y011275D01*
X021313Y011275D02*
X020559Y011275D01*
X020313Y011275D02*
X019559Y011275D01*
X019313Y011275D02*
X018559Y011275D01*
X018313Y011275D02*
X017559Y011275D01*
X017313Y011275D02*
X016961Y011275D01*
X017048Y011117D02*
X016824Y011117D01*
X016929Y010958D02*
X016943Y010958D01*
X017824Y011117D02*
X018048Y011117D01*
X017943Y010958D02*
X017929Y010958D01*
X018824Y011117D02*
X019048Y011117D01*
X018943Y010958D02*
X018929Y010958D01*
X019824Y011117D02*
X020048Y011117D01*
X019943Y010958D02*
X019929Y010958D01*
X020824Y011117D02*
X021048Y011117D01*
X020943Y010958D02*
X020929Y010958D01*
X021824Y011117D02*
X022048Y011117D01*
X021943Y010958D02*
X021929Y010958D01*
X022824Y011117D02*
X023048Y011117D01*
X022943Y010958D02*
X022929Y010958D01*
X023824Y011117D02*
X024048Y011117D01*
X023943Y010958D02*
X023929Y010958D01*
X024824Y011117D02*
X025048Y011117D01*
X024943Y010958D02*
X024929Y010958D01*
X025824Y011117D02*
X026048Y011117D01*
X025943Y010958D02*
X025929Y010958D01*
X026824Y011117D02*
X027048Y011117D01*
X026943Y010958D02*
X026929Y010958D01*
X027824Y011117D02*
X028048Y011117D01*
X027943Y010958D02*
X027929Y010958D01*
X028824Y011117D02*
X029048Y011117D01*
X028943Y010958D02*
X028929Y010958D01*
X029824Y011117D02*
X030048Y011117D01*
X029943Y010958D02*
X029929Y010958D01*
X030824Y011117D02*
X031136Y011117D01*
X031009Y010958D02*
X030929Y010958D01*
X030971Y010633D02*
X030971Y010633D01*
X030908Y010483D02*
X031037Y010483D01*
X031212Y010324D02*
X030774Y010324D01*
X030775Y010166D02*
X031211Y010166D01*
X031417Y010166D02*
X031454Y010166D01*
X031454Y010268D02*
X031473Y010268D01*
X031548Y010280D01*
X031619Y010303D01*
X031686Y010337D01*
X031747Y010381D01*
X031800Y010434D01*
X031844Y010495D01*
X031878Y010562D01*
X031901Y010633D01*
X031913Y010707D01*
X031913Y010727D01*
X031454Y010727D01*
X031454Y010268D01*
X031454Y010324D02*
X031417Y010324D01*
X031417Y010483D02*
X031454Y010483D01*
X031454Y010641D02*
X031417Y010641D01*
X031417Y010800D02*
X031454Y010800D01*
X031454Y010958D02*
X031417Y010958D01*
X031417Y011117D02*
X031454Y011117D01*
X031736Y011117D02*
X032136Y011117D01*
X032125Y011109D02*
X032072Y011056D01*
X032028Y010995D01*
X031994Y010928D01*
X031971Y010857D01*
X031959Y010782D01*
X031959Y010763D01*
X032417Y010763D01*
X032417Y010727D01*
X031959Y010727D01*
X031959Y010707D01*
X031971Y010633D01*
X031994Y010562D01*
X032028Y010495D01*
X032072Y010434D01*
X032125Y010381D01*
X032186Y010337D01*
X032253Y010303D01*
X032324Y010280D01*
X032398Y010268D01*
X032417Y010268D01*
X032417Y010727D01*
X032454Y010727D01*
X032454Y010763D01*
X032913Y010763D01*
X032913Y010782D01*
X032901Y010857D01*
X032878Y010928D01*
X032844Y010995D01*
X032800Y011056D01*
X032747Y011109D01*
X032686Y011153D01*
X032619Y011187D01*
X032548Y011210D01*
X032473Y011222D01*
X032454Y011222D01*
X032454Y010763D01*
X032417Y010763D01*
X032417Y011222D01*
X032398Y011222D01*
X032324Y011210D01*
X032253Y011187D01*
X032186Y011153D01*
X032125Y011109D01*
X032009Y010958D02*
X031863Y010958D01*
X031910Y010800D02*
X031962Y010800D01*
X031970Y010641D02*
X031902Y010641D01*
X031835Y010483D02*
X032037Y010483D01*
X032212Y010324D02*
X031660Y010324D01*
X031661Y010166D02*
X032211Y010166D01*
X032186Y010153D02*
X032125Y010109D01*
X032072Y010056D01*
X032028Y009995D01*
X031994Y009928D01*
X031971Y009857D01*
X031959Y009782D01*
X031959Y009763D01*
X032417Y009763D01*
X032417Y009727D01*
X031959Y009727D01*
X031959Y009707D01*
X031971Y009633D01*
X031994Y009562D01*
X032028Y009495D01*
X032072Y009434D01*
X032125Y009381D01*
X032186Y009337D01*
X032253Y009303D01*
X032324Y009280D01*
X032398Y009268D01*
X032417Y009268D01*
X032417Y009727D01*
X032454Y009727D01*
X032454Y009763D01*
X032913Y009763D01*
X032913Y009782D01*
X032901Y009857D01*
X032878Y009928D01*
X032844Y009995D01*
X032800Y010056D01*
X032747Y010109D01*
X032686Y010153D01*
X032619Y010187D01*
X032548Y010210D01*
X032473Y010222D01*
X032454Y010222D01*
X032454Y009763D01*
X032417Y009763D01*
X032417Y010222D01*
X032398Y010222D01*
X032324Y010210D01*
X032253Y010187D01*
X032186Y010153D01*
X032037Y010007D02*
X031835Y010007D01*
X031902Y009849D02*
X031970Y009849D01*
X031913Y009727D02*
X031454Y009727D01*
X031454Y009268D01*
X031473Y009268D01*
X031548Y009280D01*
X031619Y009303D01*
X031686Y009337D01*
X031747Y009381D01*
X031800Y009434D01*
X031844Y009495D01*
X031878Y009562D01*
X031901Y009633D01*
X031913Y009707D01*
X031913Y009727D01*
X031910Y009690D02*
X031962Y009690D01*
X032009Y009532D02*
X031862Y009532D01*
X031735Y009373D02*
X032137Y009373D01*
X032417Y009373D02*
X032454Y009373D01*
X032454Y009268D02*
X032473Y009268D01*
X032548Y009280D01*
X032619Y009303D01*
X032686Y009337D01*
X032747Y009381D01*
X032800Y009434D01*
X032844Y009495D01*
X032878Y009562D01*
X032901Y009633D01*
X032913Y009707D01*
X032913Y009727D01*
X032454Y009727D01*
X032454Y009268D01*
X032454Y009532D02*
X032417Y009532D01*
X032417Y009690D02*
X032454Y009690D01*
X032454Y009849D02*
X032417Y009849D01*
X032417Y010007D02*
X032454Y010007D01*
X032454Y010166D02*
X032417Y010166D01*
X032454Y010268D02*
X032473Y010268D01*
X032548Y010280D01*
X032619Y010303D01*
X032686Y010337D01*
X032747Y010381D01*
X032800Y010434D01*
X032844Y010495D01*
X032878Y010562D01*
X032901Y010633D01*
X032913Y010707D01*
X032913Y010727D01*
X032454Y010727D01*
X032454Y010268D01*
X032454Y010324D02*
X032417Y010324D01*
X032417Y010483D02*
X032454Y010483D01*
X032454Y010641D02*
X032417Y010641D01*
X032417Y010800D02*
X032454Y010800D01*
X032454Y010958D02*
X032417Y010958D01*
X032417Y011117D02*
X032454Y011117D01*
X032736Y011117D02*
X033088Y011117D01*
X033088Y010958D02*
X032863Y010958D01*
X032910Y010800D02*
X033088Y010800D01*
X033088Y010641D02*
X032902Y010641D01*
X032835Y010483D02*
X033088Y010483D01*
X033088Y010324D02*
X032660Y010324D01*
X032661Y010166D02*
X033088Y010166D01*
X033113Y010007D02*
X032835Y010007D01*
X032902Y009849D02*
X033231Y009849D01*
X033132Y009690D02*
X032910Y009690D01*
X032862Y009532D02*
X033088Y009532D01*
X033088Y009373D02*
X032735Y009373D01*
X033088Y009215D02*
X030558Y009215D01*
X030314Y009215D02*
X029558Y009215D01*
X029314Y009215D02*
X028558Y009215D01*
X028314Y009215D02*
X027558Y009215D01*
X027314Y009215D02*
X026558Y009215D01*
X026314Y009215D02*
X025558Y009215D01*
X025314Y009215D02*
X024558Y009215D01*
X024314Y009215D02*
X023558Y009215D01*
X023314Y009215D02*
X022836Y009215D01*
X022836Y009373D02*
X023049Y009373D01*
X022943Y009532D02*
X022929Y009532D01*
X022836Y009056D02*
X033088Y009056D01*
X033088Y008898D02*
X022836Y008898D01*
X022836Y008739D02*
X033088Y008739D01*
X033088Y008581D02*
X022836Y008581D01*
X022836Y008422D02*
X033088Y008422D01*
X033088Y008264D02*
X022836Y008264D01*
X022836Y008105D02*
X033088Y008105D01*
X033088Y007947D02*
X022836Y007947D01*
X022836Y007788D02*
X033088Y007788D01*
X033088Y007630D02*
X022836Y007630D01*
X022834Y007471D02*
X033088Y007471D01*
X033088Y007313D02*
X022760Y007313D01*
X022581Y006045D02*
X022541Y006045D01*
X022541Y005886D02*
X022581Y005886D01*
X022581Y005569D02*
X022541Y005569D01*
X022541Y005411D02*
X022581Y005411D01*
X022581Y005252D02*
X022541Y005252D01*
X021804Y005569D02*
X019438Y005569D01*
X019474Y005411D02*
X020502Y005411D01*
X020191Y005252D02*
X019633Y005252D01*
X019791Y005094D02*
X020097Y005094D01*
X019249Y004618D02*
X018227Y004618D01*
X018300Y004460D02*
X019348Y004460D01*
X018718Y005569D02*
X018297Y005569D01*
X018297Y005728D02*
X018718Y005728D01*
X018718Y005886D02*
X018246Y005886D01*
X018222Y006045D02*
X018718Y006045D01*
X018718Y006203D02*
X018222Y006203D01*
X018222Y006362D02*
X018718Y006362D01*
X018718Y006520D02*
X018222Y006520D01*
X018235Y006679D02*
X018718Y006679D01*
X018718Y006837D02*
X018235Y006837D01*
X018235Y006996D02*
X018718Y006996D01*
X018718Y007154D02*
X018212Y007154D01*
X018198Y007186D02*
X018198Y007186D01*
X018198Y007313D02*
X018718Y007313D01*
X018718Y007471D02*
X018198Y007471D01*
X018198Y007630D02*
X018718Y007630D01*
X018718Y007788D02*
X018198Y007788D01*
X018153Y007947D02*
X018718Y007947D01*
X018718Y008105D02*
X018018Y008105D01*
X017859Y008264D02*
X018718Y008264D01*
X018639Y008422D02*
X017701Y008422D01*
X017542Y008581D02*
X018638Y008581D01*
X018638Y008739D02*
X017384Y008739D01*
X017225Y008898D02*
X018748Y008898D01*
X018823Y009373D02*
X019049Y009373D01*
X018943Y009532D02*
X018929Y009532D01*
X018049Y009373D02*
X017823Y009373D01*
X017929Y009532D02*
X017943Y009532D01*
X017754Y012068D02*
X024127Y012068D01*
X024071Y012226D02*
X017912Y012226D01*
X018071Y012385D02*
X024071Y012385D01*
X024125Y012543D02*
X018229Y012543D01*
X018388Y012702D02*
X024284Y012702D01*
X024536Y012860D02*
X018546Y012860D01*
X018705Y013019D02*
X024695Y013019D01*
X024853Y013177D02*
X018863Y013177D01*
X019022Y013336D02*
X025012Y013336D01*
X025042Y013494D02*
X019180Y013494D01*
X019339Y013653D02*
X025042Y013653D01*
X025042Y013811D02*
X024118Y013811D01*
X024277Y013970D02*
X025042Y013970D01*
X025042Y014128D02*
X024360Y014128D01*
X024360Y014287D02*
X025042Y014287D01*
X025042Y014445D02*
X024333Y014445D01*
X024174Y014604D02*
X025042Y014604D01*
X025048Y014762D02*
X015934Y014762D01*
X015984Y014604D02*
X019305Y014604D01*
X019074Y014445D02*
X015984Y014445D01*
X015984Y014287D02*
X018915Y014287D01*
X018757Y014128D02*
X015984Y014128D01*
X015984Y013970D02*
X018598Y013970D01*
X018440Y013811D02*
X015977Y013811D01*
X015911Y013653D02*
X016810Y013653D01*
X016709Y013494D02*
X015766Y013494D01*
X015836Y013336D02*
X016606Y013336D01*
X016447Y013177D02*
X015896Y013177D01*
X015896Y013019D02*
X016289Y013019D01*
X016130Y012860D02*
X015849Y012860D01*
X015845Y012702D02*
X015972Y012702D01*
X016542Y012226D02*
X016855Y012226D01*
X017013Y012385D02*
X016673Y012385D01*
X016832Y012543D02*
X017172Y012543D01*
X017330Y012702D02*
X016990Y012702D01*
X017149Y012860D02*
X017489Y012860D01*
X017420Y013019D02*
X017647Y013019D01*
X017579Y013177D02*
X017806Y013177D01*
X017964Y013336D02*
X017589Y013336D01*
X017589Y013494D02*
X018123Y013494D01*
X018281Y013653D02*
X017487Y013653D01*
X016696Y012068D02*
X016542Y012068D01*
X015121Y013494D02*
X014635Y013494D01*
X014464Y013494D02*
X014424Y013494D01*
X014424Y013455D02*
X014424Y014215D01*
X013964Y014215D01*
X013964Y013897D01*
X013976Y013823D01*
X013999Y013751D01*
X014033Y013684D01*
X014078Y013622D01*
X014131Y013569D01*
X014192Y013525D01*
X014260Y013490D01*
X014331Y013467D01*
X014406Y013455D01*
X014424Y013455D01*
X014252Y013494D02*
X013808Y013494D01*
X013808Y013336D02*
X015075Y013336D01*
X015016Y013177D02*
X013808Y013177D01*
X013808Y013019D02*
X015016Y013019D01*
X015049Y012860D02*
X014658Y012860D01*
X014816Y012702D02*
X015045Y012702D01*
X015041Y012543D02*
X014834Y012543D01*
X014836Y012385D02*
X014999Y012385D01*
X014999Y012226D02*
X014836Y012226D01*
X014836Y012068D02*
X014999Y012068D01*
X014999Y011909D02*
X014836Y011909D01*
X014836Y011751D02*
X015036Y011751D01*
X015036Y011796D02*
X015036Y011796D01*
X015036Y011592D02*
X014836Y011592D01*
X014836Y011434D02*
X015036Y011434D01*
X015036Y011275D02*
X014836Y011275D01*
X014836Y011117D02*
X015036Y011117D01*
X014943Y010958D02*
X014929Y010958D01*
X014036Y011117D02*
X013824Y011117D01*
X013808Y011275D02*
X014036Y011275D01*
X014036Y011434D02*
X013808Y011434D01*
X013808Y011592D02*
X014036Y011592D01*
X014036Y011751D02*
X013808Y011751D01*
X013808Y011909D02*
X014036Y011909D01*
X014036Y012068D02*
X013808Y012068D01*
X013808Y012226D02*
X014036Y012226D01*
X013953Y012385D02*
X013808Y012385D01*
X013808Y012543D02*
X013953Y012543D01*
X013969Y012702D02*
X013808Y012702D01*
X013808Y012860D02*
X014128Y012860D01*
X014056Y013653D02*
X013808Y013653D01*
X013808Y013811D02*
X013979Y013811D01*
X013964Y013970D02*
X013808Y013970D01*
X013808Y014128D02*
X013964Y014128D01*
X013964Y014287D02*
X013808Y014287D01*
X013808Y014445D02*
X013964Y014445D01*
X013969Y014604D02*
X013808Y014604D01*
X013854Y014762D02*
X014021Y014762D01*
X014012Y014921D02*
X014158Y014921D01*
X014171Y015079D02*
X023774Y015079D01*
X023764Y015238D02*
X014329Y015238D01*
X014488Y015396D02*
X023764Y015396D01*
X023764Y015555D02*
X014646Y015555D01*
X014730Y014921D02*
X015066Y014921D01*
X014953Y014762D02*
X014867Y014762D01*
X014464Y014762D02*
X014424Y014762D01*
X014424Y014604D02*
X014464Y014604D01*
X014464Y014445D02*
X014424Y014445D01*
X014424Y014287D02*
X014464Y014287D01*
X014464Y014128D02*
X014424Y014128D01*
X014424Y013970D02*
X014464Y013970D01*
X014464Y013811D02*
X014424Y013811D01*
X014424Y013653D02*
X014464Y013653D01*
X014832Y013653D02*
X014976Y013653D01*
X014911Y013811D02*
X014908Y013811D01*
X014464Y014921D02*
X014424Y014921D01*
X013470Y015396D02*
X008386Y015396D01*
X008545Y015238D02*
X013311Y015238D01*
X013153Y015079D02*
X008703Y015079D01*
X008862Y014921D02*
X011284Y014921D01*
X011147Y014762D02*
X009020Y014762D01*
X009179Y014604D02*
X011095Y014604D01*
X011090Y014445D02*
X009337Y014445D01*
X009496Y014287D02*
X011090Y014287D01*
X011090Y014215D02*
X011090Y013897D01*
X011102Y013823D01*
X011125Y013751D01*
X011159Y013684D01*
X011204Y013622D01*
X011257Y013569D01*
X011318Y013525D01*
X011386Y013490D01*
X011457Y013467D01*
X011532Y013455D01*
X011550Y013455D01*
X011550Y014215D01*
X011090Y014215D01*
X011090Y014128D02*
X009654Y014128D01*
X009813Y013970D02*
X011090Y013970D01*
X011105Y013811D02*
X009971Y013811D01*
X010130Y013653D02*
X011182Y013653D01*
X011378Y013494D02*
X010288Y013494D01*
X010447Y013336D02*
X013088Y013336D01*
X013088Y013494D02*
X012892Y013494D01*
X013037Y013653D02*
X013088Y013653D01*
X013088Y013177D02*
X010605Y013177D01*
X010764Y013019D02*
X013088Y013019D01*
X013088Y012860D02*
X010922Y012860D01*
X011081Y012702D02*
X013088Y012702D01*
X013088Y012543D02*
X011239Y012543D01*
X011398Y012385D02*
X013088Y012385D01*
X013088Y012226D02*
X011556Y012226D01*
X011715Y012068D02*
X013088Y012068D01*
X013088Y011909D02*
X011798Y011909D01*
X011800Y011751D02*
X013088Y011751D01*
X013088Y011592D02*
X011800Y011592D01*
X011800Y011434D02*
X013088Y011434D01*
X013088Y011275D02*
X012559Y011275D01*
X012313Y011275D02*
X011800Y011275D01*
X011824Y011117D02*
X012048Y011117D01*
X011943Y010958D02*
X011929Y010958D01*
X012824Y011117D02*
X013048Y011117D01*
X012943Y010958D02*
X012929Y010958D01*
X013929Y010958D02*
X013943Y010958D01*
X012247Y013494D02*
X011761Y013494D01*
X011590Y013494D02*
X011550Y013494D01*
X011550Y013653D02*
X011590Y013653D01*
X011590Y013811D02*
X011550Y013811D01*
X011550Y013970D02*
X011590Y013970D01*
X011590Y014128D02*
X011550Y014128D01*
X011550Y014287D02*
X011590Y014287D01*
X011590Y014445D02*
X011550Y014445D01*
X011550Y014604D02*
X011590Y014604D01*
X011590Y014762D02*
X011550Y014762D01*
X011550Y014921D02*
X011590Y014921D01*
X011856Y014921D02*
X012191Y014921D01*
X012079Y014762D02*
X011993Y014762D01*
X012948Y014921D02*
X013088Y014921D01*
X013088Y014762D02*
X013060Y014762D01*
X012037Y013811D02*
X012034Y013811D01*
X012102Y013653D02*
X011958Y013653D01*
X010538Y012226D02*
X002745Y012226D01*
X002745Y012068D02*
X010697Y012068D01*
X010855Y011909D02*
X002745Y011909D01*
X002745Y011751D02*
X011014Y011751D01*
X011080Y011592D02*
X002745Y011592D01*
X002745Y011434D02*
X011080Y011434D01*
X011080Y011275D02*
X002745Y011275D01*
X002745Y011117D02*
X010136Y011117D01*
X010125Y011109D02*
X010072Y011056D01*
X010028Y010995D01*
X009994Y010928D01*
X009971Y010857D01*
X009959Y010782D01*
X009959Y010763D01*
X010417Y010763D01*
X010417Y011222D01*
X010398Y011222D01*
X010324Y011210D01*
X010253Y011187D01*
X010186Y011153D01*
X010125Y011109D01*
X010009Y010958D02*
X002745Y010958D01*
X002745Y010800D02*
X009962Y010800D01*
X009970Y010641D02*
X002745Y010641D01*
X002745Y010483D02*
X010037Y010483D01*
X010212Y010324D02*
X002745Y010324D01*
X002745Y010166D02*
X010008Y010166D01*
X009995Y010152D02*
X009971Y010111D01*
X009959Y010066D01*
X009959Y009763D01*
X010417Y009763D01*
X010417Y010222D01*
X010115Y010222D01*
X010070Y010210D01*
X010029Y010186D01*
X009995Y010152D01*
X009959Y010007D02*
X002745Y010007D01*
X002745Y009849D02*
X009959Y009849D01*
X009959Y009690D02*
X002745Y009690D01*
X002745Y009532D02*
X009959Y009532D01*
X009975Y009373D02*
X002745Y009373D01*
X002745Y009215D02*
X011019Y009215D01*
X010996Y009373D02*
X010897Y009373D01*
X010913Y009532D02*
X010943Y009532D01*
X010454Y009532D02*
X010417Y009532D01*
X010417Y009690D02*
X010454Y009690D01*
X010454Y009849D02*
X010417Y009849D01*
X010417Y010007D02*
X010454Y010007D01*
X010454Y010166D02*
X010417Y010166D01*
X010417Y010324D02*
X010454Y010324D01*
X010454Y010483D02*
X010417Y010483D01*
X010417Y010641D02*
X010454Y010641D01*
X010454Y010800D02*
X010417Y010800D01*
X010417Y010958D02*
X010454Y010958D01*
X010454Y011117D02*
X010417Y011117D01*
X010736Y011117D02*
X011048Y011117D01*
X010943Y010958D02*
X010863Y010958D01*
X010901Y010857D02*
X010901Y010857D01*
X010835Y010483D02*
X010964Y010483D01*
X011036Y010324D02*
X010660Y010324D01*
X010864Y010166D02*
X011036Y010166D01*
X010963Y010007D02*
X010913Y010007D01*
X010454Y009373D02*
X010417Y009373D01*
X011115Y009056D02*
X002745Y009056D01*
X002745Y008898D02*
X011273Y008898D01*
X011432Y008739D02*
X002745Y008739D01*
X002745Y008581D02*
X011590Y008581D01*
X011349Y007788D02*
X012260Y007788D01*
X012378Y007630D02*
X011507Y007630D01*
X011620Y007471D02*
X012378Y007471D01*
X012378Y007313D02*
X011642Y007313D01*
X011642Y007154D02*
X012378Y007154D01*
X012378Y006996D02*
X011642Y006996D01*
X011642Y006837D02*
X012378Y006837D01*
X012378Y006679D02*
X011642Y006679D01*
X010193Y007154D02*
X005104Y007154D01*
X004946Y006996D02*
X010055Y006996D01*
X009970Y006837D02*
X004787Y006837D01*
X004245Y006253D02*
X004245Y004386D01*
X003539Y002875D02*
X003473Y002875D01*
X003469Y002716D02*
X003881Y002716D01*
X003850Y002558D02*
X003382Y002558D01*
X003223Y002399D02*
X003850Y002399D01*
X003850Y002241D02*
X003178Y002241D01*
X003019Y002082D02*
X003885Y002082D01*
X003885Y001924D02*
X002832Y001924D01*
X002898Y001765D02*
X003885Y001765D01*
X003929Y001607D02*
X002913Y001607D01*
X002913Y001448D02*
X004072Y001448D01*
X004231Y001290D02*
X002913Y001290D01*
X002913Y001131D02*
X004276Y001131D01*
X004435Y000973D02*
X002913Y000973D01*
X001975Y000656D02*
X001770Y000656D01*
X001871Y000814D02*
X001874Y000814D01*
X005667Y002875D02*
X005895Y002875D01*
X006723Y001924D02*
X006763Y001924D01*
X010045Y001448D02*
X011552Y001448D01*
X011394Y001607D02*
X010204Y001607D01*
X010350Y001765D02*
X011235Y001765D01*
X011077Y001924D02*
X010403Y001924D01*
X010403Y002082D02*
X010918Y002082D01*
X012154Y003192D02*
X012301Y003192D01*
X013769Y003192D02*
X015596Y003192D01*
X015368Y003350D02*
X015112Y003350D01*
X015224Y003509D02*
X015277Y003509D01*
X014802Y003509D02*
X014762Y003509D01*
X014762Y003667D02*
X014802Y003667D01*
X014802Y003826D02*
X014762Y003826D01*
X014762Y003984D02*
X013769Y003984D01*
X013769Y003826D02*
X014302Y003826D01*
X014302Y003667D02*
X013769Y003667D01*
X013769Y003509D02*
X014341Y003509D01*
X014452Y003350D02*
X013769Y003350D01*
X013769Y004143D02*
X014302Y004143D01*
X014302Y004019D02*
X014762Y004019D01*
X014762Y004779D01*
X014745Y004779D01*
X014670Y004767D01*
X014598Y004744D01*
X014531Y004709D01*
X014470Y004665D01*
X014416Y004612D01*
X014372Y004550D01*
X014338Y004483D01*
X014314Y004411D01*
X014302Y004337D01*
X014302Y004019D01*
X014302Y004301D02*
X013769Y004301D01*
X013769Y004460D02*
X014330Y004460D01*
X014423Y004618D02*
X013769Y004618D01*
X013769Y004777D02*
X014730Y004777D01*
X014762Y004777D02*
X014802Y004777D01*
X014835Y004777D02*
X015260Y004777D01*
X015338Y004618D02*
X015142Y004618D01*
X015235Y004460D02*
X015264Y004460D01*
X014802Y004460D02*
X014762Y004460D01*
X014762Y004618D02*
X014802Y004618D01*
X014802Y004301D02*
X014762Y004301D01*
X014762Y004143D02*
X014802Y004143D01*
X014802Y003350D02*
X014762Y003350D01*
X015968Y003192D02*
X017596Y003192D01*
X017368Y003350D02*
X017112Y003350D01*
X017224Y003509D02*
X017277Y003509D01*
X016802Y003509D02*
X016762Y003509D01*
X016762Y003667D02*
X016802Y003667D01*
X016802Y003826D02*
X016762Y003826D01*
X016762Y003350D02*
X016802Y003350D01*
X016452Y003350D02*
X016197Y003350D01*
X016288Y003509D02*
X016341Y003509D01*
X015073Y004935D02*
X013769Y004935D01*
X013769Y005094D02*
X014915Y005094D01*
X014791Y005252D02*
X013769Y005252D01*
X013769Y005411D02*
X014761Y005411D01*
X014761Y005569D02*
X013769Y005569D01*
X013852Y005728D02*
X014761Y005728D01*
X014761Y005886D02*
X014011Y005886D01*
X014169Y006045D02*
X014761Y006045D01*
X014761Y006203D02*
X014328Y006203D01*
X014486Y006362D02*
X014761Y006362D01*
X014688Y006520D02*
X014645Y006520D01*
X010380Y012385D02*
X002745Y012385D01*
X002745Y012543D02*
X010221Y012543D01*
X010063Y012702D02*
X002745Y012702D01*
X002745Y012860D02*
X009904Y012860D01*
X009746Y013019D02*
X002745Y013019D01*
X002745Y013177D02*
X009587Y013177D01*
X009429Y013336D02*
X002745Y013336D01*
X002745Y013494D02*
X009270Y013494D01*
X009112Y013653D02*
X002745Y013653D01*
X002745Y013811D02*
X008953Y013811D01*
X008795Y013970D02*
X002745Y013970D01*
X002745Y014128D02*
X008636Y014128D01*
X008478Y014287D02*
X002745Y014287D01*
X002745Y014445D02*
X008319Y014445D01*
X008161Y014604D02*
X002745Y014604D01*
X002745Y014762D02*
X008002Y014762D01*
X007844Y014921D02*
X002745Y014921D01*
X002745Y015079D02*
X007685Y015079D01*
X007527Y015238D02*
X002745Y015238D01*
X002745Y015396D02*
X007368Y015396D01*
X007210Y015555D02*
X002745Y015555D01*
X002745Y015713D02*
X007051Y015713D01*
X006893Y015872D02*
X002745Y015872D01*
X002745Y016030D02*
X006734Y016030D01*
X006576Y016189D02*
X002745Y016189D01*
X002745Y016347D02*
X006417Y016347D01*
X006259Y016506D02*
X002745Y016506D01*
X002745Y016664D02*
X006100Y016664D01*
X006040Y016823D02*
X002745Y016823D01*
X002745Y016981D02*
X006040Y016981D01*
X006040Y017140D02*
X002745Y017140D01*
X002745Y017298D02*
X006040Y017298D01*
X006040Y017457D02*
X002745Y017457D01*
X002745Y017615D02*
X006040Y017615D01*
X006040Y017774D02*
X002745Y017774D01*
X002745Y017932D02*
X006040Y017932D01*
X006040Y018091D02*
X002745Y018091D01*
X002745Y018249D02*
X006040Y018249D01*
X006040Y018408D02*
X002745Y018408D01*
X002745Y018566D02*
X006040Y018566D01*
X006040Y018725D02*
X002745Y018725D01*
X002745Y018883D02*
X006040Y018883D01*
X006040Y019042D02*
X002745Y019042D01*
X002745Y019200D02*
X006040Y019200D01*
X006040Y019359D02*
X002745Y019359D01*
X002745Y019517D02*
X006040Y019517D01*
X006040Y019676D02*
X002745Y019676D01*
X002745Y019834D02*
X006040Y019834D01*
X006040Y019993D02*
X002745Y019993D01*
X002745Y020151D02*
X006040Y020151D01*
X006040Y020310D02*
X002745Y020310D01*
X002745Y020468D02*
X006040Y020468D01*
X006040Y020627D02*
X002745Y020627D01*
X002745Y020785D02*
X006040Y020785D01*
X006040Y020944D02*
X002745Y020944D01*
X002745Y021102D02*
X006040Y021102D01*
X006040Y021261D02*
X002745Y021261D01*
X002745Y021419D02*
X006040Y021419D01*
X006040Y021578D02*
X002745Y021578D01*
X002745Y021736D02*
X006040Y021736D01*
X006040Y021895D02*
X002745Y021895D01*
X002745Y022053D02*
X006040Y022053D01*
X005991Y022212D02*
X002895Y022212D01*
X003054Y022370D02*
X005960Y022370D01*
X005960Y022529D02*
X003212Y022529D01*
X003371Y022687D02*
X006041Y022687D01*
X006200Y022846D02*
X003529Y022846D01*
X002873Y023321D02*
X001757Y023321D01*
X001757Y023163D02*
X002715Y023163D01*
X002556Y023004D02*
X001757Y023004D01*
X001757Y022846D02*
X002398Y022846D01*
X002239Y022687D02*
X001757Y022687D01*
X001757Y022529D02*
X002081Y022529D01*
X001972Y022370D02*
X001757Y022370D01*
X001757Y022212D02*
X001945Y022212D01*
X001945Y022053D02*
X001757Y022053D01*
X001757Y021895D02*
X001945Y021895D01*
X001945Y021736D02*
X001757Y021736D01*
X001757Y021578D02*
X001945Y021578D01*
X001945Y021419D02*
X001757Y021419D01*
X001757Y021261D02*
X001945Y021261D01*
X001945Y021102D02*
X001757Y021102D01*
X001757Y020944D02*
X001945Y020944D01*
X001945Y020785D02*
X001757Y020785D01*
X001757Y020627D02*
X001945Y020627D01*
X001945Y020468D02*
X001757Y020468D01*
X001757Y020310D02*
X001945Y020310D01*
X001945Y020151D02*
X001757Y020151D01*
X001757Y019993D02*
X001945Y019993D01*
X001945Y019834D02*
X001757Y019834D01*
X001757Y019676D02*
X001945Y019676D01*
X001945Y019517D02*
X001757Y019517D01*
X001757Y019359D02*
X001945Y019359D01*
X001945Y019200D02*
X001757Y019200D01*
X001757Y019042D02*
X001945Y019042D01*
X001945Y018883D02*
X001757Y018883D01*
X001757Y018725D02*
X001945Y018725D01*
X001945Y018566D02*
X001757Y018566D01*
X001757Y018408D02*
X001945Y018408D01*
X001945Y018249D02*
X001757Y018249D01*
X001757Y018091D02*
X001945Y018091D01*
X001945Y017932D02*
X001757Y017932D01*
X001757Y017774D02*
X001945Y017774D01*
X001945Y017615D02*
X001757Y017615D01*
X001757Y017457D02*
X001945Y017457D01*
X001945Y017298D02*
X001757Y017298D01*
X001757Y017140D02*
X001945Y017140D01*
X001945Y016981D02*
X001757Y016981D01*
X001757Y016823D02*
X001945Y016823D01*
X001945Y016664D02*
X001757Y016664D01*
X001757Y016506D02*
X001945Y016506D01*
X001945Y016347D02*
X001757Y016347D01*
X001757Y016189D02*
X001945Y016189D01*
X001945Y016030D02*
X001757Y016030D01*
X001757Y015872D02*
X001945Y015872D01*
X001945Y015713D02*
X001757Y015713D01*
X001757Y015555D02*
X001945Y015555D01*
X001945Y015396D02*
X001757Y015396D01*
X001757Y015238D02*
X001945Y015238D01*
X001945Y015079D02*
X001757Y015079D01*
X001757Y014921D02*
X001945Y014921D01*
X001945Y014762D02*
X001757Y014762D01*
X001757Y014604D02*
X001945Y014604D01*
X001945Y014445D02*
X001757Y014445D01*
X001757Y014287D02*
X001945Y014287D01*
X001945Y014128D02*
X001757Y014128D01*
X001757Y013970D02*
X001945Y013970D01*
X001945Y013811D02*
X001757Y013811D01*
X001757Y013653D02*
X001945Y013653D01*
X001945Y013494D02*
X001757Y013494D01*
X001757Y013336D02*
X001945Y013336D01*
X001945Y013177D02*
X001757Y013177D01*
X001757Y013019D02*
X001945Y013019D01*
X001945Y012860D02*
X001757Y012860D01*
X001757Y012702D02*
X001945Y012702D01*
X001945Y012543D02*
X001757Y012543D01*
X001757Y012385D02*
X001945Y012385D01*
X001945Y012226D02*
X001757Y012226D01*
X001757Y012068D02*
X001945Y012068D01*
X001945Y011909D02*
X001757Y011909D01*
X001757Y011751D02*
X001945Y011751D01*
X001945Y011592D02*
X001757Y011592D01*
X001757Y011434D02*
X001945Y011434D01*
X001945Y011275D02*
X001757Y011275D01*
X001757Y011117D02*
X001945Y011117D01*
X001945Y010958D02*
X001757Y010958D01*
X001757Y010800D02*
X001945Y010800D01*
X001945Y010641D02*
X001757Y010641D01*
X001757Y010483D02*
X001945Y010483D01*
X001945Y010324D02*
X001757Y010324D01*
X001757Y010166D02*
X001945Y010166D01*
X001945Y010007D02*
X001757Y010007D01*
X001757Y009849D02*
X001945Y009849D01*
X001945Y009690D02*
X001757Y009690D01*
X001757Y009532D02*
X001945Y009532D01*
X001945Y009373D02*
X001757Y009373D01*
X001757Y009215D02*
X001945Y009215D01*
X001945Y009056D02*
X001757Y009056D01*
X001757Y008898D02*
X001945Y008898D01*
X001945Y008739D02*
X001757Y008739D01*
X001757Y008581D02*
X001945Y008581D01*
X001945Y008422D02*
X001757Y008422D01*
X001757Y008264D02*
X001945Y008264D01*
X001945Y008105D02*
X001757Y008105D01*
X001757Y007947D02*
X001945Y007947D01*
X001945Y007788D02*
X001757Y007788D01*
X001757Y007630D02*
X001945Y007630D01*
X001945Y007471D02*
X001792Y007471D01*
X001792Y007313D02*
X001945Y007313D01*
X001905Y007154D02*
X001792Y007154D01*
X001749Y006996D02*
X001905Y006996D01*
X001905Y006837D02*
X001361Y006837D01*
X001412Y006679D02*
X002036Y006679D01*
X001677Y006362D02*
X003109Y006362D01*
X003109Y006520D02*
X001518Y006520D01*
X001757Y006203D02*
X002392Y006203D01*
X002233Y006045D02*
X001757Y006045D01*
X001792Y005886D02*
X002220Y005886D01*
X002220Y005728D02*
X001876Y005728D01*
X002035Y005569D02*
X002318Y005569D01*
X002929Y006203D02*
X003109Y006203D01*
X003109Y006045D02*
X003087Y006045D01*
X003189Y006679D02*
X002655Y006679D01*
X002785Y006837D02*
X003237Y006837D01*
X003237Y006996D02*
X002785Y006996D01*
X002785Y007154D02*
X003291Y007154D01*
X003457Y007313D02*
X002745Y007313D01*
X002745Y007471D02*
X003615Y007471D01*
X003774Y007630D02*
X002745Y007630D01*
X002745Y007788D02*
X003932Y007788D01*
X004091Y007947D02*
X002745Y007947D01*
X002745Y008105D02*
X004249Y008105D01*
X004408Y008264D02*
X002745Y008264D01*
X002745Y008422D02*
X004566Y008422D01*
X001037Y007630D02*
X000904Y007630D01*
X000972Y007471D02*
X001002Y007471D01*
X001002Y007313D02*
X000972Y007313D01*
X000972Y007154D02*
X001002Y007154D01*
X001044Y006996D02*
X000905Y006996D01*
X000848Y006045D02*
X000975Y006045D01*
X000972Y005886D02*
X001002Y005886D01*
X001002Y005728D02*
X000972Y005728D01*
X000972Y005569D02*
X001002Y005569D01*
X001029Y005411D02*
X000934Y005411D01*
X007911Y015872D02*
X011458Y015872D01*
X011337Y016030D02*
X007752Y016030D01*
X007594Y016189D02*
X011292Y016189D01*
X011290Y016347D02*
X007435Y016347D01*
X007277Y016506D02*
X011290Y016506D01*
X011290Y016558D02*
X011750Y016558D01*
X011750Y017318D01*
X011733Y017318D01*
X011658Y017306D01*
X011586Y017283D01*
X011519Y017248D01*
X011458Y017204D01*
X011404Y017150D01*
X011360Y017089D01*
X011325Y017022D01*
X011302Y016950D01*
X011290Y016876D01*
X011290Y016558D01*
X011290Y016664D02*
X007118Y016664D01*
X006960Y016823D02*
X011290Y016823D01*
X011312Y016981D02*
X006801Y016981D01*
X006760Y017140D02*
X011396Y017140D01*
X011633Y017298D02*
X006760Y017298D01*
X006760Y018408D02*
X011491Y018408D01*
X011519Y018387D02*
X011586Y018353D01*
X011658Y018330D01*
X011733Y018318D01*
X011750Y018318D01*
X011750Y019078D01*
X011290Y019078D01*
X011290Y018760D01*
X011302Y018685D01*
X011325Y018614D01*
X011360Y018546D01*
X011404Y018485D01*
X011458Y018432D01*
X011519Y018387D01*
X011750Y018408D02*
X011790Y018408D01*
X011790Y018318D02*
X011808Y018318D01*
X011883Y018330D01*
X011955Y018353D01*
X012022Y018387D01*
X012083Y018432D01*
X012136Y018485D01*
X012181Y018546D01*
X012215Y018614D01*
X012238Y018685D01*
X012250Y018760D01*
X012250Y019078D01*
X011790Y019078D01*
X011790Y018318D01*
X011790Y018566D02*
X011750Y018566D01*
X011750Y018725D02*
X011790Y018725D01*
X011790Y018883D02*
X011750Y018883D01*
X011750Y019042D02*
X011790Y019042D01*
X011790Y019078D02*
X011750Y019078D01*
X011750Y019118D01*
X011290Y019118D01*
X011290Y019436D01*
X011302Y019510D01*
X011325Y019582D01*
X011360Y019649D01*
X011404Y019710D01*
X011458Y019764D01*
X011519Y019808D01*
X011586Y019843D01*
X011658Y019866D01*
X011733Y019878D01*
X011750Y019878D01*
X011750Y019118D01*
X011790Y019118D01*
X011790Y019878D01*
X011808Y019878D01*
X011883Y019866D01*
X011955Y019843D01*
X012022Y019808D01*
X012083Y019764D01*
X012136Y019710D01*
X012181Y019649D01*
X012215Y019582D01*
X012238Y019510D01*
X012250Y019436D01*
X012250Y019118D01*
X011790Y019118D01*
X011790Y019078D01*
X011790Y019200D02*
X011750Y019200D01*
X011750Y019359D02*
X011790Y019359D01*
X011790Y019517D02*
X011750Y019517D01*
X011750Y019676D02*
X011790Y019676D01*
X011790Y019834D02*
X011750Y019834D01*
X011569Y019834D02*
X006760Y019834D01*
X006760Y019676D02*
X011379Y019676D01*
X011304Y019517D02*
X006760Y019517D01*
X006760Y019359D02*
X011290Y019359D01*
X011290Y019200D02*
X006760Y019200D01*
X006760Y019042D02*
X011290Y019042D01*
X011290Y018883D02*
X006760Y018883D01*
X006760Y018725D02*
X011296Y018725D01*
X011350Y018566D02*
X006760Y018566D01*
X011750Y017298D02*
X011790Y017298D01*
X011790Y017140D02*
X011750Y017140D01*
X011750Y016981D02*
X011790Y016981D01*
X011790Y016823D02*
X011750Y016823D01*
X011750Y016664D02*
X011790Y016664D01*
X011790Y016506D02*
X011750Y016506D01*
X011750Y016347D02*
X011790Y016347D01*
X011790Y016189D02*
X011750Y016189D01*
X011750Y016030D02*
X011790Y016030D01*
X011790Y015872D02*
X011750Y015872D01*
X012050Y018408D02*
X013177Y018408D01*
X013062Y018566D02*
X012191Y018566D01*
X012245Y018725D02*
X013010Y018725D01*
X013010Y018883D02*
X012250Y018883D01*
X012250Y019042D02*
X013010Y019042D01*
X013010Y019200D02*
X012250Y019200D01*
X012250Y019359D02*
X013010Y019359D01*
X013015Y019517D02*
X012236Y019517D01*
X012162Y019676D02*
X013081Y019676D01*
X013223Y019834D02*
X011971Y019834D01*
X015822Y014921D02*
X025048Y014921D01*
X025048Y015079D02*
X024539Y015079D01*
X024537Y015071D02*
X024549Y015117D01*
X024549Y015324D01*
X024180Y015324D01*
X024180Y014961D01*
X024393Y014961D01*
X024438Y014973D01*
X024479Y014997D01*
X024513Y015030D01*
X024537Y015071D01*
X024549Y015238D02*
X025048Y015238D01*
X025048Y015396D02*
X024549Y015396D01*
X024549Y015555D02*
X025048Y015555D01*
X025048Y015713D02*
X024580Y015713D01*
X024609Y015872D02*
X025048Y015872D01*
X025048Y016030D02*
X024609Y016030D01*
X024609Y016189D02*
X025048Y016189D01*
X025048Y016347D02*
X024818Y016347D01*
X024846Y016506D02*
X025048Y016506D01*
X025048Y016664D02*
X024846Y016664D01*
X024825Y016823D02*
X025048Y016823D01*
X025048Y016981D02*
X024786Y016981D01*
X024786Y017140D02*
X025048Y017140D01*
X025048Y017298D02*
X024780Y017298D01*
X024846Y017457D02*
X025048Y017457D01*
X025048Y017615D02*
X024846Y017615D01*
X024845Y017774D02*
X025048Y017774D01*
X025048Y017932D02*
X024846Y017932D01*
X024846Y018091D02*
X024899Y018091D01*
X025784Y018091D02*
X026046Y018091D01*
X026048Y017932D02*
X025784Y017932D01*
X025784Y017774D02*
X025987Y017774D01*
X025986Y017615D02*
X025784Y017615D01*
X025784Y017457D02*
X025986Y017457D01*
X025997Y017298D02*
X025784Y017298D01*
X025784Y017140D02*
X025986Y017140D01*
X025986Y016981D02*
X025784Y016981D01*
X025784Y016823D02*
X026028Y016823D01*
X026046Y016664D02*
X025784Y016664D01*
X025784Y016506D02*
X026046Y016506D01*
X026088Y016347D02*
X025784Y016347D01*
X025784Y016189D02*
X027286Y016189D01*
X027286Y016347D02*
X027164Y016347D01*
X027206Y016506D02*
X027286Y016506D01*
X027286Y016664D02*
X027206Y016664D01*
X026626Y016506D02*
X026626Y016506D01*
X026626Y016347D02*
X026626Y016347D01*
X027286Y016030D02*
X025784Y016030D01*
X025784Y015872D02*
X027286Y015872D01*
X027286Y015713D02*
X025784Y015713D01*
X025784Y015555D02*
X027286Y015555D01*
X027286Y015396D02*
X025784Y015396D01*
X025784Y015238D02*
X027286Y015238D01*
X029337Y017615D02*
X031453Y017615D01*
X031121Y017774D02*
X029337Y017774D01*
X029302Y017932D02*
X030963Y017932D01*
X030804Y018091D02*
X027206Y018091D01*
X027206Y018249D02*
X030646Y018249D01*
X030487Y018408D02*
X027263Y018408D01*
X027266Y018566D02*
X030329Y018566D01*
X030170Y018725D02*
X027266Y018725D01*
X027206Y019517D02*
X036562Y019517D01*
X036525Y019529D02*
X036604Y019503D01*
X036687Y019490D01*
X037044Y019490D01*
X037044Y019985D01*
X036197Y019985D01*
X036197Y019981D01*
X036210Y019898D01*
X036236Y019818D01*
X036274Y019743D01*
X036323Y019676D01*
X036382Y019616D01*
X036450Y019567D01*
X036525Y019529D01*
X036323Y019676D02*
X027206Y019676D01*
X027206Y019747D02*
X027194Y019793D01*
X027170Y019834D01*
X036230Y019834D01*
X036197Y020060D02*
X037044Y020060D01*
X037044Y019985D01*
X037119Y019985D01*
X037119Y020060D01*
X037044Y020060D01*
X037044Y020555D01*
X036687Y020555D01*
X036604Y020542D01*
X036525Y020516D01*
X036450Y020478D01*
X036382Y020429D01*
X036323Y020369D01*
X036274Y020302D01*
X036236Y020227D01*
X036210Y020147D01*
X036197Y020064D01*
X036197Y020060D01*
X036211Y020151D02*
X025627Y020151D01*
X025627Y019993D02*
X037044Y019993D01*
X037119Y019993D02*
X039310Y019993D01*
X039310Y020151D02*
X037952Y020151D01*
X037953Y020147D02*
X037928Y020227D01*
X037890Y020302D01*
X037840Y020369D01*
X037781Y020429D01*
X037713Y020478D01*
X037638Y020516D01*
X037559Y020542D01*
X037476Y020555D01*
X037119Y020555D01*
X037119Y020060D01*
X037967Y020060D01*
X037967Y020064D01*
X037953Y020147D01*
X037884Y020310D02*
X039310Y020310D01*
X039310Y020468D02*
X037727Y020468D01*
X037119Y020468D02*
X037044Y020468D01*
X037044Y020310D02*
X037119Y020310D01*
X037119Y020151D02*
X037044Y020151D01*
X037044Y019834D02*
X037119Y019834D01*
X037119Y019676D02*
X037044Y019676D01*
X037044Y019517D02*
X037119Y019517D01*
X037840Y019676D02*
X039310Y019676D01*
X039310Y019834D02*
X037933Y019834D01*
X039310Y020627D02*
X025627Y020627D01*
X025627Y020785D02*
X039310Y020785D01*
X039310Y020944D02*
X025627Y020944D01*
X025627Y021102D02*
X039310Y021102D01*
X039310Y021261D02*
X025627Y021261D01*
X025627Y021419D02*
X036562Y021419D01*
X036611Y021399D02*
X037552Y021399D01*
X037770Y021489D01*
X037936Y021655D01*
X038027Y021873D01*
X038027Y022109D01*
X037936Y022327D01*
X037770Y022493D01*
X037552Y022584D01*
X036611Y022584D01*
X036393Y022493D01*
X036227Y022327D01*
X036137Y022109D01*
X036137Y021873D01*
X036227Y021655D01*
X036393Y021489D01*
X036611Y021399D01*
X036305Y021578D02*
X032160Y021578D01*
X032134Y021551D02*
X032392Y021809D01*
X032392Y022173D01*
X032134Y022431D01*
X031769Y022431D01*
X031689Y022351D01*
X027371Y022351D01*
X027291Y022431D01*
X026927Y022431D01*
X026669Y022173D01*
X026669Y021809D01*
X026927Y021551D01*
X027291Y021551D01*
X027371Y021631D01*
X031689Y021631D01*
X031769Y021551D01*
X032134Y021551D01*
X032319Y021736D02*
X036193Y021736D01*
X036137Y021895D02*
X032392Y021895D01*
X032392Y022053D02*
X036137Y022053D01*
X036179Y022212D02*
X032353Y022212D01*
X032195Y022370D02*
X036270Y022370D01*
X036478Y022529D02*
X024612Y022529D01*
X024453Y022687D02*
X039310Y022687D01*
X039310Y022529D02*
X037685Y022529D01*
X037893Y022370D02*
X039310Y022370D01*
X039310Y022212D02*
X037984Y022212D01*
X038027Y022053D02*
X039310Y022053D01*
X039310Y021895D02*
X038027Y021895D01*
X037970Y021736D02*
X039310Y021736D01*
X039310Y021578D02*
X037859Y021578D01*
X037601Y021419D02*
X039310Y021419D01*
X039310Y022846D02*
X024295Y022846D01*
X024136Y023004D02*
X039310Y023004D01*
X039310Y023163D02*
X023978Y023163D01*
X023819Y023321D02*
X039310Y023321D01*
X039310Y023480D02*
X037665Y023480D01*
X037638Y023466D02*
X037713Y023504D01*
X037781Y023553D01*
X037840Y023613D01*
X037890Y023680D01*
X037928Y023755D01*
X037953Y023835D01*
X037967Y023918D01*
X037967Y023922D01*
X037119Y023922D01*
X037119Y023427D01*
X037476Y023427D01*
X037559Y023440D01*
X037638Y023466D01*
X037859Y023638D02*
X039310Y023638D01*
X039310Y023797D02*
X037941Y023797D01*
X037967Y023997D02*
X037967Y024001D01*
X037953Y024084D01*
X037928Y024164D01*
X037890Y024239D01*
X037840Y024306D01*
X037781Y024366D01*
X037713Y024415D01*
X037638Y024453D01*
X037559Y024479D01*
X037476Y024492D01*
X037119Y024492D01*
X037119Y023997D01*
X037044Y023997D01*
X037044Y023922D01*
X036197Y023922D01*
X036197Y023918D01*
X036210Y023835D01*
X036236Y023755D01*
X036274Y023680D01*
X036323Y023613D01*
X036382Y023553D01*
X036450Y023504D01*
X036525Y023466D01*
X036604Y023440D01*
X036687Y023427D01*
X037044Y023427D01*
X037044Y023922D01*
X037119Y023922D01*
X037119Y023997D01*
X037967Y023997D01*
X037944Y024114D02*
X039310Y024114D01*
X039310Y024272D02*
X037865Y024272D01*
X037683Y024431D02*
X039310Y024431D01*
X039310Y024589D02*
X022551Y024589D01*
X022393Y024748D02*
X039310Y024748D01*
X039310Y024906D02*
X022234Y024906D01*
X022710Y024431D02*
X036481Y024431D01*
X036450Y024415D02*
X036382Y024366D01*
X036323Y024306D01*
X036274Y024239D01*
X036236Y024164D01*
X036210Y024084D01*
X036197Y024001D01*
X036197Y023997D01*
X037044Y023997D01*
X037044Y024492D01*
X036687Y024492D01*
X036604Y024479D01*
X036525Y024453D01*
X036450Y024415D01*
X036298Y024272D02*
X022868Y024272D01*
X023027Y024114D02*
X036219Y024114D01*
X036222Y023797D02*
X023344Y023797D01*
X023185Y023955D02*
X037044Y023955D01*
X037119Y023955D02*
X039310Y023955D01*
X039310Y025065D02*
X022970Y025065D01*
X023100Y025223D02*
X039310Y025223D01*
X039310Y025382D02*
X037663Y025382D01*
X037770Y025426D02*
X037552Y025336D01*
X036611Y025336D01*
X036393Y025426D01*
X036227Y025592D01*
X036137Y025810D01*
X036137Y026046D01*
X036227Y026264D01*
X036393Y026430D01*
X036611Y026521D01*
X037552Y026521D01*
X037770Y026430D01*
X037936Y026264D01*
X038027Y026046D01*
X038027Y025810D01*
X037936Y025592D01*
X037770Y025426D01*
X037884Y025540D02*
X039310Y025540D01*
X039310Y025699D02*
X037980Y025699D01*
X038027Y025857D02*
X039310Y025857D01*
X039310Y026016D02*
X038027Y026016D01*
X037973Y026174D02*
X039310Y026174D01*
X039310Y026333D02*
X037867Y026333D01*
X037623Y026491D02*
X039310Y026491D01*
X039310Y026650D02*
X022980Y026650D01*
X022980Y026808D02*
X039310Y026808D01*
X039310Y026967D02*
X022980Y026967D01*
X022980Y027125D02*
X039310Y027125D01*
X039310Y027284D02*
X022980Y027284D01*
X022980Y027442D02*
X039310Y027442D01*
X039310Y027601D02*
X022980Y027601D01*
X022980Y027759D02*
X036561Y027759D01*
X036564Y027757D02*
X036644Y027731D01*
X036727Y027718D01*
X037083Y027718D01*
X037083Y028213D01*
X037158Y028213D01*
X037158Y027718D01*
X037515Y027718D01*
X037598Y027731D01*
X037678Y027757D01*
X037753Y027795D01*
X037820Y027845D01*
X037880Y027904D01*
X037929Y027972D01*
X037967Y028046D01*
X037993Y028126D01*
X038006Y028209D01*
X038006Y028213D01*
X037158Y028213D01*
X037158Y028288D01*
X037083Y028288D01*
X037083Y028213D01*
X036236Y028213D01*
X036236Y028209D01*
X036249Y028126D01*
X036275Y028046D01*
X036313Y027972D01*
X036362Y027904D01*
X036422Y027845D01*
X036489Y027795D01*
X036564Y027757D01*
X036352Y027918D02*
X022980Y027918D01*
X023056Y028076D02*
X036265Y028076D01*
X036236Y028288D02*
X037083Y028288D01*
X037083Y028783D01*
X036727Y028783D01*
X036644Y028770D01*
X036564Y028744D01*
X036489Y028706D01*
X036422Y028657D01*
X036362Y028598D01*
X036313Y028530D01*
X036275Y028455D01*
X036249Y028376D01*
X036236Y028293D01*
X036236Y028288D01*
X036255Y028393D02*
X032843Y028393D01*
X032937Y028552D02*
X036329Y028552D01*
X036497Y028710D02*
X032973Y028710D01*
X032966Y028869D02*
X039310Y028869D01*
X039310Y029027D02*
X032900Y029027D01*
X032755Y029186D02*
X039310Y029186D01*
X039310Y029344D02*
X032794Y029344D01*
X032917Y029503D02*
X039310Y029503D01*
X039310Y029661D02*
X037674Y029661D01*
X037591Y029627D02*
X037809Y029717D01*
X037976Y029884D01*
X038066Y030102D01*
X038066Y030337D01*
X037976Y030555D01*
X037809Y030722D01*
X037591Y030812D01*
X036651Y030812D01*
X036433Y030722D01*
X036266Y030555D01*
X036176Y030337D01*
X036176Y030102D01*
X036266Y029884D01*
X036433Y029717D01*
X036651Y029627D01*
X037591Y029627D01*
X037912Y029820D02*
X039310Y029820D01*
X039310Y029978D02*
X038015Y029978D01*
X038066Y030137D02*
X039310Y030137D01*
X039310Y030295D02*
X038066Y030295D01*
X038018Y030454D02*
X039310Y030454D01*
X039310Y030612D02*
X037919Y030612D01*
X037691Y030771D02*
X039310Y030771D01*
X039310Y030929D02*
X028918Y030929D01*
X028760Y030771D02*
X036551Y030771D01*
X036323Y030612D02*
X028601Y030612D01*
X028371Y030454D02*
X036224Y030454D01*
X036176Y030295D02*
X021631Y030295D01*
X021804Y030137D02*
X022068Y030137D01*
X021951Y029978D02*
X021920Y029978D01*
X021843Y028393D02*
X022029Y028393D01*
X022265Y028235D02*
X021607Y028235D01*
X021265Y028235D02*
X020607Y028235D01*
X020843Y028393D02*
X021029Y028393D01*
X022980Y026491D02*
X036540Y026491D01*
X036296Y026333D02*
X022980Y026333D01*
X022980Y026174D02*
X036190Y026174D01*
X036137Y026016D02*
X022980Y026016D01*
X022980Y025857D02*
X036137Y025857D01*
X036183Y025699D02*
X022980Y025699D01*
X023100Y025540D02*
X036279Y025540D01*
X036500Y025382D02*
X023100Y025382D01*
X023502Y023638D02*
X036304Y023638D01*
X036498Y023480D02*
X023661Y023480D01*
X024770Y022370D02*
X026866Y022370D01*
X026707Y022212D02*
X024929Y022212D01*
X025087Y022053D02*
X026669Y022053D01*
X026669Y021895D02*
X025246Y021895D01*
X025404Y021736D02*
X026742Y021736D01*
X026900Y021578D02*
X025563Y021578D01*
X025627Y020468D02*
X036436Y020468D01*
X036279Y020310D02*
X025627Y020310D01*
X025627Y019834D02*
X026082Y019834D01*
X026046Y019676D02*
X025627Y019676D01*
X025627Y019517D02*
X026046Y019517D01*
X026022Y019359D02*
X025627Y019359D01*
X025775Y019200D02*
X025986Y019200D01*
X025986Y019042D02*
X025933Y019042D01*
X026626Y019593D02*
X026626Y019593D01*
X027206Y019593D01*
X027206Y019747D01*
X027170Y019834D02*
X027137Y019867D01*
X027096Y019891D01*
X027050Y019903D01*
X026626Y019903D01*
X026626Y019593D01*
X026626Y019676D02*
X026626Y019676D01*
X026626Y019834D02*
X026626Y019834D01*
X026626Y018093D02*
X026626Y018093D01*
X024924Y019042D02*
X024846Y019042D01*
X024846Y019200D02*
X024891Y019200D01*
X024891Y019359D02*
X024823Y019359D01*
X024846Y019517D02*
X024891Y019517D01*
X024891Y019676D02*
X024846Y019676D01*
X024820Y019834D02*
X024891Y019834D01*
X024206Y017093D02*
X024206Y017093D01*
X023704Y016189D02*
X022969Y016189D01*
X022810Y016030D02*
X023704Y016030D01*
X023704Y015872D02*
X022726Y015872D01*
X022595Y015713D02*
X023732Y015713D01*
X024133Y015238D02*
X024180Y015238D01*
X024180Y015079D02*
X024133Y015079D01*
X023722Y013811D02*
X019497Y013811D01*
X021929Y009532D02*
X021943Y009532D01*
X023823Y009373D02*
X024049Y009373D01*
X023943Y009532D02*
X023929Y009532D01*
X024823Y009373D02*
X025049Y009373D01*
X024943Y009532D02*
X024929Y009532D01*
X025823Y009373D02*
X026049Y009373D01*
X025943Y009532D02*
X025929Y009532D01*
X026823Y009373D02*
X027049Y009373D01*
X026943Y009532D02*
X026929Y009532D01*
X027823Y009373D02*
X028049Y009373D01*
X027943Y009532D02*
X027929Y009532D01*
X028823Y009373D02*
X029049Y009373D01*
X028943Y009532D02*
X028929Y009532D01*
X029823Y009373D02*
X030049Y009373D01*
X029943Y009532D02*
X029929Y009532D01*
X030823Y009373D02*
X031137Y009373D01*
X031009Y009532D02*
X030929Y009532D01*
X030971Y009633D02*
X030971Y009633D01*
X030908Y010007D02*
X031037Y010007D01*
X031417Y010007D02*
X031454Y010007D01*
X031454Y009849D02*
X031417Y009849D01*
X031417Y009690D02*
X031454Y009690D01*
X031454Y009532D02*
X031417Y009532D01*
X031417Y009373D02*
X031454Y009373D01*
X033554Y005569D02*
X025878Y005569D01*
X025793Y005411D02*
X036409Y005411D01*
X037083Y004301D02*
X037158Y004301D01*
X037158Y004143D02*
X037083Y004143D01*
X037083Y003984D02*
X037158Y003984D01*
X037158Y003826D02*
X037083Y003826D01*
X037083Y003667D02*
X037158Y003667D01*
X037158Y003509D02*
X037083Y003509D01*
X037859Y009373D02*
X039310Y009373D01*
X039310Y009532D02*
X037993Y009532D01*
X038059Y009690D02*
X039310Y009690D01*
X039310Y009849D02*
X038066Y009849D01*
X038040Y010007D02*
X039310Y010007D01*
X039310Y010166D02*
X037972Y010166D01*
X037813Y010324D02*
X039310Y010324D01*
X036634Y013177D02*
X033808Y013177D01*
X033808Y013336D02*
X036358Y013336D01*
X031743Y021578D02*
X027318Y021578D01*
X027352Y022370D02*
X031708Y022370D01*
X037044Y023480D02*
X037119Y023480D01*
X037119Y023638D02*
X037044Y023638D01*
X037044Y023797D02*
X037119Y023797D01*
X037119Y024114D02*
X037044Y024114D01*
X037044Y024272D02*
X037119Y024272D01*
X037119Y024431D02*
X037044Y024431D01*
X037083Y027759D02*
X037158Y027759D01*
X037158Y027918D02*
X037083Y027918D01*
X037083Y028076D02*
X037158Y028076D01*
X037158Y028235D02*
X039310Y028235D01*
X039310Y028393D02*
X037987Y028393D01*
X037993Y028376D02*
X037967Y028455D01*
X037929Y028530D01*
X037880Y028598D01*
X037820Y028657D01*
X037753Y028706D01*
X037678Y028744D01*
X037598Y028770D01*
X037515Y028783D01*
X037158Y028783D01*
X037158Y028288D01*
X038006Y028288D01*
X038006Y028293D01*
X037993Y028376D01*
X037913Y028552D02*
X039310Y028552D01*
X039310Y028710D02*
X037745Y028710D01*
X037158Y028710D02*
X037083Y028710D01*
X037083Y028552D02*
X037158Y028552D01*
X037158Y028393D02*
X037083Y028393D01*
X037083Y028235D02*
X032607Y028235D01*
X032265Y028235D02*
X031607Y028235D01*
X031843Y028393D02*
X032029Y028393D01*
X031265Y028235D02*
X030607Y028235D01*
X030843Y028393D02*
X031029Y028393D01*
X030265Y028235D02*
X029607Y028235D01*
X029843Y028393D02*
X030029Y028393D01*
X029265Y028235D02*
X028607Y028235D01*
X028843Y028393D02*
X029029Y028393D01*
X028265Y028235D02*
X027607Y028235D01*
X027843Y028393D02*
X028029Y028393D01*
X027265Y028235D02*
X026607Y028235D01*
X026843Y028393D02*
X027029Y028393D01*
X026265Y028235D02*
X025607Y028235D01*
X025843Y028393D02*
X026029Y028393D01*
X025265Y028235D02*
X024607Y028235D01*
X024843Y028393D02*
X025029Y028393D01*
X024265Y028235D02*
X023607Y028235D01*
X023843Y028393D02*
X024029Y028393D01*
X023265Y028235D02*
X023210Y028235D01*
X027804Y030137D02*
X028068Y030137D01*
X027951Y029978D02*
X027920Y029978D01*
X028804Y030137D02*
X029068Y030137D01*
X028951Y029978D02*
X028920Y029978D01*
X029804Y030137D02*
X030068Y030137D01*
X029951Y029978D02*
X029920Y029978D01*
X030804Y030137D02*
X031068Y030137D01*
X030951Y029978D02*
X030920Y029978D01*
X031804Y030137D02*
X032068Y030137D01*
X031951Y029978D02*
X031920Y029978D01*
X032804Y030137D02*
X036176Y030137D01*
X036227Y029978D02*
X032920Y029978D01*
X032973Y029820D02*
X036330Y029820D01*
X036568Y029661D02*
X032973Y029661D01*
X032854Y031405D02*
X039310Y031405D01*
X039310Y031563D02*
X033012Y031563D01*
X033100Y031722D02*
X036511Y031722D01*
X036489Y031732D02*
X036564Y031694D01*
X036644Y031668D01*
X036727Y031655D01*
X037083Y031655D01*
X037083Y032150D01*
X037158Y032150D01*
X037158Y031655D01*
X037515Y031655D01*
X037598Y031668D01*
X037678Y031694D01*
X037753Y031732D01*
X037820Y031782D01*
X037880Y031841D01*
X037929Y031909D01*
X037967Y031983D01*
X037993Y032063D01*
X038006Y032146D01*
X038006Y032150D01*
X037158Y032150D01*
X037158Y032225D01*
X037083Y032225D01*
X037083Y032150D01*
X036236Y032150D01*
X036236Y032146D01*
X036249Y032063D01*
X036275Y031983D01*
X036313Y031909D01*
X036362Y031841D01*
X036422Y031782D01*
X036489Y031732D01*
X036334Y031880D02*
X033100Y031880D01*
X033078Y032039D02*
X036257Y032039D01*
X036236Y032225D02*
X037083Y032225D01*
X037083Y032720D01*
X036727Y032720D01*
X036644Y032707D01*
X036564Y032681D01*
X036489Y032643D01*
X036422Y032594D01*
X036362Y032535D01*
X036313Y032467D01*
X036275Y032392D01*
X036249Y032313D01*
X036236Y032230D01*
X036236Y032225D01*
X036263Y032356D02*
X030298Y032356D01*
X030295Y032514D02*
X036347Y032514D01*
X036547Y032673D02*
X030237Y032673D01*
X030238Y032831D02*
X039310Y032831D01*
X039310Y032673D02*
X037695Y032673D01*
X037678Y032681D02*
X037598Y032707D01*
X037515Y032720D01*
X037158Y032720D01*
X037158Y032225D01*
X038006Y032225D01*
X038006Y032230D01*
X037993Y032313D01*
X037967Y032392D01*
X037929Y032467D01*
X037880Y032535D01*
X037820Y032594D01*
X037753Y032643D01*
X037678Y032681D01*
X037895Y032514D02*
X039310Y032514D01*
X039310Y032356D02*
X037979Y032356D01*
X037985Y032039D02*
X039310Y032039D01*
X039310Y032197D02*
X037158Y032197D01*
X037083Y032197D02*
X032919Y032197D01*
X032402Y032197D02*
X030298Y032197D01*
X031245Y032990D02*
X039310Y032990D01*
X039310Y033148D02*
X031452Y033148D01*
X031611Y033307D02*
X039310Y033307D01*
X039310Y033465D02*
X033379Y033465D01*
X033537Y033624D02*
X036507Y033624D01*
X036433Y033654D02*
X036651Y033564D01*
X037591Y033564D01*
X037809Y033654D01*
X037976Y033821D01*
X038066Y034039D01*
X038066Y034274D01*
X037976Y034492D01*
X037809Y034659D01*
X037591Y034749D01*
X036651Y034749D01*
X036433Y034659D01*
X036266Y034492D01*
X036176Y034274D01*
X036176Y034039D01*
X036266Y033821D01*
X036433Y033654D01*
X036305Y033782D02*
X033573Y033782D01*
X033573Y033941D02*
X036217Y033941D01*
X036176Y034099D02*
X033497Y034099D01*
X033339Y034258D02*
X036176Y034258D01*
X036235Y034416D02*
X032232Y034416D01*
X032548Y034575D02*
X032595Y034575D01*
X032595Y034733D02*
X032548Y034733D01*
X032595Y034849D02*
X032958Y034849D01*
X032958Y035062D01*
X032946Y035108D01*
X032922Y035149D01*
X032889Y035182D01*
X032848Y035206D01*
X032802Y035218D01*
X032595Y035218D01*
X032595Y034849D01*
X032595Y034892D02*
X032548Y034892D01*
X032548Y035050D02*
X032595Y035050D01*
X032595Y035209D02*
X032548Y035209D01*
X032305Y035209D02*
X032259Y035209D01*
X032838Y035209D02*
X039310Y035209D01*
X039310Y035367D02*
X029183Y035367D01*
X029025Y035209D02*
X031507Y035209D01*
X031534Y034416D02*
X031447Y034416D01*
X031376Y034258D02*
X032927Y034258D01*
X032954Y034575D02*
X036349Y034575D01*
X036612Y034733D02*
X032958Y034733D01*
X032958Y034892D02*
X039310Y034892D01*
X039310Y035050D02*
X032958Y035050D01*
X032887Y033465D02*
X031769Y033465D01*
X031227Y033941D02*
X030298Y033941D01*
X030298Y033782D02*
X031068Y033782D01*
X031217Y034099D02*
X031385Y034099D01*
X030796Y034099D02*
X030258Y034099D01*
X030238Y034258D02*
X030638Y034258D01*
X030567Y034416D02*
X030238Y034416D01*
X029658Y034330D02*
X029658Y034330D01*
X029078Y034258D02*
X028808Y034258D01*
X028808Y034416D02*
X029078Y034416D01*
X029050Y034575D02*
X028808Y034575D01*
X028808Y034733D02*
X029018Y034733D01*
X029018Y034892D02*
X028808Y034892D01*
X028866Y035050D02*
X029035Y035050D01*
X028866Y034099D02*
X028808Y034099D01*
X027956Y033465D02*
X027818Y033465D01*
X027818Y033307D02*
X027838Y033307D01*
X029241Y031405D02*
X032467Y031405D01*
X029206Y031246D02*
X039310Y031246D01*
X039310Y031088D02*
X029077Y031088D01*
X031240Y036160D02*
X037083Y036160D01*
X037158Y036160D02*
X039310Y036160D01*
X039310Y034733D02*
X037630Y034733D01*
X037893Y034575D02*
X039310Y034575D01*
X039310Y034416D02*
X038007Y034416D01*
X038066Y034258D02*
X039310Y034258D01*
X039310Y034099D02*
X038066Y034099D01*
X038025Y033941D02*
X039310Y033941D01*
X039310Y033782D02*
X037937Y033782D01*
X037735Y033624D02*
X039310Y033624D01*
X039310Y031880D02*
X037908Y031880D01*
X037731Y031722D02*
X039310Y031722D01*
X037158Y031722D02*
X037083Y031722D01*
X037083Y031880D02*
X037158Y031880D01*
X037158Y032039D02*
X037083Y032039D01*
X037083Y032356D02*
X037158Y032356D01*
X037158Y032514D02*
X037083Y032514D01*
X037083Y032673D02*
X037158Y032673D01*
X037083Y035684D02*
X037158Y035684D01*
X037158Y035843D02*
X037083Y035843D01*
X037083Y036001D02*
X037158Y036001D01*
X037158Y036318D02*
X037083Y036318D01*
X037083Y036477D02*
X037158Y036477D01*
X037158Y036635D02*
X037083Y036635D01*
X036180Y038220D02*
X031014Y038220D01*
X030911Y038379D02*
X036245Y038379D01*
X036374Y038537D02*
X000420Y038537D01*
X000420Y032831D02*
X007654Y032831D01*
X007654Y032673D02*
X000420Y032673D01*
X000420Y032514D02*
X006223Y032514D01*
X006079Y032356D02*
X000420Y032356D01*
X000420Y032197D02*
X006079Y032197D01*
X006079Y032039D02*
X000420Y032039D01*
X000420Y031880D02*
X006204Y031880D01*
X006419Y031722D02*
X000420Y031722D01*
X000420Y031563D02*
X006578Y031563D01*
X006736Y031405D02*
X000420Y031405D01*
X000420Y031246D02*
X006895Y031246D01*
X007053Y031088D02*
X000420Y031088D01*
X000420Y030929D02*
X007212Y030929D01*
X007370Y030771D02*
X000420Y030771D01*
X000420Y030612D02*
X007497Y030612D01*
X007497Y030454D02*
X000420Y030454D01*
X000420Y030295D02*
X007497Y030295D01*
X007497Y030137D02*
X000420Y030137D01*
X000420Y029978D02*
X007497Y029978D01*
X007497Y029820D02*
X000420Y029820D01*
X000420Y029661D02*
X007497Y029661D01*
X007497Y029503D02*
X000420Y029503D01*
X000420Y029344D02*
X007497Y029344D01*
X007497Y029186D02*
X000420Y029186D01*
X000420Y029027D02*
X007497Y029027D01*
X007497Y028869D02*
X000420Y028869D01*
X000420Y028710D02*
X007497Y028710D01*
X007497Y028552D02*
X000420Y028552D01*
X000420Y028393D02*
X007497Y028393D01*
X007503Y028235D02*
X000420Y028235D01*
X000420Y028076D02*
X007584Y028076D01*
X007743Y027918D02*
X000420Y027918D01*
X000420Y027759D02*
X007901Y027759D01*
X008060Y027601D02*
X000420Y027601D01*
X000420Y027442D02*
X008218Y027442D01*
X008377Y027284D02*
X000420Y027284D01*
X000420Y027125D02*
X008535Y027125D01*
X008694Y026967D02*
X000420Y026967D01*
X000420Y026808D02*
X008852Y026808D01*
X009011Y026650D02*
X000420Y026650D01*
X000420Y026491D02*
X009169Y026491D01*
X009334Y026333D02*
X000420Y026333D01*
X000420Y026174D02*
X015076Y026174D01*
X015076Y026016D02*
X000420Y026016D01*
X002260Y024114D02*
X003666Y024114D01*
X003824Y024272D02*
X002419Y024272D01*
X002577Y024431D02*
X003983Y024431D01*
X004162Y024589D02*
X002736Y024589D01*
X002102Y023955D02*
X003507Y023955D01*
X003349Y023797D02*
X001943Y023797D01*
X001785Y023638D02*
X003190Y023638D01*
X003032Y023480D02*
X001757Y023480D01*
X010859Y031563D02*
X013600Y031563D01*
X013573Y031405D02*
X011017Y031405D01*
X011804Y030137D02*
X012068Y030137D01*
X011951Y029978D02*
X011920Y029978D01*
X013068Y030929D02*
X013165Y030929D01*
X013165Y031088D02*
X012909Y031088D01*
X012751Y031246D02*
X013301Y031246D01*
X013843Y028393D02*
X014029Y028393D01*
X014036Y028235D02*
X013836Y028235D01*
X013836Y028076D02*
X014036Y028076D01*
X014036Y027918D02*
X013836Y027918D01*
X013836Y027759D02*
X014036Y027759D01*
X013964Y027601D02*
X013800Y027601D01*
X013805Y027442D02*
X013677Y027442D01*
X013647Y027284D02*
X013519Y027284D01*
X014144Y026650D02*
X015076Y026650D01*
X015076Y026808D02*
X014303Y026808D01*
X014461Y026967D02*
X015076Y026967D01*
X015076Y027125D02*
X014620Y027125D01*
X014776Y027284D02*
X015076Y027284D01*
X015076Y027442D02*
X014836Y027442D01*
X014836Y027601D02*
X015076Y027601D01*
X015076Y027759D02*
X014836Y027759D01*
X014836Y027918D02*
X015076Y027918D01*
X015076Y028076D02*
X014836Y028076D01*
X014836Y028235D02*
X015076Y028235D01*
X015029Y028393D02*
X014843Y028393D01*
X015796Y028235D02*
X016265Y028235D01*
X016029Y028393D02*
X015843Y028393D01*
X015076Y026491D02*
X013986Y026491D01*
X013821Y026333D02*
X015076Y026333D01*
X007595Y033782D02*
X007481Y033782D01*
X007595Y033941D02*
X007322Y033941D01*
X007194Y034099D02*
X007595Y034099D01*
X007595Y034258D02*
X007194Y034258D01*
X007194Y034416D02*
X007595Y034416D01*
X007595Y034575D02*
X007194Y034575D01*
X007250Y034733D02*
X007630Y034733D01*
X007694Y034892D02*
X007409Y034892D01*
X007567Y035050D02*
X007853Y035050D01*
X008697Y036952D02*
X008735Y036952D01*
X008836Y037111D02*
X008616Y037111D01*
X009164Y037111D02*
X009204Y037111D01*
X013137Y037269D02*
X014680Y037269D01*
X014476Y037111D02*
X014256Y037111D01*
X014357Y036952D02*
X014395Y036952D01*
X013928Y036952D02*
X013888Y036952D01*
X013888Y036794D02*
X013928Y036794D01*
X013928Y036635D02*
X013888Y036635D01*
X013888Y037111D02*
X013928Y037111D01*
X013561Y037111D02*
X013341Y037111D01*
X013421Y036952D02*
X013460Y036952D01*
X015137Y037269D02*
X029280Y037269D01*
X037977Y028076D02*
X039310Y028076D01*
X039310Y027918D02*
X037889Y027918D01*
X037681Y027759D02*
X039310Y027759D01*
D23*
X038566Y023054D03*
X038526Y018960D03*
X038487Y012739D03*
X032778Y007739D03*
X027739Y012463D03*
X027660Y014235D03*
X029196Y016715D03*
X031676Y018015D03*
X030613Y020534D03*
X031952Y021991D03*
X030849Y023605D03*
X028645Y020534D03*
X027109Y021991D03*
X023369Y021991D03*
X020456Y022742D03*
X018526Y024235D03*
X016416Y022501D03*
X014471Y024235D03*
X014432Y025377D03*
X012936Y022582D03*
X016322Y018330D03*
X014826Y018251D03*
X019393Y018841D03*
X022286Y016026D03*
X020416Y015141D03*
X021086Y013251D03*
X023920Y014235D03*
X024511Y012306D03*
X020967Y008133D03*
X019983Y008723D03*
X019078Y008605D03*
X021834Y006952D03*
X024117Y007700D03*
X021282Y002030D03*
X017857Y005652D03*
X015810Y005652D03*
X012542Y002503D03*
X010810Y001282D03*
X010023Y003054D03*
X010928Y004904D03*
X012030Y006282D03*
X010495Y006834D03*
X008763Y007621D03*
X008723Y004865D03*
X005456Y005298D03*
X005392Y006663D03*
X003054Y004117D03*
X001912Y003999D03*
X001361Y002542D03*
X002778Y002463D03*
X003487Y001715D03*
X004708Y001322D03*
X005416Y002503D03*
X002660Y005849D03*
X002345Y006991D03*
X004432Y010023D03*
X009668Y012463D03*
X012030Y012621D03*
X014393Y012503D03*
X015456Y013093D03*
X017149Y013369D03*
X011952Y008841D03*
X009353Y016164D03*
X004550Y015849D03*
X006400Y022424D03*
X009708Y030141D03*
X009314Y031834D03*
X011243Y033487D03*
X010219Y034708D03*
X008093Y034668D03*
X006519Y032188D03*
X006164Y037897D03*
X013015Y034708D03*
X015141Y034629D03*
X013093Y032188D03*
X013605Y030928D03*
X019432Y031282D03*
X021204Y031282D03*
X024274Y032070D03*
X024314Y033605D03*
X021007Y036755D03*
X029629Y031007D03*
X030731Y032542D03*
X031007Y034511D03*
X030928Y035849D03*
X030574Y038093D03*
X033133Y033841D03*
X032660Y031834D03*
X033881Y026912D03*
X038645Y033211D03*
X038408Y037109D03*
X026952Y026558D03*
X022660Y025377D03*
X021322Y027227D03*
X038487Y006873D03*
D24*
X037121Y005889D02*
X033723Y005889D01*
X033448Y006164D01*
X033448Y009511D01*
X033763Y009826D01*
X033448Y010141D01*
X033448Y013605D01*
X033251Y013802D01*
X029983Y013802D01*
X028231Y015554D01*
X029196Y016715D02*
X028900Y017011D01*
X028900Y017582D01*
X031361Y018054D02*
X031400Y018015D01*
X031676Y018015D01*
X031952Y021991D02*
X027109Y021991D01*
X024206Y018093D02*
X021873Y018093D01*
X021479Y017700D01*
X020790Y017700D01*
X020790Y018152D01*
X020101Y018841D01*
X019826Y017030D02*
X021637Y017030D01*
X022200Y017593D01*
X022483Y016223D02*
X022306Y016046D01*
X022286Y016026D02*
X022267Y016007D01*
X014589Y016007D01*
X013448Y014865D01*
X013448Y010757D01*
X011440Y010749D02*
X011436Y010745D01*
X011440Y010749D02*
X011440Y011834D01*
X006400Y016873D01*
X006400Y020731D01*
X006794Y020337D01*
X014353Y020337D01*
X016322Y018369D01*
X016322Y018330D01*
X014393Y020337D02*
X014353Y020337D01*
X015436Y021420D02*
X019826Y017030D01*
X017149Y013369D02*
X016105Y012326D01*
X016105Y012149D01*
X019078Y008605D02*
X019078Y005298D01*
X019274Y005101D01*
X019708Y004668D01*
X019708Y003526D01*
X020377Y002857D01*
X021715Y002857D01*
X022345Y002227D01*
X022345Y001440D01*
X021755Y000849D01*
X012660Y000849D01*
X010889Y002621D01*
X010889Y002719D01*
X010633Y002463D01*
X010003Y002463D01*
X009334Y002463D02*
X009334Y003566D01*
X009412Y003645D01*
X009412Y004176D01*
X008723Y004865D01*
X010239Y003645D02*
X010633Y003645D01*
X010889Y003389D01*
X011814Y003645D02*
X011814Y005003D01*
X011282Y005534D01*
X011282Y007345D01*
X011007Y007621D01*
X008763Y007621D01*
X005062Y007621D01*
X004235Y006794D01*
X004235Y006302D01*
X004215Y006282D01*
X003605Y006952D02*
X004826Y008172D01*
X012385Y008172D01*
X012778Y007778D01*
X015121Y006794D02*
X015121Y005397D01*
X015416Y005101D01*
X017385Y005101D01*
X017129Y005357D01*
X017129Y006834D01*
X017385Y005101D02*
X019274Y005101D01*
X024206Y016593D02*
X024202Y016597D01*
X015436Y021420D02*
X015436Y028745D01*
X015436Y029745D02*
X015436Y031948D01*
X017818Y034330D01*
X027238Y034330D01*
X027238Y033830D02*
X027845Y033830D01*
X027936Y033920D01*
X027936Y035416D01*
X030613Y038093D01*
X030928Y035849D02*
X029156Y035849D01*
X028448Y035141D01*
X028448Y033448D01*
X028172Y033172D01*
X028172Y032700D01*
X027802Y032330D01*
X027238Y032330D01*
X027238Y032830D02*
X017318Y032830D01*
X016637Y032149D01*
X016538Y032050D01*
X016440Y031952D01*
X016440Y029749D01*
X016436Y029745D01*
X016952Y030652D02*
X016952Y031361D01*
X017582Y031991D01*
X020023Y031991D01*
X020219Y031794D01*
X020219Y030928D01*
X020574Y030574D01*
X021400Y030574D01*
X021637Y030810D01*
X028290Y030810D01*
X028881Y031400D01*
X028881Y031991D01*
X029219Y032330D01*
X029658Y032330D01*
X029658Y031830D02*
X030263Y031830D01*
X030267Y031834D01*
X032660Y031834D01*
X031125Y033330D02*
X031676Y033881D01*
X033093Y033881D01*
X033133Y033841D01*
X031883Y034826D02*
X031879Y034830D01*
X030889Y034830D01*
X031007Y034711D01*
X031007Y034511D01*
X030889Y034830D02*
X029658Y034830D01*
X030688Y034830D01*
X029658Y033830D02*
X029105Y033830D01*
X028920Y033645D01*
X028920Y033251D01*
X028723Y033054D01*
X028723Y032582D01*
X028251Y032109D01*
X028251Y031794D01*
X027739Y031282D01*
X021204Y031282D01*
X019432Y031282D02*
X018881Y031282D01*
X018436Y030837D01*
X018436Y029745D01*
X014491Y032916D02*
X013960Y032385D01*
X013960Y031282D01*
X013605Y030928D01*
X014491Y032916D02*
X014491Y033251D01*
X014491Y033861D01*
X014196Y034156D01*
X014196Y035062D01*
X013841Y035416D01*
X012345Y035416D01*
X011794Y034865D01*
X011794Y034314D01*
X012404Y033704D01*
X012404Y033290D01*
X011794Y034865D02*
X011164Y035495D01*
X009550Y035495D01*
X009078Y035023D01*
X009235Y034865D01*
X009235Y033625D01*
X009530Y033330D01*
X009078Y035023D02*
X008605Y035495D01*
X007503Y035495D01*
X006834Y034826D01*
X006834Y033920D01*
X007326Y033428D01*
X007326Y033290D01*
X003015Y025377D02*
X014432Y025377D01*
X006400Y022424D02*
X006400Y020731D01*
X003015Y025377D02*
X001397Y023759D01*
X001397Y007312D01*
X000637Y007312D02*
X000534Y007210D01*
X000534Y006086D01*
X000637Y005983D01*
X000637Y005698D01*
X001397Y005698D02*
X001397Y006132D01*
X001017Y006512D01*
X001397Y005698D02*
X002109Y004986D01*
X002109Y004983D01*
X002660Y005849D02*
X002778Y005849D01*
X003675Y005377D02*
X003865Y005186D01*
X002326Y003743D02*
X002444Y003625D01*
X002444Y003290D01*
X003113Y003290D02*
X003113Y002798D01*
X002778Y002463D01*
X003113Y003290D02*
X003793Y003290D01*
X003865Y003218D01*
X004245Y002418D02*
X004245Y001784D01*
X004708Y001322D01*
X001361Y002542D02*
X001017Y002887D01*
X001017Y004898D01*
X029658Y033330D02*
X031125Y033330D01*
X033251Y013802D02*
X037082Y013802D01*
X037121Y013763D01*
X037121Y009826D02*
X033763Y009826D01*
D25*
X022436Y009745D02*
X022436Y007554D01*
X021834Y006952D01*
X020967Y008133D02*
X021436Y008601D01*
X021436Y009745D01*
X017798Y007759D02*
X017798Y006834D01*
X017822Y006810D02*
X017822Y005727D01*
X017857Y005652D01*
X015822Y005822D02*
X015810Y005652D01*
X015822Y005822D02*
X015822Y006763D01*
X015790Y006794D02*
X015790Y009391D01*
X015436Y009745D01*
X014436Y009745D02*
X014436Y006877D01*
X013369Y005810D01*
X013369Y002109D01*
X013881Y001597D01*
X020849Y001597D01*
X021282Y002030D01*
X017798Y007759D02*
X016440Y009117D01*
X016440Y009741D01*
X016436Y009745D01*
X015436Y010745D02*
X015436Y012149D01*
X015436Y012365D01*
X015456Y013093D01*
X014436Y012460D02*
X014393Y012503D01*
X014436Y012460D02*
X014436Y010745D01*
X013448Y009733D02*
X013448Y008566D01*
X013408Y008526D01*
X013448Y008526D02*
X012778Y007857D01*
X012778Y007778D01*
X012778Y005003D01*
X012778Y004334D02*
X012778Y003782D01*
X012641Y003645D01*
X010003Y002463D02*
X010003Y001971D01*
X009786Y001755D01*
X007857Y001755D01*
X007582Y002030D01*
X007582Y002444D01*
X007562Y002463D01*
X007503Y002523D01*
X006322Y002523D01*
X004786Y004944D02*
X005141Y005298D01*
X005456Y005298D01*
X002345Y006991D02*
X002345Y022227D01*
X004353Y024235D01*
X014471Y024235D01*
X014393Y025337D02*
X014432Y025377D01*
X013605Y026676D02*
X009550Y026676D01*
X007897Y028330D01*
X007897Y030810D01*
X006519Y032188D01*
X008054Y031873D02*
X008054Y033231D01*
X007995Y033290D01*
X007995Y034570D01*
X008093Y034668D01*
X010200Y034688D02*
X010200Y033330D01*
X010180Y033310D01*
X010180Y031676D01*
X010928Y030928D01*
X012503Y030928D01*
X013369Y030062D01*
X013369Y029812D01*
X013436Y029745D01*
X013436Y028745D02*
X013436Y027767D01*
X013251Y027582D01*
X009944Y027582D01*
X008841Y028684D01*
X008841Y031086D01*
X008054Y031873D01*
X010200Y034688D02*
X010219Y034708D01*
X013015Y034708D02*
X013074Y034649D01*
X013074Y033290D01*
X013093Y033271D01*
X013093Y032188D01*
X014436Y031837D02*
X015141Y032542D01*
X015141Y033231D01*
X015160Y033251D01*
X015160Y034609D01*
X015141Y034629D01*
X014436Y031837D02*
X014436Y029745D01*
X014436Y028745D02*
X014436Y027507D01*
X013605Y026676D01*
X018436Y028745D02*
X018526Y028654D01*
X018526Y024235D01*
X011436Y010745D02*
X011436Y009745D01*
X013448Y008566D02*
X013448Y008526D01*
D26*
X013448Y009733D02*
X013436Y009745D01*
X013436Y010745D02*
X013448Y010757D01*
X015790Y006794D02*
X015822Y006763D01*
X017798Y006834D02*
X017822Y006810D01*
X025416Y014629D02*
X025416Y018093D01*
X024916Y018593D01*
X024206Y018593D01*
X024206Y019093D02*
X021030Y019093D01*
X017837Y022286D01*
X017542Y022582D01*
X017436Y022688D01*
X017436Y028745D01*
X019436Y028745D02*
X019436Y027184D01*
X025259Y021361D01*
X025259Y019196D01*
X025861Y018593D01*
X026626Y018593D01*
X026626Y019093D02*
X030322Y019093D01*
X031361Y018054D01*
X028231Y017582D02*
X028231Y015554D01*
X028231Y017582D02*
X028219Y017593D01*
X026626Y017593D01*
X024206Y017593D02*
X022200Y017593D01*
X022857Y016597D02*
X022483Y016223D01*
X022286Y016026D01*
X022857Y016597D02*
X024202Y016597D01*
X024206Y016593D02*
X024156Y016544D01*
X024156Y016036D01*
X024202Y019589D02*
X023526Y019589D01*
X023369Y019747D01*
X023369Y021991D01*
X024206Y019593D02*
X024202Y019589D01*
X008310Y003645D02*
X008310Y002542D01*
X008231Y002463D01*
X006322Y002523D02*
X006302Y002503D01*
X005416Y002503D01*
X004625Y003218D02*
X004786Y003379D01*
X004786Y004944D01*
X004625Y005105D01*
X004625Y005186D01*
X003865Y005186D02*
X003865Y004810D01*
X003802Y004747D01*
X003802Y003281D01*
X003865Y003218D01*
X003054Y004117D02*
X002995Y004176D01*
X002995Y004983D01*
X002326Y004983D02*
X002109Y004983D01*
X001912Y003999D02*
X001952Y003960D01*
X002109Y003960D01*
X002326Y003743D01*
X003848Y005186D02*
X003865Y005186D01*
X003675Y005377D02*
X003675Y005386D01*
X003408Y005652D01*
X002857Y005652D01*
X002660Y005849D01*
X003546Y006282D02*
X003605Y006341D01*
X003605Y006952D01*
X004215Y006282D02*
X004245Y006253D01*
X006322Y005203D02*
X006322Y004845D01*
X006322Y005203D02*
X006686Y005567D01*
X006322Y004019D02*
X006322Y003192D01*
D27*
X012436Y009745D02*
X012436Y010745D01*
X013436Y010745D02*
X013436Y009745D01*
D28*
X011952Y008841D02*
X011436Y009357D01*
X011436Y009745D01*
D29*
X010495Y006834D02*
X010029Y006367D01*
X007066Y006367D01*
X016436Y010745D02*
X016440Y010749D01*
X016440Y011282D01*
X019393Y014235D01*
X023920Y014235D01*
X025416Y014629D02*
X025416Y013211D01*
X024511Y012306D01*
X027660Y014235D02*
X027660Y016991D01*
X027558Y017093D01*
X026626Y017093D01*
X020101Y018841D02*
X019393Y018841D01*
M02*
